<svg xmlns="http://www.w3.org/2000/svg" width="85" height="94" viewBox="0 0 85 94">
  <g id="Grupo_157454" data-name="Grupo 157454" transform="translate(-285 -1539)">
    <g id="Grupo_132232" data-name="Grupo 132232" transform="translate(105 560)">
      <path id="Rectángulo_33876" data-name="Rectángulo 33876" d="M20,0H85a0,0,0,0,1,0,0V74A20,20,0,0,1,65,94H0a0,0,0,0,1,0,0V20A20,20,0,0,1,20,0Z" transform="translate(180 979)" fill="#64b5f6"/>
      <g id="Grupo_80735" data-name="Grupo 80735" transform="translate(194.362 997.465)">
        <circle id="Elipse_4740" data-name="Elipse 4740" cx="28.345" cy="28.345" r="28.345" transform="translate(-0.362 -0.465)" fill="#fff"/>
        <g id="Grupo_82558" data-name="Grupo 82558" transform="translate(-911.343 -956.466)">
          <g id="Grupo_82555" data-name="Grupo 82555" transform="translate(940.761 963.334)">
            <path id="Trazado_118404" data-name="Trazado 118404" d="M1002.224,983.955l.025,0,0,.015Z" transform="translate(-997.222 -978.41)" fill="#e0dfe6"/>
            <path id="Trazado_118405" data-name="Trazado 118405" d="M996.924,971.422l-4.3-2.482-8.068-4.658v18.594l12.366,7.14V971.422Zm-2.009,6.119-3.879-2.24v-4.479l3.879,2.24Z" transform="translate(-984.303 -964.027)" fill="#fff"/>
            <path id="Trazado_118406" data-name="Trazado 118406" d="M1008.666,988.622l3.879,2.24v4.479l-3.879-2.24Z" transform="translate(-1001.933 -981.827)" fill="#f6d84c"/>
            <path id="Trazado_118407" data-name="Trazado 118407" d="M992.06,968.026l-.382-.22-7.686-4.438a.255.255,0,0,0-.382.221v18.594a.255.255,0,0,0,.127.221l12.366,7.14a.255.255,0,0,0,.382-.221V970.729a.255.255,0,0,0-.127-.221l-4.171-2.408Zm-7.941-4,11.857,6.846v18.006l-11.857-6.846Z" transform="translate(-983.61 -963.334)" fill="#3a3a3a"/>
            <path id="Trazado_118408" data-name="Trazado 118408" d="M1012.106,994.647v-4.479a.254.254,0,0,0-.127-.221l-3.879-2.24a.254.254,0,0,0-.382.221v4.479a.255.255,0,0,0,.127.22l3.879,2.24a.255.255,0,0,0,.382-.22Zm-.509-.441-3.37-1.946V988.37l3.37,1.946Z" transform="translate(-1001.24 -981.134)" fill="#3a3a3a"/>
            <path id="Trazado_118409" data-name="Trazado 118409" d="M999.911,1007.452a.255.255,0,0,1-.348.093l-8.347-4.82a.255.255,0,1,1,.255-.441l8.347,4.82A.255.255,0,0,1,999.911,1007.452Z" transform="translate(-989.079 -991.793)" fill="#3a3a3a"/>
            <path id="Trazado_118410" data-name="Trazado 118410" d="M1012.7,1021.928l2.642,1.525a.255.255,0,1,1-.255.441l-2.642-1.525a.255.255,0,1,1,.255-.441Z" transform="translate(-1004.604 -1006.159)" fill="#3a3a3a"/>
            <path id="Trazado_118411" data-name="Trazado 118411" d="M991.471,1009.669l4.2,2.425a.254.254,0,0,1-.128.475.25.25,0,0,1-.127-.034l-4.2-2.425a.255.255,0,0,1,.255-.441Z" transform="translate(-989.079 -997.193)" fill="#3a3a3a"/>
            <path id="Trazado_118412" data-name="Trazado 118412" d="M1005.274,1025.612,999.026,1022a.255.255,0,1,1,.255-.441l6.249,3.608Z" transform="translate(-994.79 -1005.892)" fill="#3a3a3a"/>
            <path id="Trazado_118413" data-name="Trazado 118413" d="M991.471,1017.052l1.345.777a.255.255,0,0,1-.128.475.251.251,0,0,1-.127-.034l-1.345-.777a.255.255,0,0,1,.255-.441Z" transform="translate(-989.079 -1002.593)" fill="#3a3a3a"/>
            <path id="Trazado_118414" data-name="Trazado 118414" d="M1013.7,1037.273c1.339.774,2.373,1.37,2.374,1.37a.255.255,0,1,1-.255.441l-2.374-1.37a.255.255,0,1,1,.255-.441Z" transform="translate(-1005.336 -1017.38)" fill="#3a3a3a"/>
            <path id="Trazado_118415" data-name="Trazado 118415" d="M996.714,1027.36a.255.255,0,0,1-.255.441l-4.9-2.827.255-.441Z" transform="translate(-989.425 -1008.088)" fill="#3a3a3a"/>
          </g>
          <g id="Grupo_82556" data-name="Grupo 82556" transform="translate(925.017 963.384)">
            <path id="Trazado_118416" data-name="Trazado 118416" d="M943.631,984.139l.025,0,0,.015Z" transform="translate(-938.629 -978.594)" fill="#e0dfe6"/>
            <path id="Trazado_118417" data-name="Trazado 118417" d="M938.331,971.606l-4.3-2.482-8.068-4.658v18.595l12.366,7.14V971.606Zm-2.009,6.119-3.879-2.24v-4.479l3.879,2.24Z" transform="translate(-925.71 -964.211)" fill="#fff"/>
            <path id="Trazado_118418" data-name="Trazado 118418" d="M950.072,988.806l3.879,2.24v4.479l-3.879-2.24Z" transform="translate(-943.34 -982.011)" fill="#64b5f6"/>
            <path id="Trazado_118419" data-name="Trazado 118419" d="M933.467,968.211l-.382-.221-7.686-4.438a.255.255,0,0,0-.382.221v18.595a.255.255,0,0,0,.127.221l12.366,7.14a.254.254,0,0,0,.382-.221V970.913a.255.255,0,0,0-.127-.221l-4.171-2.408Zm-7.941-4,11.857,6.846v18.006l-11.857-6.846Z" transform="translate(-925.017 -963.518)" fill="#3a3a3a"/>
            <path id="Trazado_118420" data-name="Trazado 118420" d="M953.512,994.831v-4.479a.255.255,0,0,0-.127-.221l-3.879-2.24a.255.255,0,0,0-.382.221v4.479a.255.255,0,0,0,.127.221l3.879,2.24a.255.255,0,0,0,.382-.221ZM953,994.39l-3.369-1.946v-3.89L953,990.5Z" transform="translate(-942.646 -981.318)" fill="#3a3a3a"/>
            <path id="Trazado_118421" data-name="Trazado 118421" d="M941.318,1007.636a.255.255,0,0,1-.221.128.253.253,0,0,1-.127-.034l-8.347-4.82a.255.255,0,1,1,.255-.441l8.347,4.82A.254.254,0,0,1,941.318,1007.636Z" transform="translate(-930.486 -991.977)" fill="#3a3a3a"/>
            <path id="Trazado_118422" data-name="Trazado 118422" d="M954.108,1022.113l2.642,1.526a.255.255,0,1,1-.254.441l-2.642-1.526a.255.255,0,1,1,.255-.441Z" transform="translate(-946.011 -1006.343)" fill="#3a3a3a"/>
            <path id="Trazado_118423" data-name="Trazado 118423" d="M932.877,1009.853l4.2,2.424a.255.255,0,1,1-.255.441l-4.2-2.425a.255.255,0,1,1,.255-.441Z" transform="translate(-930.486 -997.377)" fill="#3a3a3a"/>
            <path id="Trazado_118424" data-name="Trazado 118424" d="M946.681,1025.8l-6.249-3.608a.255.255,0,1,1,.255-.441l6.249,3.607Z" transform="translate(-936.197 -1006.076)" fill="#3a3a3a"/>
            <path id="Trazado_118425" data-name="Trazado 118425" d="M932.877,1017.236l1.345.777a.255.255,0,0,1-.255.441l-1.345-.777a.255.255,0,1,1,.255-.441Z" transform="translate(-930.486 -1002.777)" fill="#3a3a3a"/>
            <path id="Trazado_118426" data-name="Trazado 118426" d="M955.108,1037.458l2.373,1.37a.255.255,0,0,1-.128.475.252.252,0,0,1-.127-.034l-2.374-1.37a.255.255,0,1,1,.255-.441Z" transform="translate(-946.743 -1017.565)" fill="#3a3a3a"/>
            <path id="Trazado_118427" data-name="Trazado 118427" d="M938.121,1027.544a.255.255,0,1,1-.255.441l-4.9-2.827.255-.441Z" transform="translate(-930.832 -1008.272)" fill="#3a3a3a"/>
          </g>
          <g id="Grupo_82557" data-name="Grupo 82557" transform="translate(929.504 979.116)">
            <path id="Trazado_118428" data-name="Trazado 118428" d="M960.329,1042.686l.025,0,0,.015Z" transform="translate(-955.327 -1037.141)" fill="#e0dfe6"/>
            <path id="Trazado_118429" data-name="Trazado 118429" d="M955.029,1030.153l-4.3-2.482-8.068-4.658v18.594l12.366,7.14v-18.594Zm-2.01,6.119-3.879-2.24v-4.479l3.879,2.24Z" transform="translate(-942.408 -1022.758)" fill="#fff"/>
            <path id="Trazado_118430" data-name="Trazado 118430" d="M966.77,1047.353l3.879,2.24v4.479l-3.879-2.24Z" transform="translate(-960.038 -1040.558)" fill="#ba68c8"/>
            <path id="Trazado_118431" data-name="Trazado 118431" d="M950.165,1026.758l-.382-.221L942.1,1022.1a.255.255,0,0,0-.382.22v18.594a.255.255,0,0,0,.127.221l12.366,7.14a.255.255,0,0,0,.382-.221V1029.46a.254.254,0,0,0-.127-.22l-4.17-2.408Zm-7.941-4,11.857,6.846v18.006l-11.857-6.846Z" transform="translate(-941.715 -1022.065)" fill="#3a3a3a"/>
            <path id="Trazado_118432" data-name="Trazado 118432" d="M970.21,1053.378V1048.9a.255.255,0,0,0-.127-.221l-3.879-2.24a.255.255,0,0,0-.382.221v4.479a.255.255,0,0,0,.127.221l3.879,2.24a.255.255,0,0,0,.382-.221Zm-.51-.441-3.369-1.946v-3.89l3.369,1.946Z" transform="translate(-959.344 -1039.865)" fill="#3a3a3a"/>
            <path id="Trazado_118433" data-name="Trazado 118433" d="M958.015,1066.184a.255.255,0,0,1-.221.127.251.251,0,0,1-.127-.035l-8.347-4.82a.255.255,0,1,1,.255-.441l8.347,4.82A.255.255,0,0,1,958.015,1066.184Z" transform="translate(-947.183 -1050.525)" fill="#3a3a3a"/>
            <path id="Trazado_118434" data-name="Trazado 118434" d="M970.806,1080.66l2.642,1.525a.255.255,0,0,1-.255.441l-2.642-1.526a.255.255,0,0,1,.255-.441Z" transform="translate(-962.709 -1064.89)" fill="#3a3a3a"/>
            <path id="Trazado_118435" data-name="Trazado 118435" d="M949.575,1068.4l4.2,2.425a.255.255,0,1,1-.255.441l-4.2-2.425a.255.255,0,0,1,.255-.441Z" transform="translate(-947.183 -1055.924)" fill="#3a3a3a"/>
            <path id="Trazado_118436" data-name="Trazado 118436" d="M963.379,1084.343l-6.249-3.607a.255.255,0,0,1,.255-.441l6.249,3.607Z" transform="translate(-952.895 -1064.623)" fill="#3a3a3a"/>
            <path id="Trazado_118437" data-name="Trazado 118437" d="M949.575,1075.783l1.345.777a.255.255,0,0,1-.127.475.252.252,0,0,1-.127-.034l-1.345-.777a.255.255,0,0,1,.255-.441Z" transform="translate(-947.183 -1061.324)" fill="#3a3a3a"/>
            <path id="Trazado_118438" data-name="Trazado 118438" d="M971.806,1096l2.374,1.37a.255.255,0,1,1-.255.441l-2.374-1.37a.255.255,0,1,1,.255-.441Z" transform="translate(-963.441 -1076.112)" fill="#3a3a3a"/>
            <path id="Trazado_118439" data-name="Trazado 118439" d="M954.819,1086.091a.255.255,0,0,1-.255.441l-4.9-2.827.255-.441Z" transform="translate(-947.53 -1066.82)" fill="#3a3a3a"/>
          </g>
        </g>
      </g>
    </g>
  </g>
</svg>
