<svg xmlns="http://www.w3.org/2000/svg" width="1240" height="1061.531" viewBox="0 0 1240 1061.531">
  <g id="Grupo_144651" data-name="Grupo 144651" transform="translate(15035 9900.348)">
    <rect id="Rectángulo_41482" data-name="Rectángulo 41482" width="305.331" height="217.894" rx="26.65" transform="translate(-14100.33 -9900.348)" fill="#ebe4f8"/>
    <rect id="Rectángulo_41487" data-name="Rectángulo 41487" width="341.128" height="82.272" rx="41.136" transform="translate(-15035 -9387.305)" fill="#5c22c3"/>
    <text id="Aplicar_instrumentos_para_recolectar_información" data-name="Aplicar instrumentos  para recolectar información" transform="translate(-14988.848 -9372.255)" fill="#fff" font-size="20" font-family="Roboto-Black, Roboto" font-weight="800"><tspan x="0" y="21" xml:space="preserve">Aplicar instrumentos  para </tspan><tspan x="0" y="48">recolectar información</tspan></text>
    <g id="Rectángulo_41490" data-name="Rectángulo 41490" transform="translate(-14771.462 -9563.386)" fill="#ebe4f8" stroke="#5c22c3" stroke-width="3">
      <rect width="273.905" height="95.315" rx="47.658" stroke="none"/>
      <rect x="1.5" y="1.5" width="270.905" height="92.315" rx="46.158" fill="none"/>
    </g>
    <text id="Verificación_de_los_instrumentos" data-name="Verificación de los instrumentos" transform="translate(-14737.35 -9542.316)" fill="#12263f" font-size="20" font-family="Roboto-Black, Roboto" font-weight="800"><tspan x="-84.185" y="21">Verificación de los </tspan><tspan x="-60.093" y="48">instrumentos</tspan></text>
    <g id="Rectángulo_43425" data-name="Rectángulo 43425" transform="translate(-14771.462 -9223.262)" fill="#ebe4f8" stroke="#5c22c3" stroke-width="3">
      <rect width="273.905" height="95.315" rx="47.658" stroke="none"/>
      <rect x="1.5" y="1.5" width="270.905" height="92.315" rx="46.158" fill="none"/>
    </g>
    <text id="Aplicación_de_los_instrumentos" data-name="Aplicación de los instrumentos" transform="translate(-14737.35 -9202.192)" fill="#12263f" font-size="20" font-family="Roboto-Black, Roboto" font-weight="800"><tspan x="-77.178" y="21">Aplicación de los </tspan><tspan x="-60.093" y="48">instrumentos</tspan></text>
    <g id="Rectángulo_43426" data-name="Rectángulo 43426" transform="translate(-14459.431 -9759.534)" fill="#ebe4f8" stroke="#5c22c3" stroke-width="3">
      <rect width="273.905" height="95.315" rx="47.658" stroke="none"/>
      <rect x="1.5" y="1.5" width="270.905" height="92.315" rx="46.158" fill="none"/>
    </g>
    <text id="Instructivo" transform="translate(-14425.317 -9724.419)" fill="#12263f" font-size="20" font-family="Roboto-Black, Roboto" font-weight="800"><tspan x="-48.726" y="21">Instructivo</tspan></text>
    <g id="Rectángulo_43427" data-name="Rectángulo 43427" transform="translate(-14459.431 -9271.923)" fill="#ebe4f8" stroke="#5c22c3" stroke-width="3">
      <rect width="273.905" height="95.315" rx="47.658" stroke="none"/>
      <rect x="1.5" y="1.5" width="270.905" height="92.315" rx="46.158" fill="none"/>
    </g>
    <text id="Aplicación_presencial" data-name="Aplicación presencial" transform="translate(-14425.317 -9236.807)" fill="#12263f" font-size="20" font-family="Roboto-Black, Roboto" font-weight="800"><tspan x="-97.202" y="21">Aplicación presencial</tspan></text>
    <g id="Rectángulo_43428" data-name="Rectángulo 43428" transform="translate(-14459.431 -9148.515)" fill="#ebe4f8" stroke="#5c22c3" stroke-width="3">
      <rect width="273.905" height="95.315" rx="47.658" stroke="none"/>
      <rect x="1.5" y="1.5" width="270.905" height="92.315" rx="46.158" fill="none"/>
    </g>
    <text id="Rutas_de_recolección" data-name="Rutas de recolección" transform="translate(-14425.317 -9114.402)" fill="#12263f" font-size="20" font-family="Roboto-Black, Roboto" font-weight="800"><tspan x="-94.707" y="21">Rutas de recolección</tspan></text>
    <g id="Rectángulo_43429" data-name="Rectángulo 43429" transform="translate(-14459.431 -9026.11)" fill="#ebe4f8" stroke="#5c22c3" stroke-width="3">
      <rect width="273.905" height="95.315" rx="47.658" stroke="none"/>
      <rect x="1.5" y="1.5" width="270.905" height="92.315" rx="46.158" fill="none"/>
    </g>
    <text id="Protocolos_de_diligenciamiento" data-name="Protocolos de diligenciamiento" transform="translate(-14425.317 -9005.041)" fill="#12263f" font-size="20" font-family="Roboto-Black, Roboto" font-weight="800"><tspan x="-62.495" y="21">Protocolos de </tspan><tspan x="-75.308" y="48">diligenciamiento</tspan></text>
    <g id="Rectángulo_43430" data-name="Rectángulo 43430" transform="translate(-14459.431 -9637.13)" fill="#ebe4f8" stroke="#5c22c3" stroke-width="3">
      <rect width="273.905" height="95.315" rx="47.658" stroke="none"/>
      <rect x="1.5" y="1.5" width="270.905" height="92.315" rx="46.158" fill="none"/>
    </g>
    <text id="Elementos_de_apoyo" data-name="Elementos de apoyo" transform="translate(-14425.317 -9603.018)" fill="#12263f" font-size="20" font-family="Roboto-Black, Roboto" font-weight="800"><tspan x="-90.908" y="21">Elementos de apoyo</tspan></text>
    <g id="Rectángulo_43431" data-name="Rectángulo 43431" transform="translate(-14459.431 -9515.729)" fill="#ebe4f8" stroke="#5c22c3" stroke-width="3">
      <rect width="273.905" height="95.315" rx="47.658" stroke="none"/>
      <rect x="1.5" y="1.5" width="270.905" height="92.315" rx="46.158" fill="none"/>
    </g>
    <text id="Plan_de_recolección" data-name="Plan de recolección" transform="translate(-14425.317 -9480.612)" fill="#12263f" font-size="20" font-family="Roboto-Black, Roboto" font-weight="800"><tspan x="-88.887" y="21">Plan de recolección</tspan></text>
    <g id="Rectángulo_43432" data-name="Rectángulo 43432" transform="translate(-14459.431 -9393.324)" fill="#ebe4f8" stroke="#5c22c3" stroke-width="3">
      <rect width="273.905" height="95.315" rx="47.658" stroke="none"/>
      <rect x="1.5" y="1.5" width="270.905" height="92.315" rx="46.158" fill="none"/>
    </g>
    <text id="Aplicaciones_online" data-name="Aplicaciones online" transform="translate(-14425.317 -9359.211)" fill="#12263f" font-size="20" font-family="Roboto-Black, Roboto" font-weight="800"><tspan x="-88.535" y="21">Aplicaciones online</tspan></text>
    <g id="Grupo_144647" data-name="Grupo 144647" transform="translate(-14072.439 -9882.288)">
      <text id="Introducción_Enumerar_pasos_Sencillo_y_directo_Tercera_persona_Uso_de_gráficos_Incluir_elementos_herramientas_Redacción_y_ortografía" data-name="Introducción
Enumerar pasos
Sencillo y directo
Tercera persona
Uso de gráficos
Incluir elementos / herramientas
Redacción y ortografía" transform="translate(17.466)" fill="#12263f" font-size="16" font-family="Roboto-Regular, Roboto"><tspan x="0" y="17">Introducción</tspan><tspan x="0" y="43">Enumerar pasos</tspan><tspan x="0" y="69">Sencillo y directo</tspan><tspan x="0" y="95">Tercera persona</tspan><tspan x="0" y="121">Uso de gráficos</tspan><tspan x="0" y="147">Incluir elementos / herramientas</tspan><tspan x="0" y="173">Redacción y ortografía</tspan></text>
      <g id="Grupo_944" data-name="Grupo 944" transform="translate(0 3.01)">
        <g id="Grupo_423" data-name="Grupo 423">
          <path id="Trazado_635" data-name="Trazado 635" d="M8.413,6.785,1.862.235a.8.8,0,0,0-1.135,0l0,0L.241.717a.8.8,0,0,0,0,1.135l0,0,5.5,5.5L.235,12.863A.8.8,0,0,0,.231,14l0,0,.483.483a.8.8,0,0,0,1.135,0l0,0L8.413,7.926a.813.813,0,0,0,0-1.143Z" transform="translate(0.002 0.002)" fill="#00223d"/>
        </g>
      </g>
      <g id="Grupo_944-2" data-name="Grupo 944" transform="translate(0 30.776)">
        <g id="Grupo_423-2" data-name="Grupo 423">
          <path id="Trazado_635-2" data-name="Trazado 635" d="M8.413,6.785,1.862.235a.8.8,0,0,0-1.135,0l0,0L.241.717a.8.8,0,0,0,0,1.135l0,0,5.5,5.5L.235,12.863A.8.8,0,0,0,.231,14l0,0,.483.483a.8.8,0,0,0,1.135,0l0,0L8.413,7.926a.813.813,0,0,0,0-1.143Z" transform="translate(0.002 0.002)" fill="#00223d"/>
        </g>
      </g>
      <g id="Grupo_944-3" data-name="Grupo 944" transform="translate(0 56.535)">
        <g id="Grupo_423-3" data-name="Grupo 423">
          <path id="Trazado_635-3" data-name="Trazado 635" d="M8.413,6.785,1.862.235a.8.8,0,0,0-1.135,0l0,0L.241.717a.8.8,0,0,0,0,1.135l0,0,5.5,5.5L.235,12.863A.8.8,0,0,0,.231,14l0,0,.483.483a.8.8,0,0,0,1.135,0l0,0L8.413,7.926a.813.813,0,0,0,0-1.143Z" transform="translate(0.002 0.002)" fill="#00223d"/>
        </g>
      </g>
      <g id="Grupo_944-4" data-name="Grupo 944" transform="translate(0 83.297)">
        <g id="Grupo_423-4" data-name="Grupo 423">
          <path id="Trazado_635-4" data-name="Trazado 635" d="M8.413,6.785,1.862.235a.8.8,0,0,0-1.135,0l0,0L.241.717a.8.8,0,0,0,0,1.135l0,0,5.5,5.5L.235,12.863A.8.8,0,0,0,.231,14l0,0,.483.483a.8.8,0,0,0,1.135,0l0,0L8.413,7.926a.813.813,0,0,0,0-1.143Z" transform="translate(0.002 0.002)" fill="#00223d"/>
        </g>
      </g>
      <g id="Grupo_944-5" data-name="Grupo 944" transform="translate(0 110.059)">
        <g id="Grupo_423-5" data-name="Grupo 423">
          <path id="Trazado_635-5" data-name="Trazado 635" d="M8.413,6.785,1.862.235a.8.8,0,0,0-1.135,0l0,0L.241.717a.8.8,0,0,0,0,1.135l0,0,5.5,5.5L.235,12.863A.8.8,0,0,0,.231,14l0,0,.483.483a.8.8,0,0,0,1.135,0l0,0L8.413,7.926a.813.813,0,0,0,0-1.143Z" transform="translate(0.002 0.002)" fill="#00223d"/>
        </g>
      </g>
      <g id="Grupo_944-6" data-name="Grupo 944" transform="translate(0 135.818)">
        <g id="Grupo_423-6" data-name="Grupo 423">
          <path id="Trazado_635-6" data-name="Trazado 635" d="M8.413,6.785,1.862.235a.8.8,0,0,0-1.135,0l0,0L.241.717a.8.8,0,0,0,0,1.135l0,0,5.5,5.5L.235,12.863A.8.8,0,0,0,.231,14l0,0,.483.483a.8.8,0,0,0,1.135,0l0,0L8.413,7.926a.813.813,0,0,0,0-1.143Z" transform="translate(0.002 0.002)" fill="#00223d"/>
        </g>
      </g>
      <g id="Grupo_944-7" data-name="Grupo 944" transform="translate(0 162.58)">
        <g id="Grupo_423-7" data-name="Grupo 423">
          <path id="Trazado_635-7" data-name="Trazado 635" d="M8.413,6.785,1.862.235a.8.8,0,0,0-1.135,0l0,0L.241.717a.8.8,0,0,0,0,1.135l0,0,5.5,5.5L.235,12.863A.8.8,0,0,0,.231,14l0,0,.483.483a.8.8,0,0,0,1.135,0l0,0L8.413,7.926a.813.813,0,0,0,0-1.143Z" transform="translate(0.002 0.002)" fill="#00223d"/>
        </g>
      </g>
    </g>
    <rect id="Rectángulo_43433" data-name="Rectángulo 43433" width="305.331" height="137.629" rx="26.65" transform="translate(-14100.33 -9672.421)" fill="#ebe4f8"/>
    <g id="Grupo_144648" data-name="Grupo 144648" transform="translate(-14072.439 -9655.364)">
      <text id="Cartas_de_materiales_Insumos_Elementos_de_toma_de_apuntes_Cámara_y_grabadora_de_audio" data-name="Cartas de materiales
Insumos
Elementos de toma de apuntes
Cámara y grabadora de audio" transform="translate(17.466)" fill="#12263f" font-size="16" font-family="Roboto-Regular, Roboto"><tspan x="0" y="17">Cartas de materiales</tspan><tspan x="0" y="43">Insumos</tspan><tspan x="0" y="69">Elementos de toma de apuntes</tspan><tspan x="0" y="95">Cámara y grabadora de audio</tspan></text>
      <g id="Grupo_944-8" data-name="Grupo 944" transform="translate(0 3.01)">
        <g id="Grupo_423-8" data-name="Grupo 423">
          <path id="Trazado_635-8" data-name="Trazado 635" d="M8.413,6.785,1.862.235a.8.8,0,0,0-1.135,0l0,0L.241.717a.8.8,0,0,0,0,1.135l0,0,5.5,5.5L.235,12.863A.8.8,0,0,0,.231,14l0,0,.483.483a.8.8,0,0,0,1.135,0l0,0L8.413,7.926a.813.813,0,0,0,0-1.143Z" transform="translate(0.002 0.002)" fill="#00223d"/>
        </g>
      </g>
      <g id="Grupo_944-9" data-name="Grupo 944" transform="translate(0 30.776)">
        <g id="Grupo_423-9" data-name="Grupo 423">
          <path id="Trazado_635-9" data-name="Trazado 635" d="M8.413,6.785,1.862.235a.8.8,0,0,0-1.135,0l0,0L.241.717a.8.8,0,0,0,0,1.135l0,0,5.5,5.5L.235,12.863A.8.8,0,0,0,.231,14l0,0,.483.483a.8.8,0,0,0,1.135,0l0,0L8.413,7.926a.813.813,0,0,0,0-1.143Z" transform="translate(0.002 0.002)" fill="#00223d"/>
        </g>
      </g>
      <g id="Grupo_944-10" data-name="Grupo 944" transform="translate(0 56.535)">
        <g id="Grupo_423-10" data-name="Grupo 423">
          <path id="Trazado_635-10" data-name="Trazado 635" d="M8.413,6.785,1.862.235a.8.8,0,0,0-1.135,0l0,0L.241.717a.8.8,0,0,0,0,1.135l0,0,5.5,5.5L.235,12.863A.8.8,0,0,0,.231,14l0,0,.483.483a.8.8,0,0,0,1.135,0l0,0L8.413,7.926a.813.813,0,0,0,0-1.143Z" transform="translate(0.002 0.002)" fill="#00223d"/>
        </g>
      </g>
      <g id="Grupo_944-11" data-name="Grupo 944" transform="translate(0 83.297)">
        <g id="Grupo_423-11" data-name="Grupo 423">
          <path id="Trazado_635-11" data-name="Trazado 635" d="M8.413,6.785,1.862.235a.8.8,0,0,0-1.135,0l0,0L.241.717a.8.8,0,0,0,0,1.135l0,0,5.5,5.5L.235,12.863A.8.8,0,0,0,.231,14l0,0,.483.483a.8.8,0,0,0,1.135,0l0,0L8.413,7.926a.813.813,0,0,0,0-1.143Z" transform="translate(0.002 0.002)" fill="#00223d"/>
        </g>
      </g>
    </g>
    <rect id="Rectángulo_43434" data-name="Rectángulo 43434" width="305.331" height="165.722" rx="26.65" transform="translate(-14100.33 -9524.933)" fill="#ebe4f8"/>
    <text id="_1._Parámetros_2._Recolección_de_datos_3._Vigilar_la_recolección_4._Terminar_la_recolección_5._Calificar_el_proceso" data-name="1. Parámetros
2. Recolección de datos
3. Vigilar la recolección
4. Terminar la recolección
5. Calificar el proceso" transform="translate(-14072.439 -9504.866)" fill="#12263f" font-size="16" font-family="Roboto-Bold, Roboto" font-weight="700"><tspan x="0" y="17">1. </tspan><tspan y="17" font-family="Roboto-Regular, Roboto" font-weight="400">Parámetros</tspan><tspan x="0" y="43">2.</tspan><tspan y="43" xml:space="preserve" font-family="Roboto-Regular, Roboto" font-weight="400"> Recolección de datos</tspan><tspan x="0" y="69">3.</tspan><tspan y="69" xml:space="preserve" font-family="Roboto-Regular, Roboto" font-weight="400"> Vigilar la recolección</tspan><tspan x="0" y="95">4.</tspan><tspan y="95" xml:space="preserve" font-family="Roboto-Regular, Roboto" font-weight="400"> Terminar la recolección</tspan><tspan x="0" y="121">5.</tspan><tspan y="121" xml:space="preserve" font-family="Roboto-Regular, Roboto" font-weight="400"> Calificar el proceso</tspan></text>
    <rect id="Rectángulo_43435" data-name="Rectángulo 43435" width="305.331" height="110.539" rx="26.65" transform="translate(-14100.33 -9156.629)" fill="#ebe4f8"/>
    <g id="Grupo_144649" data-name="Grupo 144649" transform="translate(-14072.439 -9137.565)">
      <text id="Distancia_Tiempo_Recursos_" data-name="Distancia
Tiempo
Recursos " transform="translate(17.466)" fill="#12263f" font-size="16" font-family="Roboto-Regular, Roboto"><tspan x="0" y="17">Distancia</tspan><tspan x="0" y="43">Tiempo</tspan><tspan x="0" y="69">Recursos </tspan></text>
      <g id="Grupo_944-12" data-name="Grupo 944" transform="translate(0 3.01)">
        <g id="Grupo_423-12" data-name="Grupo 423">
          <path id="Trazado_635-12" data-name="Trazado 635" d="M8.413,6.785,1.862.235a.8.8,0,0,0-1.135,0l0,0L.241.717a.8.8,0,0,0,0,1.135l0,0,5.5,5.5L.235,12.863A.8.8,0,0,0,.231,14l0,0,.483.483a.8.8,0,0,0,1.135,0l0,0L8.413,7.926a.813.813,0,0,0,0-1.143Z" transform="translate(0.002 0.002)" fill="#00223d"/>
        </g>
      </g>
      <g id="Grupo_944-13" data-name="Grupo 944" transform="translate(0 30.776)">
        <g id="Grupo_423-13" data-name="Grupo 423">
          <path id="Trazado_635-13" data-name="Trazado 635" d="M8.413,6.785,1.862.235a.8.8,0,0,0-1.135,0l0,0L.241.717a.8.8,0,0,0,0,1.135l0,0,5.5,5.5L.235,12.863A.8.8,0,0,0,.231,14l0,0,.483.483a.8.8,0,0,0,1.135,0l0,0L8.413,7.926a.813.813,0,0,0,0-1.143Z" transform="translate(0.002 0.002)" fill="#00223d"/>
        </g>
      </g>
      <g id="Grupo_944-14" data-name="Grupo 944" transform="translate(0 56.535)">
        <g id="Grupo_423-14" data-name="Grupo 423">
          <path id="Trazado_635-14" data-name="Trazado 635" d="M8.413,6.785,1.862.235a.8.8,0,0,0-1.135,0l0,0L.241.717a.8.8,0,0,0,0,1.135l0,0,5.5,5.5L.235,12.863A.8.8,0,0,0,.231,14l0,0,.483.483a.8.8,0,0,0,1.135,0l0,0L8.413,7.926a.813.813,0,0,0,0-1.143Z" transform="translate(0.002 0.002)" fill="#00223d"/>
        </g>
      </g>
    </g>
    <rect id="Rectángulo_43436" data-name="Rectángulo 43436" width="305.331" height="196.824" rx="26.65" transform="translate(-14100.33 -9035.642)" fill="#ebe4f8"/>
    <g id="Grupo_144650" data-name="Grupo 144650" transform="translate(-14072.439 -9017.582)">
      <text id="Actitud_Veracidad_y_sinceridad_Seguir_indicaciones_Indagara_sobre_interrogantes_Compromiso_Respeto_y_empatía." data-name="Actitud
Veracidad y sinceridad
Seguir indicaciones
Indagara sobre interrogantes
Compromiso
Respeto y empatía." transform="translate(17.466)" fill="#12263f" font-size="16" font-family="Roboto-Regular, Roboto"><tspan x="0" y="17">Actitud</tspan><tspan x="0" y="43">Veracidad y sinceridad</tspan><tspan x="0" y="69">Seguir indicaciones</tspan><tspan x="0" y="95">Indagara sobre interrogantes</tspan><tspan x="0" y="121">Compromiso</tspan><tspan x="0" y="147">Respeto y empatía.</tspan></text>
      <g id="Grupo_944-15" data-name="Grupo 944" transform="translate(0 3.01)">
        <g id="Grupo_423-15" data-name="Grupo 423">
          <path id="Trazado_635-15" data-name="Trazado 635" d="M8.413,6.785,1.862.235a.8.8,0,0,0-1.135,0l0,0L.241.717a.8.8,0,0,0,0,1.135l0,0,5.5,5.5L.235,12.863A.8.8,0,0,0,.231,14l0,0,.483.483a.8.8,0,0,0,1.135,0l0,0L8.413,7.926a.813.813,0,0,0,0-1.143Z" transform="translate(0.002 0.002)" fill="#00223d"/>
        </g>
      </g>
      <g id="Grupo_944-16" data-name="Grupo 944" transform="translate(0 30.776)">
        <g id="Grupo_423-16" data-name="Grupo 423">
          <path id="Trazado_635-16" data-name="Trazado 635" d="M8.413,6.785,1.862.235a.8.8,0,0,0-1.135,0l0,0L.241.717a.8.8,0,0,0,0,1.135l0,0,5.5,5.5L.235,12.863A.8.8,0,0,0,.231,14l0,0,.483.483a.8.8,0,0,0,1.135,0l0,0L8.413,7.926a.813.813,0,0,0,0-1.143Z" transform="translate(0.002 0.002)" fill="#00223d"/>
        </g>
      </g>
      <g id="Grupo_944-17" data-name="Grupo 944" transform="translate(0 56.535)">
        <g id="Grupo_423-17" data-name="Grupo 423">
          <path id="Trazado_635-17" data-name="Trazado 635" d="M8.413,6.785,1.862.235a.8.8,0,0,0-1.135,0l0,0L.241.717a.8.8,0,0,0,0,1.135l0,0,5.5,5.5L.235,12.863A.8.8,0,0,0,.231,14l0,0,.483.483a.8.8,0,0,0,1.135,0l0,0L8.413,7.926a.813.813,0,0,0,0-1.143Z" transform="translate(0.002 0.002)" fill="#00223d"/>
        </g>
      </g>
      <g id="Grupo_944-18" data-name="Grupo 944" transform="translate(0 83.297)">
        <g id="Grupo_423-18" data-name="Grupo 423">
          <path id="Trazado_635-18" data-name="Trazado 635" d="M8.413,6.785,1.862.235a.8.8,0,0,0-1.135,0l0,0L.241.717a.8.8,0,0,0,0,1.135l0,0,5.5,5.5L.235,12.863A.8.8,0,0,0,.231,14l0,0,.483.483a.8.8,0,0,0,1.135,0l0,0L8.413,7.926a.813.813,0,0,0,0-1.143Z" transform="translate(0.002 0.002)" fill="#00223d"/>
        </g>
      </g>
      <g id="Grupo_944-19" data-name="Grupo 944" transform="translate(0 110.059)">
        <g id="Grupo_423-19" data-name="Grupo 423">
          <path id="Trazado_635-19" data-name="Trazado 635" d="M8.413,6.785,1.862.235a.8.8,0,0,0-1.135,0l0,0L.241.717a.8.8,0,0,0,0,1.135l0,0,5.5,5.5L.235,12.863A.8.8,0,0,0,.231,14l0,0,.483.483a.8.8,0,0,0,1.135,0l0,0L8.413,7.926a.813.813,0,0,0,0-1.143Z" transform="translate(0.002 0.002)" fill="#00223d"/>
        </g>
      </g>
      <g id="Grupo_944-20" data-name="Grupo 944" transform="translate(0 135.818)">
        <g id="Grupo_423-20" data-name="Grupo 423">
          <path id="Trazado_635-20" data-name="Trazado 635" d="M8.413,6.785,1.862.235a.8.8,0,0,0-1.135,0l0,0L.241.717a.8.8,0,0,0,0,1.135l0,0,5.5,5.5L.235,12.863A.8.8,0,0,0,.231,14l0,0,.483.483a.8.8,0,0,0,1.135,0l0,0L8.413,7.926a.813.813,0,0,0,0-1.143Z" transform="translate(0.002 0.002)" fill="#00223d"/>
        </g>
      </g>
    </g>
    <path id="Trazado_133313" data-name="Trazado 133313" d="M-14865-9386.16v-128.424h93.579" transform="translate(0.564 -1.144)" fill="none" stroke="#707070" stroke-width="3"/>
    <path id="Trazado_133314" data-name="Trazado 133314" d="M-14865-9307v129.428h94.947" transform="translate(0.564 1.967)" fill="none" stroke="#707070" stroke-width="3"/>
    <path id="Trazado_133315" data-name="Trazado 133315" d="M-14499.333-9514.348h17.723V-9710.5h21.036" transform="translate(1.776 -1.38)" fill="none" stroke="#707070" stroke-width="3"/>
    <path id="Trazado_133316" data-name="Trazado 133316" d="M-14480.017-9517v48.158h21.056" transform="translate(0.045 1.271)" fill="none" stroke="#707070" stroke-width="3"/>
    <path id="Trazado_133317" data-name="Trazado 133317" d="M-14481.806-9590.5h20.654" transform="translate(1.834 1.028)" fill="none" stroke="#707070" stroke-width="3"/>
    <path id="Trazado_133318" data-name="Trazado 133318" d="M-14188.333-9712.5h85.93" transform="translate(2.808 0.623)" fill="none" stroke="#707070" stroke-width="3"/>
    <path id="Trazado_133319" data-name="Trazado 133319" d="M-14188.333-9590.5h85.52" transform="translate(2.808 1.028)" fill="none" stroke="#707070" stroke-width="3"/>
    <path id="Trazado_133320" data-name="Trazado 133320" d="M-14188.333-9469h84.629" transform="translate(2.808 1.43)" fill="none" stroke="#707070" stroke-width="3"/>
    <path id="Trazado_133321" data-name="Trazado 133321" d="M-14466.091-9348h-20.542v367.716h20.542" transform="translate(6.661 1.832)" fill="none" stroke="#707070" stroke-width="3"/>
    <path id="Trazado_133322" data-name="Trazado 133322" d="M-14499.333-9178h18.362" transform="translate(1.776 2.396)" fill="none" stroke="#707070" stroke-width="3"/>
    <path id="Trazado_133323" data-name="Trazado 133323" d="M-14481.031-9226.5h19.679" transform="translate(1.837 2.235)" fill="none" stroke="#707070" stroke-width="3"/>
    <path id="Trazado_133324" data-name="Trazado 133324" d="M-14481.031-9103.5h19.9" transform="translate(1.837 2.643)" fill="none" stroke="#707070" stroke-width="3"/>
    <path id="Trazado_133325" data-name="Trazado 133325" d="M-14188.333-9104h84.788" transform="translate(2.808 2.641)" fill="none" stroke="#707070" stroke-width="3"/>
    <path id="Trazado_133326" data-name="Trazado 133326" d="M-14188.333-8981.5h86.753" transform="translate(2.808 3.047)" fill="none" stroke="#707070" stroke-width="3"/>
  </g>
</svg>
