<svg xmlns="http://www.w3.org/2000/svg" width="273.84" height="332.338" viewBox="0 0 273.84 332.338">
  <g id="Grupo_157452" data-name="Grupo 157452" transform="translate(9651.843 12734)">
    <g id="Grupo_131777" data-name="Grupo 131777" transform="translate(-9650.843 -12706.475)">
      <path id="Trazado_121924" data-name="Trazado 121924" d="M-616.365,86.167h-79.482A8.148,8.148,0,0,0-704,94.315V116.2a8.149,8.149,0,0,0,8.149,8.149h55.933l14.507,15.182V124.345h9.042a8.149,8.149,0,0,0,8.149-8.149V94.315a8.148,8.148,0,0,0-8.149-8.148" transform="translate(704.442 -85.72)" fill="#fff" stroke="#3a3a3a" stroke-miterlimit="10" stroke-width="2"/>
      <path id="Trazado_121925" data-name="Trazado 121925" d="M-625.049,140.552-640.193,124.7h-55.742a8.605,8.605,0,0,1-8.6-8.6V94.226a8.605,8.605,0,0,1,8.6-8.6h79.482a8.605,8.605,0,0,1,8.6,8.6v21.88a8.605,8.605,0,0,1-8.6,8.6h-8.6Zm-70.887-54.028a7.712,7.712,0,0,0-7.7,7.7v21.88a7.711,7.711,0,0,0,7.7,7.7h56.124l13.869,14.515V123.809h9.489a7.711,7.711,0,0,0,7.7-7.7V94.226a7.711,7.711,0,0,0-7.7-7.7Z" transform="translate(704.531 -85.631)" fill="#fff" stroke="#3a3a3a" stroke-miterlimit="10" stroke-width="2"/>
      <path id="Trazado_121926" data-name="Trazado 121926" d="M-680.379,101.97a5.142,5.142,0,0,0-5.134,5.135,5.142,5.142,0,0,0,5.134,5.135,5.142,5.142,0,0,0,5.135-5.135,5.142,5.142,0,0,0-5.135-5.135" transform="translate(701.365 -88.351)" fill="#fef536" stroke="#3a3a3a" stroke-miterlimit="10" stroke-width="2"/>
      <path id="Trazado_121927" data-name="Trazado 121927" d="M-680.557,100.9a6.035,6.035,0,0,0-6.028,6.028,6.035,6.035,0,0,0,6.028,6.028,6.035,6.035,0,0,0,6.028-6.028,6.035,6.035,0,0,0-6.028-6.028m0,11.163a5.142,5.142,0,0,1-5.134-5.135,5.142,5.142,0,0,1,5.134-5.135,5.142,5.142,0,0,1,5.135,5.135,5.142,5.142,0,0,1-5.135,5.135" transform="translate(701.543 -88.173)" fill="#fff" stroke="#3a3a3a" stroke-miterlimit="10" stroke-width="2"/>
      <path id="Trazado_121928" data-name="Trazado 121928" d="M-649.039,101.97a5.141,5.141,0,0,0-5.135,5.135,5.141,5.141,0,0,0,5.135,5.135,5.141,5.141,0,0,0,5.134-5.135,5.141,5.141,0,0,0-5.134-5.135" transform="translate(696.148 -88.351)" fill="#fef536" stroke="#3a3a3a" stroke-miterlimit="10" stroke-width="2"/>
      <path id="Trazado_121929" data-name="Trazado 121929" d="M-649.217,100.9a6.035,6.035,0,0,0-6.029,6.028,6.035,6.035,0,0,0,6.029,6.028,6.035,6.035,0,0,0,6.028-6.028,6.035,6.035,0,0,0-6.028-6.028m0,11.163a5.141,5.141,0,0,1-5.135-5.135,5.141,5.141,0,0,1,5.135-5.135,5.141,5.141,0,0,1,5.134,5.135,5.141,5.141,0,0,1-5.134,5.135" transform="translate(696.326 -88.173)" fill="#fff" stroke="#3a3a3a" stroke-miterlimit="10" stroke-width="2"/>
      <path id="Trazado_121930" data-name="Trazado 121930" d="M-617.7,101.97a5.142,5.142,0,0,0-5.135,5.135,5.142,5.142,0,0,0,5.135,5.135,5.142,5.142,0,0,0,5.135-5.135,5.142,5.142,0,0,0-5.135-5.135" transform="translate(690.93 -88.351)" fill="#fef536" stroke="#3a3a3a" stroke-miterlimit="10" stroke-width="2"/>
      <path id="Trazado_121931" data-name="Trazado 121931" d="M-617.878,100.9a6.035,6.035,0,0,0-6.028,6.028,6.035,6.035,0,0,0,6.028,6.028,6.035,6.035,0,0,0,6.028-6.028,6.035,6.035,0,0,0-6.028-6.028m0,11.163a5.142,5.142,0,0,1-5.135-5.135,5.142,5.142,0,0,1,5.135-5.135,5.142,5.142,0,0,1,5.135,5.135,5.142,5.142,0,0,1-5.135,5.135" transform="translate(691.108 -88.173)" fill="#fff" stroke="#3a3a3a" stroke-miterlimit="10" stroke-width="2"/>
    </g>
    <g id="Grupo_131783" data-name="Grupo 131783" transform="translate(-9645.089 -12734)">
      <g id="Grupo_131780" data-name="Grupo 131780" transform="translate(24.163)">
        <g id="Grupo_131778" data-name="Grupo 131778" transform="translate(0 163.468)">
          <path id="Trazado_121932" data-name="Trazado 121932" d="M-435.747,342.977c-.754-2.08-1.513-4.174-2.252-6.275l-.418-1.189c-6.93-19.714-19.829-56.412-30-63.337-10.457-7.12-34.825-8.184-48.42-8.184l-2.195,0c-14.407-.037-44.389-.1-51.688,10.747-8.964,13.319-43.607,80.765-43.956,81.446a.45.45,0,0,1-.333.238.454.454,0,0,1-.388-.133l-30.922-32.248L-667.4,347.731c3.318,4.1,40.371,49.327,58.8,49.327,16.93,0,28.318-25.957,30.778-32.108q.686-11.921,1.514-23.834c.753-10.892,1.552-20.746,2.193-27.873.319-3.563.6-6.446.816-8.436.117-.994.208-1.765.27-2.289a2.98,2.98,0,0,1,.152-.794,2.939,2.939,0,0,1,.016.808c-.025.527-.064,1.3-.113,2.3-.13,2-.318,4.886-.55,8.455-.5,7.137-1.187,17-1.948,27.885-1.073,15.734-2.044,31.477-2.663,47.232-.283,7.878-.51,15.758-.454,23.634l.156,5.9.011.358h110.8l-1.384-79.118c-.191-10.916-.317-20.8-.367-27.954-.024-3.577-.03-6.473-.015-8.474.017-1,.029-1.778.038-2.306a2.955,2.955,0,0,1,.071-.8,2.937,2.937,0,0,1,.1.8c.028.526.068,1.3.119,2.3.085,2,.18,4.894.282,8.469.2,7.152.419,17.035.611,27.95l.789,45.031c2.295,4.272,11.165,11.084,19.989,12.071a15.01,15.01,0,0,0,14.229-5.81c10.053-12.615,3.915-29.549-2.583-47.477" transform="translate(668.432 -251.266)" fill="#fef536" stroke="#3a3a3a" stroke-miterlimit="10" stroke-width="2"/>
          <path id="Trazado_121933" data-name="Trazado 121933" d="M-435.113,342.494c-.754-2.077-1.513-4.168-2.25-6.266l-.418-1.189c-7.453-21.2-19.926-56.689-30.339-63.778-10.656-7.256-35.225-8.338-48.923-8.338l-2.193,0c-15.692-.031-44.867-.1-52.431,11.14-8.558,12.716-40.357,74.434-43.723,80.98l-30.823-32.145a.367.367,0,0,0-.332-.137.439.439,0,0,0-.324.149l-21.657,24.335a.445.445,0,0,0-.015.575c1.628,2.04,40.1,49.957,59.737,49.957,15.988,0,26.827-21.407,30.631-30.274-.385,6.9-.733,13.793-1,20.7-.283,7.886-.511,15.776-.455,23.675l.157,5.927.033,1.121a2.786,2.786,0,0,0,.7.037h111.761l-.581-33.252c3.253,4.414,11.586,10.344,19.859,11.27a16.061,16.061,0,0,0,15.027-6.141c10.366-13.008,4.145-30.168-2.441-48.338m1.743,47.781a15.01,15.01,0,0,1-14.229,5.81c-8.824-.988-17.695-7.8-19.989-12.071l-.788-45.031c-.191-10.915-.411-20.8-.611-27.949-.1-3.577-.2-6.47-.282-8.47-.052-1-.092-1.775-.119-2.3a2.916,2.916,0,0,0-.1-.8,2.947,2.947,0,0,0-.071.8c-.008.528-.021,1.3-.038,2.306-.015,2-.009,4.9.015,8.474.05,7.155.176,17.038.367,27.954l1.384,79.118h-110.8l-.011-.358-.156-5.9c-.056-7.876.172-15.757.454-23.634.619-15.755,1.59-31.5,2.663-47.232.761-10.89,1.45-20.749,1.948-27.885.233-3.569.42-6.458.55-8.455.05-1,.088-1.775.113-2.3a2.925,2.925,0,0,0-.016-.807,2.954,2.954,0,0,0-.152.793c-.062.523-.153,1.3-.27,2.289-.214,1.99-.5,4.873-.816,8.436-.641,7.127-1.44,16.98-2.193,27.873q-.811,11.914-1.514,23.834c-2.46,6.151-13.847,32.109-30.778,32.109-18.432,0-55.484-45.229-58.8-49.328l21.084-23.693,30.922,32.248a.454.454,0,0,0,.388.133.45.45,0,0,0,.333-.238c.348-.68,34.991-68.127,43.956-81.446,7.3-10.844,37.281-10.783,51.688-10.747l2.195,0c13.595,0,37.963,1.063,48.42,8.183,10.171,6.926,23.069,43.622,30,63.337l.418,1.189c.739,2.1,1.5,4.2,2.252,6.275,6.5,17.928,12.636,34.862,2.583,47.477" transform="translate(668.639 -251.088)" fill="#38130d" stroke="#3a3a3a" stroke-miterlimit="10" stroke-width="2"/>
          <path id="Trazado_121934" data-name="Trazado 121934" d="M-507.254,269.333c0,7.768,2.482,11.387,7.814,11.387h1.451c6.593,0,14.958-5.361,14.958-11.387V249.8h-24.224Z" transform="translate(641.771 -248.904)" fill="#fff" stroke="#3a3a3a" stroke-miterlimit="10" stroke-width="2"/>
          <path id="Trazado_121935" data-name="Trazado 121935" d="M-482.762,248.726h-25.117a.447.447,0,0,0-.447.447v19.982c0,8.263,2.848,12.28,8.708,12.28h1.451c6.382,0,15.851-5.156,15.851-12.28V249.173a.446.446,0,0,0-.446-.447m-.447,20.429c0,6.026-8.365,11.387-14.958,11.387h-1.451c-5.332,0-7.814-3.618-7.814-11.387V249.62h24.224Z" transform="translate(641.949 -248.726)" fill="#38130d" stroke="#3a3a3a" stroke-miterlimit="10" stroke-width="2"/>
          <path id="Trazado_121936" data-name="Trazado 121936" d="M-502.027,285.225v-6.546l-6.011,4.175a18.3,18.3,0,0,0,6.011,2.371" transform="translate(641.902 -253.713)" fill="#64b5f6" stroke="#3a3a3a" stroke-miterlimit="10" stroke-width="2"/>
          <path id="Trazado_121937" data-name="Trazado 121937" d="M-506.161,273.4l-.031-.021a15.07,15.07,0,0,1-3.322-2.885,24.364,24.364,0,0,1-1.779-2.1,9.32,9.32,0,0,1-1.676-2.791,16.634,16.634,0,0,1,2.21,2.346c.111.123.239.252.356.376l-.024-10.751a12.411,12.411,0,0,0-7.851,5.774c-4.317,7.278-1.9,18.649-1.229,21.393l14.946-10.38c-.306-.168-.593-.335-.869-.5q-.289-.168-.64-.4l-.091-.06" transform="translate(644.024 -250.2)" fill="#64b5f6" stroke="#3a3a3a" stroke-miterlimit="10" stroke-width="2"/>
          <path id="Trazado_121938" data-name="Trazado 121938" d="M-488.477,283.278l-3.945-5.67-1.271,7.509a25.405,25.405,0,0,0,5.216-1.84" transform="translate(639.513 -253.534)" fill="#64b5f6" stroke="#3a3a3a" stroke-miterlimit="10" stroke-width="2"/>
          <path id="Trazado_121939" data-name="Trazado 121939" d="M-476.719,260.571a4.392,4.392,0,0,1-.808,1.749,14.813,14.813,0,0,1-2.3,2.737c-1.553,1.9-9.359,6.27-11.874,7.65l8.339,11.982c7.288-4.248,13.14-12.856,13.412-16.485A25.275,25.275,0,0,0-473,255.9c-1.124-1.738-4.794-1.83-6.546-1.7v9.679a22.19,22.19,0,0,0,1.6-1.831c.682-.884,1.088-1.531,1.224-1.481" transform="translate(639.181 -249.631)" fill="#64b5f6" stroke="#3a3a3a" stroke-miterlimit="10" stroke-width="2"/>
          <path id="Trazado_121940" data-name="Trazado 121940" d="M-503.441,274.08a.443.443,0,0,0-.073-.218.054.054,0,0,1-.013-.011.453.453,0,0,0-.155-.139c-.472-.241-.9-.483-1.309-.724-.423-.3-.987-.7-1.73-1.284a30.036,30.036,0,0,1-2.286-1.986,6.632,6.632,0,0,1-.684-.964l-.028-11.948a.442.442,0,0,0-.168-.348.436.436,0,0,0-.376-.087c-.028.006-.054.016-.083.023a.436.436,0,0,0-.353.028c-.008,0-.078.047-.188.119a13.257,13.257,0,0,0-8.342,6.151c-5.107,8.611-1.324,22.132-1.161,22.7a.44.44,0,0,0,.279.3.445.445,0,0,0,.15.027.449.449,0,0,0,.255-.08l8.569-5.951a18.823,18.823,0,0,0,7.2,2.791l.051,0a.449.449,0,0,0,.3-.113.447.447,0,0,0,.149-.333V274.11c0-.005,0-.008-.005-.013s0-.011,0-.017m-16.249,10.462c-.675-2.744-3.088-14.115,1.229-21.393a12.412,12.412,0,0,1,7.851-5.774l.024,10.751c-.117-.124-.245-.253-.356-.376a16.669,16.669,0,0,0-2.21-2.346,9.31,9.31,0,0,0,1.676,2.791,24.359,24.359,0,0,0,1.779,2.1,15.069,15.069,0,0,0,3.322,2.885l.031.021.091.06q.351.233.64.4c.276.166.563.334.869.5Zm15.357-3.032a18.3,18.3,0,0,1-6.011-2.371l6.011-4.175Z" transform="translate(644.208 -249.997)" fill="#38130d" stroke="#3a3a3a" stroke-miterlimit="10" stroke-width="2"/>
          <path id="Trazado_121941" data-name="Trazado 121941" d="M-472.782,255.239c-1.769-2.733-7.551-2.089-7.794-2.062a.448.448,0,0,0-.4.444v10.622c-.553,1.016-6.527,4.694-12.121,7.739l0,0h0c-.016.011-.026.027-.04.038a.442.442,0,0,0-.1.088.346.346,0,0,0-.032.069.4.4,0,0,0-.043.089c0,.006,0,.01,0,.015a.053.053,0,0,0-.007.014l-1.563,9.228a.448.448,0,0,0,.123.389.451.451,0,0,0,.318.132.329.329,0,0,0,.07-.007,24.307,24.307,0,0,0,6.217-2.1l3.765,5.41a.442.442,0,0,0,.366.192.444.444,0,0,0,.218-.057c7.818-4.378,13.921-13.431,14.22-17.4a25.95,25.95,0,0,0-3.2-12.852m-21.11,25.8,1.271-7.509,3.945,5.67a25.407,25.407,0,0,1-5.216,1.84m23.414-13.01c-.273,3.629-6.124,12.238-13.412,16.485l-8.339-11.982c2.516-1.38,10.321-5.751,11.874-7.65a14.814,14.814,0,0,0,2.3-2.737,4.392,4.392,0,0,0,.808-1.749c-.137-.05-.543.6-1.224,1.481a22.18,22.18,0,0,1-1.6,1.831v-9.679c1.752-.133,5.422-.041,6.546,1.7a25.275,25.275,0,0,1,3.055,12.3" transform="translate(639.712 -249.453)" fill="#38130d" stroke="#3a3a3a" stroke-miterlimit="10" stroke-width="2"/>
          <path id="Trazado_121942" data-name="Trazado 121942" d="M-410.752,376.509a.122.122,0,0,1-.163-.018c-3.723-4.378-7.306-8.865-10.865-13.371L-432.451,349.6l-10.671-13.521L-453.5,322.821l-23.677,14.149q10.372,16.5,21.742,32.356,5.735,8.019,11.852,15.752l3.083,3.843,3.156,3.782c2.161,2.464,4.272,5,6.6,7.267a30.43,30.43,0,0,0,7.881,5.626l1.1.51c.374.148.757.274,1.134.413a19.739,19.739,0,0,0,2.315.661,16.873,16.873,0,0,0,4.776.3,15.765,15.765,0,0,0,4.639-1.136,18.389,18.389,0,0,0,4.131-2.436,22.191,22.191,0,0,0,3.407-3.411,25.138,25.138,0,0,0,2.617-4.068,26.345,26.345,0,0,0,1.818-4.491c.265-.767.415-1.565.618-2.348.129-.8.319-1.588.384-2.4a26.406,26.406,0,0,0,.148-4.842,43.557,43.557,0,0,0-.658-4.833,132.488,132.488,0,0,0-5.407-18.45l-8.919,17.23c.011.015.022.03.032.047a.12.12,0,0,1-.026.167" transform="translate(636.764 -261.061)" fill="#fef536" stroke="#3a3a3a" stroke-miterlimit="10" stroke-width="2"/>
          <path id="Trazado_121943" data-name="Trazado 121943" d="M-395.1,382.085a44.354,44.354,0,0,0-.672-4.94c-1.224-6.521-3.447-12.767-5.577-18.978v0a.446.446,0,0,0-.568-.277.445.445,0,0,0-.278.567c.046.135.093.269.139.4a132.6,132.6,0,0,1,5.406,18.45,43.763,43.763,0,0,1,.658,4.833,26.482,26.482,0,0,1-.149,4.842c-.065.808-.255,1.6-.384,2.4-.2.783-.353,1.581-.618,2.347a26.259,26.259,0,0,1-1.818,4.492,25.14,25.14,0,0,1-2.617,4.068,22.266,22.266,0,0,1-3.407,3.411,18.387,18.387,0,0,1-4.131,2.436,15.765,15.765,0,0,1-4.639,1.136,16.873,16.873,0,0,1-4.776-.3,19.586,19.586,0,0,1-2.315-.662c-.378-.138-.76-.264-1.134-.413l-1.1-.51a30.43,30.43,0,0,1-7.881-5.626c-2.33-2.263-4.44-4.8-6.6-7.267l-3.157-3.782-3.083-3.843q-6.1-7.737-11.852-15.752-11.357-15.84-21.742-32.356l23.677-14.149,10.377,13.255,10.671,13.521,10.672,13.522c3.559,4.506,7.142,8.993,10.865,13.37a.12.12,0,0,0,.162.019.12.12,0,0,0,.027-.168c-.01-.016-.022-.031-.033-.046-3.362-4.637-6.862-9.165-10.387-13.674l-10.612-13.567-10.613-13.569-10.667-13.525a.447.447,0,0,0-.581-.108h0l-24.408,14.587-.012.006a.443.443,0,0,0-.139.612q10.506,16.736,22.019,32.789,5.746,8.034,11.878,15.785l3.091,3.854,3.167,3.794c1.061,1.26,2.172,2.481,3.255,3.723s2.225,2.449,3.41,3.612a31.305,31.305,0,0,0,8.113,5.787l1.141.528c.388.156.789.288,1.183.432a20.321,20.321,0,0,0,2.424.692,17.7,17.7,0,0,0,5.037.311,16.693,16.693,0,0,0,4.9-1.2,19.235,19.235,0,0,0,4.342-2.56,23.264,23.264,0,0,0,3.553-3.555,26.207,26.207,0,0,0,2.713-4.216,27.352,27.352,0,0,0,1.877-4.64c.273-.791.429-1.615.638-2.423.134-.824.329-1.64.4-2.473a27.445,27.445,0,0,0,.154-5.006" transform="translate(636.978 -260.855)" fill="#38130d" stroke="#3a3a3a" stroke-miterlimit="10" stroke-width="2"/>
          <path id="Trazado_121944" data-name="Trazado 121944" d="M-462.846,290.368c-8.506-14.019-21.214-31.708-24.28-33.8a3.07,3.07,0,0,0-1.742-.5,4.788,4.788,0,0,0-3.224,1.37c-1.793,1.711-1.983,4.166-.505,6.568,2.84,4.614,10.293,15.483,13.143,19.622,1.334.441,2.651.931,3.953,1.449,2.569,1.021,4.507,2.172,4.4,2.381s-2.175-.594-4.715-1.6a56.805,56.805,0,0,0-7.977-2.594,25.9,25.9,0,0,0-4.1-.653,9.192,9.192,0,0,0-3.975.473,3.678,3.678,0,0,0-1.547,1.124,8.334,8.334,0,0,0-1.213,1.608,4.416,4.416,0,0,0-.491,3.715,5.371,5.371,0,0,0,.885,1.546,20.434,20.434,0,0,1,2.949.128,42.561,42.561,0,0,1,8.059,1.9c.911.3,1.737.626,2.426.931,1.241.547,2.025,1.024,1.962,1.164-.093.207-2.137-.469-4.65-1.3a41.862,41.862,0,0,0-7.893-1.867,17.19,17.19,0,0,0-3.99-.038,6.406,6.406,0,0,0-3.471,1.492,5.364,5.364,0,0,0-1.592,3.377,10.716,10.716,0,0,0,.369,3.9c.041.149.092.3.138.443a13.212,13.212,0,0,1,4.749-.257,29.005,29.005,0,0,1,4.683.928,24.176,24.176,0,0,1,3.647,1.328c.954.446,1.512.814,1.461.921-.094.21-2.416-.632-5.332-1.442a28.075,28.075,0,0,0-4.545-.9,12.326,12.326,0,0,0-4.518.246,4.917,4.917,0,0,0-3.3,2.621,11.1,11.1,0,0,0-.889,4.4,12.111,12.111,0,0,0,3.452,8.18,7.126,7.126,0,0,0,3.708,2.28,7.192,7.192,0,0,0,2.2.03,1.473,1.473,0,0,0,1.276-1.205,7.131,7.131,0,0,0,.045-2.011c-.047-.667-.062-1.271-.048-1.78a5.148,5.148,0,0,1,.175-1.366c-2.331-.54-4.418-1.039-4.4-1.269a20.3,20.3,0,0,1,4.837.7l.008-.008v.01c.268.057.537.117.805.18,2.742.645,2.771.848,2.721,1.013-.053.183-.141.268-2.87-.373l-.63-.146a23.494,23.494,0,0,0,4.527,13.05c3.88,5.141,12.423,12.525,26.052,4.2,11.912-7.271,8.209-25.414-.743-40.17" transform="translate(641.224 -249.948)" fill="#fff" stroke="#3a3a3a" stroke-miterlimit="10" stroke-width="2"/>
          <path id="Trazado_121945" data-name="Trazado 121945" d="M-462.249,289.723c-7.836-12.914-21.144-31.757-24.541-34.073-1.717-1.171-4.275-.767-6.085.959-1.636,1.562-2.668,4.4-.648,7.68,2.656,4.316,9.321,14.068,12.526,18.728-.915-.276-1.835-.536-2.767-.756a26.922,26.922,0,0,0-4.242-.673,9.955,9.955,0,0,0-4.348.537,5.394,5.394,0,0,0-1.014.547,5.647,5.647,0,0,0-.829.78,9.308,9.308,0,0,0-1.324,1.763,5.26,5.26,0,0,0-.556,4.4,6.085,6.085,0,0,0,.685,1.348c-.085.008-.171.011-.257.021a7.236,7.236,0,0,0-3.932,1.712,6.2,6.2,0,0,0-1.85,3.888,11.5,11.5,0,0,0,.393,4.219c.043.163.1.322.148.482a5.8,5.8,0,0,0-1.532.854A5.6,5.6,0,0,0-504,304.106a11.857,11.857,0,0,0-.97,4.765,12.932,12.932,0,0,0,3.687,8.758,7.869,7.869,0,0,0,4.2,2.527,7.931,7.931,0,0,0,2.483.022,2.494,2.494,0,0,0,1.249-.606,2.162,2.162,0,0,0,.483-.694,23.085,23.085,0,0,0,3.832,7.813c4.128,5.47,9.33,8.249,15.066,8.249a23.484,23.484,0,0,0,12.166-3.82c13.289-8.112,8.064-27.369-.446-41.4m-.02,40.634c-13.63,8.321-22.172.937-26.052-4.2a23.494,23.494,0,0,1-4.527-13.05l.63.146c2.729.642,2.816.556,2.87.373.049-.165.021-.368-2.721-1.013-.268-.063-.538-.123-.805-.18v-.01l-.008.008a20.3,20.3,0,0,0-4.837-.7c-.018.231,2.07.729,4.4,1.269a5.148,5.148,0,0,0-.175,1.366c-.014.509,0,1.114.048,1.78a7.125,7.125,0,0,1-.045,2.01,1.474,1.474,0,0,1-1.276,1.206,7.167,7.167,0,0,1-2.2-.031,7.119,7.119,0,0,1-3.708-2.279,12.111,12.111,0,0,1-3.452-8.18,11.1,11.1,0,0,1,.889-4.4,4.917,4.917,0,0,1,3.3-2.621,12.32,12.32,0,0,1,4.517-.246,28.075,28.075,0,0,1,4.545.9c2.917.81,5.238,1.652,5.332,1.442.051-.108-.507-.475-1.461-.921a24.176,24.176,0,0,0-3.647-1.328,29.005,29.005,0,0,0-4.683-.928,13.212,13.212,0,0,0-4.749.257c-.046-.148-.1-.294-.138-.443a10.719,10.719,0,0,1-.369-3.9,5.364,5.364,0,0,1,1.592-3.376,6.4,6.4,0,0,1,3.471-1.492,17.19,17.19,0,0,1,3.99.038,41.8,41.8,0,0,1,7.893,1.867c2.513.83,4.558,1.506,4.65,1.3.063-.14-.721-.617-1.962-1.164-.689-.3-1.515-.63-2.426-.931a42.623,42.623,0,0,0-8.059-1.9,20.434,20.434,0,0,0-2.949-.128,5.371,5.371,0,0,1-.885-1.546,4.418,4.418,0,0,1,.491-3.716,8.354,8.354,0,0,1,1.213-1.607,3.678,3.678,0,0,1,1.547-1.124,9.179,9.179,0,0,1,3.975-.473,25.9,25.9,0,0,1,4.1.653,56.805,56.805,0,0,1,7.977,2.594c2.541,1.009,4.613,1.81,4.715,1.6s-1.835-1.359-4.4-2.381c-1.3-.518-2.619-1.009-3.953-1.449-2.85-4.139-10.3-15.009-13.143-19.623-1.478-2.4-1.288-4.856.505-6.567a4.788,4.788,0,0,1,3.224-1.37,3.061,3.061,0,0,1,1.74.5c3.067,2.091,15.775,19.78,24.281,33.8,8.953,14.756,12.655,32.9.743,40.17" transform="translate(641.391 -249.768)" fill="#38130d" stroke="#3a3a3a" stroke-miterlimit="10" stroke-width="2"/>
          <path id="Trazado_121946" data-name="Trazado 121946" d="M-442.986,349.33a28.971,28.971,0,0,1-7.38,5.855c-2.486,1.407-3.905,1.94-4.609,2.311-.717.351-.757.475-.718.609s.156.235.954.044a19.944,19.944,0,0,0,4.86-2.111,25.64,25.64,0,0,0,7.426-6.262,16.06,16.06,0,0,0,1.22-1.728,12.377,12.377,0,0,0,.834-1.469,4.774,4.774,0,0,0,.557-1.423c-.154-.079-1.17,1.969-3.144,4.175" transform="translate(633.189 -264.779)" fill="#38130d" stroke="#3a3a3a" stroke-miterlimit="10" stroke-width="2"/>
        </g>
        <g id="Grupo_131779" data-name="Grupo 131779" transform="translate(83.053)">
          <path id="Trazado_116905" data-name="Trazado 116905" d="M-557.011,101.529c-5.61,1.333-11.2-4.338-11.311-10.331s4.093-11.434,9.273-14.07,11.142-2.943,16.935-3.77c-2.19-5.826.583-12.827,5.41-16.552a23.316,23.316,0,0,1,17.165-3.884,20.923,20.923,0,0,1,10.927,4.2A13.83,13.83,0,0,1-503.6,68.14c5.2-6.559,13.595-10.957,21.5-9.058s13.884,11.572,14.477,18.223c3.848-4.721,8.889-8.613,14.821-8.3,11.771.628,14.421,10.636,9.135,23.51a13.576,13.576,0,0,1,17.917,6.9,13.364,13.364,0,0,1,.658,1.823c2.223,6.775-.275,17.565-4.98,22.867a13.213,13.213,0,0,1-3.464,2.62c-1.84,10.064-4.123,20.614-7.592,33.885a120.808,120.808,0,0,1-11.939,28.982,17.387,17.387,0,0,1-9.074,8.368c-.261-4.168-4.614-6.238-5.288-10.376-.828-5.1,2.452-9.579-.628-14.1a74.549,74.549,0,0,1-11.709-27.709c-1.533-7.954-1.59-16.307,2.161-23.649a25.449,25.449,0,0,1,5.563-7.172,44.086,44.086,0,0,1-2.5-6.238c-3.448,5.916-5.976,9.993-14.6,12.827-6.3,2.07-13.793-.445-15.909-6.451-1.349,6.069-10.77,14.621-16.69,15.219s-8.154-2.13-10.528-7.816c-5.256,4.659-9.2,9.41-14.575,11.448-8.2,3.111-18.345-2.024-21.059-10.668s2.515-19.127,10.866-21.762Z" transform="translate(568.935 -52.608)" fill="#3a3a3a"/>
          <path id="Trazado_121947" data-name="Trazado 121947" d="M-480.638,118.726h-52.1a20.157,20.157,0,0,0-20.1,19.94l-.4,57.2c-.074,9.412,2.913,17.235,8.879,23.248,7.387,7.446,19.009,11.547,32.729,11.547,26.422,0,54.655-11.777,54.655-44.832V142.392a23.693,23.693,0,0,0-23.665-23.666" transform="translate(566.373 -63.615)" fill="#fff" stroke="#3a3a3a" stroke-miterlimit="10" stroke-width="2"/>
          <path id="Trazado_121948" data-name="Trazado 121948" d="M-480.817,117.655h-52.1a21.052,21.052,0,0,0-20.992,20.826l-.4,57.2c-.077,9.659,3,17.695,9.138,23.883,7.556,7.617,19.405,11.812,33.363,11.812,15.842,0,29.409-3.913,39.23-11.317,10.675-8.046,16.318-19.944,16.318-34.408V142.215a24.587,24.587,0,0,0-24.559-24.56m23.665,67.991c0,33.055-28.233,44.832-54.655,44.832-13.72,0-25.342-4.1-32.729-11.546-5.966-6.014-8.954-13.836-8.879-23.248l.4-57.2a20.156,20.156,0,0,1,20.1-19.939h52.1a23.692,23.692,0,0,1,23.665,23.666Z" transform="translate(566.552 -63.437)" fill="#38130d" stroke="#3a3a3a" stroke-miterlimit="10" stroke-width="2"/>
          <path id="Trazado_121949" data-name="Trazado 121949" d="M-526.062,171.165c0-11.88-9.39-21.546-20.93-21.546s-20.931,9.665-20.931,21.546,9.39,21.545,20.931,21.545,20.93-9.665,20.93-21.545" transform="translate(568.818 -68.758)" fill="#fff" stroke="#3a3a3a" stroke-miterlimit="10" stroke-width="2"/>
          <path id="Trazado_121950" data-name="Trazado 121950" d="M-480.833,149.619c-11.542,0-20.93,9.665-20.93,21.546s9.389,21.545,20.93,21.545,20.931-9.665,20.931-21.545-9.389-21.546-20.931-21.546" transform="translate(557.804 -68.758)" fill="#fff" stroke="#3a3a3a" stroke-miterlimit="10" stroke-width="2"/>
          <path id="Trazado_121951" data-name="Trazado 121951" d="M-447,165.079c-8.06-1.68-18.968-.46-23.9.252a21.981,21.981,0,0,0-21.121-16.783c-12.033,0-21.824,10.066-21.824,22.438,0,.063,0,.126,0,.188a10.445,10.445,0,0,0-5.7-1.64,10.431,10.431,0,0,0-5.811,1.71c0-.087.005-.172.005-.258,0-12.373-9.789-22.438-21.822-22.438S-569,158.614-569,170.986s9.791,22.437,21.826,22.437c11.578,0,21.075-9.32,21.777-21.044a9.386,9.386,0,0,1,5.851-1.952,9.41,9.41,0,0,1,5.731,1.86c.659,11.768,10.178,21.136,21.786,21.136,12.034,0,21.823-10.066,21.823-22.437a22.988,22.988,0,0,0-.5-4.783c4.909-.705,15.627-1.894,23.522-.251a.446.446,0,0,0,.528-.346.446.446,0,0,0-.347-.528m-100.168,27.452c-11.542,0-20.932-9.665-20.932-21.545s9.39-21.546,20.932-21.546,20.93,9.665,20.93,21.546-9.389,21.545-20.93,21.545m55.146,0c-11.542,0-20.93-9.665-20.93-21.545s9.389-21.546,20.93-21.546,20.931,9.665,20.931,21.546-9.389,21.545-20.931,21.545" transform="translate(568.997 -68.58)" fill="#38130d" stroke="#3a3a3a" stroke-miterlimit="10" stroke-width="2"/>
          <path id="Trazado_121952" data-name="Trazado 121952" d="M-438.586,195.872c1.424,2.21,4.215,3.252,7.647,2.861a18.253,18.253,0,0,0,14.48-11.7c2.654-7.372,2.065-15.474-1.432-19.7a8.68,8.68,0,0,0-8.5-2.922c-10.859,1.715-12.855,15.553-12.875,15.693a.437.437,0,0,1-.422.378l.7,15.2a.442.442,0,0,1,.4.2" transform="translate(547.469 -71.195)" fill="#fff"/>
          <path id="Trazado_121953" data-name="Trazado 121953" d="M-417.3,166.58a9.526,9.526,0,0,0-9.325-3.237c-11.508,1.817-13.6,16.31-13.619,16.455a.446.446,0,0,0,.382.5.521.521,0,0,0,.081,0,.437.437,0,0,0,.422-.378c.019-.14,2.015-13.979,12.875-15.693a8.678,8.678,0,0,1,8.5,2.922c3.5,4.23,4.087,12.332,1.433,19.7a18.253,18.253,0,0,1-14.479,11.7c-3.432.391-6.223-.651-7.648-2.861a.44.44,0,0,0-.4-.2.427.427,0,0,0-.222.064.445.445,0,0,0-.133.617c1.4,2.169,3.9,3.352,7.007,3.352a13.334,13.334,0,0,0,1.492-.087,19.18,19.18,0,0,0,15.219-12.286c2.755-7.654,2.1-16.114-1.585-20.575" transform="translate(547.562 -71.016)" fill="#38130d" stroke="#3a3a3a" stroke-miterlimit="10" stroke-width="2"/>
          <path id="Trazado_121954" data-name="Trazado 121954" d="M-535.968,140.314a7.824,7.824,0,0,0-6.756.322,6.386,6.386,0,0,0-1.962,1.8c-.38.541-.535.9-.472.952.158.147,1.1-1.184,2.836-1.985a7.612,7.612,0,0,1,5.893.047,20.4,20.4,0,0,1,2.941,1.626c.459.267.592.206.721.089s.2-.272-.144-.738a7.437,7.437,0,0,0-3.057-2.116" transform="translate(565.031 -67.107)" fill="#38130d" stroke="#3a3a3a" stroke-miterlimit="10" stroke-width="2"/>
          <path id="Trazado_121955" data-name="Trazado 121955" d="M-471.437,138.817A6.989,6.989,0,0,0-474.9,137.7a7.56,7.56,0,0,0-3.547.7,8.1,8.1,0,0,0-2.135,1.407,5.408,5.408,0,0,0-.9,1.033c-.318.518-.218.674-.084.771s.28.144.723-.183a15.14,15.14,0,0,1,2.9-1.91,7.167,7.167,0,0,1,3.007-.681,6.653,6.653,0,0,1,3.062.739,22.528,22.528,0,0,1,2.919,2.147c.143-.063-.582-1.657-2.486-2.9" transform="translate(554.463 -66.772)" fill="#38130d" stroke="#3a3a3a" stroke-miterlimit="10" stroke-width="2"/>
          <path id="Trazado_121956" data-name="Trazado 121956" d="M-425.089,101.237a13.356,13.356,0,0,0-.658-1.823,13.576,13.576,0,0,0-17.917-6.9c5.286-12.875,2.636-22.882-9.135-23.51-5.931-.314-10.973,3.577-14.821,8.3-.593-6.651-6.57-16.323-14.477-18.223s-16.308,2.5-21.5,9.058a13.83,13.83,0,0,0-5.011-11.019,20.923,20.923,0,0,0-10.927-4.2A23.316,23.316,0,0,0-536.7,56.806c-4.828,3.725-7.6,10.726-5.41,16.552-5.793.827-11.755,1.134-16.935,3.77s-9.38,8.078-9.273,14.07c.108,5.949,5.62,11.573,11.188,10.351-8.293,2.688-13.47,13.115-10.767,21.725,2.714,8.644,12.859,13.779,21.059,10.668,5.38-2.038,9.319-6.789,14.575-11.448,2.375,5.685,4.608,8.414,10.528,7.816s15.341-9.15,16.69-15.219c2.115,6.006,9.609,8.521,15.909,6.451,8.629-2.834,11.157-6.911,14.6-12.827a44.246,44.246,0,0,0,1.965,5.1,61.565,61.565,0,0,1,3.807-9.413c2.1-4.112,7.3-1.559,7.767,2.1.068.533.113,1.066.17,1.6a4.077,4.077,0,0,1,2.291,2.514,39.88,39.88,0,0,0,4.753,9.345c6.847.558,14.25,4.724,20.815,5a4.1,4.1,0,0,1,1.549.368,13.353,13.353,0,0,0,1.35-1.228C-425.364,118.8-422.866,108.012-425.089,101.237Z" transform="translate(568.935 -52.608)" fill="#3a3a3a"/>
          <path id="Trazado_116910" data-name="Trazado 116910" d="M-510.712,207.315a11.96,11.96,0,0,1-4.031-.76,5.114,5.114,0,0,1-2.21-1.341,4.186,4.186,0,0,1-.76-3.658,11.826,11.826,0,0,1,1.082-2.781l.19-.4a34.557,34.557,0,0,0,3.477-15.232.659.659,0,0,1,.653-.662h0a.649.649,0,0,1,.652.646v.007a35.859,35.859,0,0,1-3.612,15.821l-.2.4a10.806,10.806,0,0,0-.988,2.463,2.95,2.95,0,0,0,.471,2.527,3.883,3.883,0,0,0,1.658.969,9.766,9.766,0,0,0,4.746.6,5.74,5.74,0,0,0,3.86-2.282.653.653,0,0,1,.9-.188.654.654,0,0,1,.188.9l-.006.008a6.9,6.9,0,0,1-4.746,2.844,9.247,9.247,0,0,1-1.349.1Z" transform="translate(560.482 -74.23)" fill="#3a3a3a"/>
        </g>
      </g>
      <g id="Grupo_131781" data-name="Grupo 131781" transform="translate(11.117 190.707)">
        <path id="Trazado_121957" data-name="Trazado 121957" d="M-562.5,370.452a8.226,8.226,0,0,0,2.186-6.294l-5.866-75.172a7.1,7.1,0,0,0-7.038-6.511H-673.846a9.274,9.274,0,0,0-6.88,3.008,9.274,9.274,0,0,0-2.465,7.094l5.469,70.062a11.42,11.42,0,0,0,11.331,10.481h97.782a8.227,8.227,0,0,0,6.1-2.669" transform="translate(684.112 -281.583)" fill="#95a5a6" stroke="#3a3a3a" stroke-miterlimit="10" stroke-width="2"/>
        <path id="Trazado_121958" data-name="Trazado 121958" d="M-559.607,363.911l-5.867-75.172A7.991,7.991,0,0,0-573.4,281.4H-674.025a10.294,10.294,0,0,0-7.535,3.295,10.294,10.294,0,0,0-2.7,7.77l5.468,70.062a12.319,12.319,0,0,0,12.222,11.3h97.782a9.235,9.235,0,0,0,6.762-2.956,9.237,9.237,0,0,0,2.42-6.969M-677.9,362.462l-5.469-70.062a9.274,9.274,0,0,1,2.465-7.094,9.272,9.272,0,0,1,6.879-3.008H-573.4a7.1,7.1,0,0,1,7.038,6.511l5.866,75.172a8.229,8.229,0,0,1-2.186,6.294,8.228,8.228,0,0,1-6.1,2.669h-97.782A11.42,11.42,0,0,1-677.9,362.462" transform="translate(684.29 -281.405)" fill="#38130d" stroke="#3a3a3a" stroke-miterlimit="10" stroke-width="2"/>
        <path id="Trazado_121959" data-name="Trazado 121959" d="M-566.45,363.485l-5.415-69.373a5.091,5.091,0,0,0-5.05-4.671h-96.419c-4.863,0-8.1,2.3-9.611,6.851l5.269,67.508a11.42,11.42,0,0,0,11.331,10.481h94.388c3.98-2.232,5.883-5.963,5.507-10.8" transform="translate(684.066 -282.743)" fill="#7f8c8d" stroke="#3a3a3a" stroke-miterlimit="10" stroke-width="2"/>
        <path id="Trazado_121960" data-name="Trazado 121960" d="M-672.656,296.4a2.683,2.683,0,0,0-2.679,2.679,2.683,2.683,0,0,0,2.679,2.68,2.683,2.683,0,0,0,2.68-2.68,2.683,2.683,0,0,0-2.68-2.679" transform="translate(682.799 -283.902)" fill="#fff" stroke="#3a3a3a" stroke-miterlimit="10" stroke-width="2"/>
        <path id="Trazado_121961" data-name="Trazado 121961" d="M-672.834,295.334a3.575,3.575,0,0,0-3.572,3.572,3.576,3.576,0,0,0,3.572,3.572,3.576,3.576,0,0,0,3.572-3.572,3.576,3.576,0,0,0-3.572-3.572m0,6.251a2.683,2.683,0,0,1-2.679-2.68,2.683,2.683,0,0,1,2.679-2.679,2.683,2.683,0,0,1,2.68,2.679,2.683,2.683,0,0,1-2.68,2.68" transform="translate(682.978 -283.724)" fill="#38130d" stroke="#3a3a3a" stroke-miterlimit="10" stroke-width="2"/>
        <path id="Trazado_121962" data-name="Trazado 121962" d="M-565.741,363.236l-5.414-69.373a5.987,5.987,0,0,0-5.94-5.495h-96.419c-5.249,0-8.875,2.611-10.488,7.55a.44.44,0,0,0-.021.174l5.275,67.6A12.319,12.319,0,0,0-666.525,375h94.5a.451.451,0,0,0,.215-.055c4.378-2.407,6.475-6.456,6.065-11.7m-112.115.385-5.269-67.508c1.514-4.546,4.748-6.851,9.612-6.851h96.419a5.091,5.091,0,0,1,5.05,4.671l5.414,69.373c.376,4.833-1.527,8.564-5.507,10.8h-94.388a11.42,11.42,0,0,1-11.331-10.481" transform="translate(684.246 -282.564)" fill="#38130d" stroke="#3a3a3a" stroke-miterlimit="10" stroke-width="2"/>
        <path id="Trazado_121963" data-name="Trazado 121963" d="M-616.895,326.941a10.506,10.506,0,0,0-10.493,10.493,10.506,10.506,0,0,0,10.493,10.493A10.506,10.506,0,0,0-606.4,337.434a10.506,10.506,0,0,0-10.493-10.493" transform="translate(674.817 -288.986)" fill="#3a3a3a"/>
        <path id="Trazado_121964" data-name="Trazado 121964" d="M-617.073,325.869a11.4,11.4,0,0,0-11.387,11.387,11.4,11.4,0,0,0,11.387,11.387,11.4,11.4,0,0,0,11.387-11.387,11.4,11.4,0,0,0-11.387-11.387m0,21.88a10.506,10.506,0,0,1-10.493-10.493,10.506,10.506,0,0,1,10.493-10.493,10.506,10.506,0,0,1,10.493,10.493,10.506,10.506,0,0,1-10.493,10.493" transform="translate(674.995 -288.807)" fill="#3a3a3a"/>
      </g>
      <g id="Grupo_131782" data-name="Grupo 131782" transform="translate(0 212.031)">
        <path id="Trazado_121965" data-name="Trazado 121965" d="M-694.343,318.591c3.13-2.085,8.028-2.43,10.617-2.606a24.192,24.192,0,0,1,6.78.213c1.89-1.363,2.665-2.895,2.3-4.586-.488-2.276-3.152-3.547-7.178-3.547a23.437,23.437,0,0,0-3.044.213c-5.036.665-8.427,2.01-9.807,3.889a3.546,3.546,0,0,0-.638,2.847,12.822,12.822,0,0,0,.968,3.577" transform="translate(697.253 -307.167)" fill="#fff" stroke="#3a3a3a" stroke-miterlimit="10" stroke-width="2"/>
        <path id="Trazado_121966" data-name="Trazado 121966" d="M-695.157,330.164c2.731-2.531,8.563-2.836,13.073-2.621a34.576,34.576,0,0,1,4.788.491c2.541-1.294,4.466-2.92,4.238-4.792-.479-3.913-3.65-4.763-7.619-4.763-1.019,0-2.09.056-3.182.13-5.68.388-12.252,1.465-12.647,6.4-.2,2.478.2,4.093,1.261,5.087.027.024.063.044.089.068" transform="translate(697.449 -308.901)" fill="#fff" stroke="#3a3a3a" stroke-miterlimit="10" stroke-width="2"/>
        <path id="Trazado_121967" data-name="Trazado 121967" d="M-681.971,330.411q-1.161-.054-2.238-.054c-5.181,0-8.854.938-10.456,2.7a3.725,3.725,0,0,0-.908,3.214,9.158,9.158,0,0,0,3.009,5.326,10.645,10.645,0,0,1,3.819-1.68,22.645,22.645,0,0,1,4.181-.567,40.085,40.085,0,0,1,4.187.033q1.043.061,2.081.163c.25.024.5.051.748.079,2.395-.7,4.4-1.8,4.529-4.1a4.075,4.075,0,0,0-.817-3.111c-1.084-1.2-3.442-1.78-8.135-2" transform="translate(697.294 -310.878)" fill="#fff" stroke="#3a3a3a" stroke-miterlimit="10" stroke-width="2"/>
        <path id="Trazado_121968" data-name="Trazado 121968" d="M-676.112,342.676a13.59,13.59,0,0,0-1.969-.28q-1.022-.1-2.047-.16a38.73,38.73,0,0,0-4.091-.032,21.7,21.7,0,0,0-4.013.543,9.652,9.652,0,0,0-3.588,1.588,4.966,4.966,0,0,0-1.91,3.184,10.422,10.422,0,0,0,.263,3.917,9.787,9.787,0,0,0,4.749,6.073,14.125,14.125,0,0,0,7.259,1.777l-.58-7.809c-2.176.068-4.352.1-6.528.064a.185.185,0,0,1-.182-.188.186.186,0,0,1,.177-.183c2.754-.138,5.509-.3,8.253-.521,1.371-.12,2.741-.231,4.1-.4a6.058,6.058,0,0,0,1.866-.422,2.435,2.435,0,0,0,1.242-1.2,4.163,4.163,0,0,0-.194-3.59,4.649,4.649,0,0,0-2.806-2.359" transform="translate(696.993 -312.844)" fill="#fff" stroke="#3a3a3a" stroke-miterlimit="10" stroke-width="2"/>
        <path id="Trazado_121969" data-name="Trazado 121969" d="M-672.461,331.681a4.893,4.893,0,0,0-1.046-3.759,5.694,5.694,0,0,0-2.667-1.489c2.342-1.357,4.083-3.092,3.823-5.212a5.542,5.542,0,0,0-3.878-4.889c1.8-1.481,2.5-3.17,2.086-5.085-.72-3.358-4.911-4.865-11.213-4.034-3.684.487-8.481,1.619-10.41,4.248a4.455,4.455,0,0,0-.8,3.528,12.728,12.728,0,0,0,1.139,3.961,5.757,5.757,0,0,0-2.149,4.076c-.222,2.771.268,4.617,1.54,5.81.029.026.063.048.091.074a4.669,4.669,0,0,0-.846,3.59,9.983,9.983,0,0,0,3.2,5.8,5.788,5.788,0,0,0-1.655,3.219,11.236,11.236,0,0,0,.28,4.289,10.679,10.679,0,0,0,5.166,6.62,15.164,15.164,0,0,0,8.208,1.891h.016a.44.44,0,0,0,.407-.472v-.006l-.612-8.243c.293-.011.585-.013.875-.024q2.078-.084,4.153-.306c.351-.049.682-.063,1.05-.142a4.11,4.11,0,0,0,1.1-.347,3.332,3.332,0,0,0,1.66-1.612,5.443,5.443,0,0,0-3.223-7.09c2.008-.82,3.585-2.1,3.709-4.394m-23.226-16.846a3.553,3.553,0,0,1,.64-2.847c1.38-1.88,4.771-3.224,9.807-3.889a23.437,23.437,0,0,1,3.044-.213c4.027,0,6.691,1.271,7.178,3.547.362,1.691-.413,3.223-2.3,4.586a24.192,24.192,0,0,0-6.78-.213c-2.59.177-7.487.522-10.617,2.606a12.876,12.876,0,0,1-.969-3.577m-1,8.262c.4-4.935,6.967-6.012,12.647-6.4,1.093-.075,2.163-.131,3.182-.131,3.969,0,7.14.85,7.619,4.763.228,1.872-1.7,3.5-4.238,4.792a34.576,34.576,0,0,0-4.788-.491c-4.51-.214-10.342.091-13.073,2.621-.028-.023-.062-.043-.089-.068-1.058-.994-1.459-2.609-1.261-5.087m22.745,16.082a4.163,4.163,0,0,1,.194,3.59,2.435,2.435,0,0,1-1.242,1.2,6.083,6.083,0,0,1-1.866.423c-1.358.169-2.728.28-4.1.4-2.744.223-5.5.383-8.253.521a.186.186,0,0,0-.177.183.185.185,0,0,0,.182.188c2.176.033,4.352,0,6.528-.063l.58,7.808a14.125,14.125,0,0,1-7.259-1.777,9.787,9.787,0,0,1-4.749-6.073,10.406,10.406,0,0,1-.263-3.917,4.966,4.966,0,0,1,1.91-3.184,9.647,9.647,0,0,1,3.588-1.588,21.7,21.7,0,0,1,4.013-.543,38.944,38.944,0,0,1,4.091.032q1.025.061,2.047.16a13.59,13.59,0,0,1,1.969.28,4.651,4.651,0,0,1,2.806,2.359m-3.94-3.448c-.249-.028-.5-.056-.748-.079q-1.038-.1-2.081-.163a40.3,40.3,0,0,0-4.187-.033,22.647,22.647,0,0,0-4.181.567A10.614,10.614,0,0,0-692.9,337.7a9.164,9.164,0,0,1-3.01-5.327,3.725,3.725,0,0,1,.907-3.214c1.6-1.758,5.276-2.7,10.458-2.7q1.075,0,2.237.053c4.693.222,7.051.8,8.135,2a4.068,4.068,0,0,1,.817,3.111c-.124,2.3-2.133,3.395-4.529,4.1" transform="translate(697.628 -306.988)" fill="#3a3a3a" stroke="#3a3a3a" stroke-miterlimit="10" stroke-width="2"/>
      </g>
    </g>
    <path id="Trazado_116909" data-name="Trazado 116909" d="M-502.772,227.6a14.973,14.973,0,0,1-3.927-.5,1.041,1.041,0,0,1-.739-1.275,1.042,1.042,0,0,1,1.275-.74A14.107,14.107,0,0,0-492.1,220.71a1.049,1.049,0,0,1,1.479-.116,1.049,1.049,0,0,1,.116,1.479h0a16.294,16.294,0,0,1-12.262,5.551Z" transform="translate(-8979.118 -12814.532)" fill="#3a3a3a"/>
    <g id="Grupo_131784" data-name="Grupo 131784" transform="translate(-9462.933 -12634.784)">
      <path id="Trazado_116942" data-name="Trazado 116942" d="M-472.9,188.108a5.751,5.751,0,0,0,4.579-1.181,7.052,7.052,0,0,0,2.609-4.522l.223-1.341a7.551,7.551,0,0,0-.932-5.2,5.578,5.578,0,0,0-3.938-2.7,5.756,5.756,0,0,0-4.534,1.391,7.35,7.35,0,0,0-2.546,4.5l-.212,1.289a7.371,7.371,0,0,0,.908,5.043,5.744,5.744,0,0,0,3.863,2.719Z" transform="translate(478.869 -171.885)" fill="#3a3a3a"/>
      <path id="Trazado_116945" data-name="Trazado 116945" d="M-463.576,179.512a4.081,4.081,0,0,0-.819-1.229,8.407,8.407,0,0,0-1.628-1.341,14.741,14.741,0,0,0-4.708-1.95,11.374,11.374,0,0,0-4.932-.162,4.282,4.282,0,0,0-1.665.745,2.406,2.406,0,0,0-.745.969,7.651,7.651,0,0,1-.3.733c-.088.143-.212.187-.323.1a1.168,1.168,0,0,1-.335-.645,2.79,2.79,0,0,1,.074-1.431,4.144,4.144,0,0,1,1.192-1.814,6.461,6.461,0,0,1,2.235-1.316,9.94,9.94,0,0,1,5.553-.249,11.357,11.357,0,0,1,4.919,2.521,7.493,7.493,0,0,1,2.461,3.8,2.777,2.777,0,0,1-.025,1.431.838.838,0,0,1-.4.547.254.254,0,0,1-.31-.1,3.006,3.006,0,0,1-.261-.621Z" transform="translate(479.089 -171.639)" fill="#3a3a3a"/>
    </g>
    <g id="Grupo_131785" data-name="Grupo 131785" transform="translate(-9515.395 -12634.784)">
      <path id="Trazado_116942-2" data-name="Trazado 116942" d="M-535.843,188.108a5.751,5.751,0,0,0,4.579-1.181,7.051,7.051,0,0,0,2.609-4.522l.223-1.341a7.55,7.55,0,0,0-.932-5.2,5.578,5.578,0,0,0-3.938-2.7,5.756,5.756,0,0,0-4.533,1.391,7.349,7.349,0,0,0-2.546,4.5l-.212,1.289a7.371,7.371,0,0,0,.908,5.043,5.744,5.744,0,0,0,3.863,2.719Z" transform="translate(541.809 -171.885)" fill="#3a3a3a"/>
      <path id="Trazado_116945-2" data-name="Trazado 116945" d="M-526.516,179.512a4.081,4.081,0,0,0-.819-1.229,8.41,8.41,0,0,0-1.628-1.341,14.74,14.74,0,0,0-4.708-1.95,11.374,11.374,0,0,0-4.932-.162,4.282,4.282,0,0,0-1.665.745,2.4,2.4,0,0,0-.745.969,7.667,7.667,0,0,1-.3.733c-.088.143-.212.187-.323.1a1.163,1.163,0,0,1-.335-.645,2.789,2.789,0,0,1,.074-1.431,4.144,4.144,0,0,1,1.192-1.814,6.461,6.461,0,0,1,2.236-1.316,9.94,9.94,0,0,1,5.553-.249A11.357,11.357,0,0,1-528,174.442a7.5,7.5,0,0,1,2.461,3.8,2.778,2.778,0,0,1-.025,1.431.839.839,0,0,1-.4.547.255.255,0,0,1-.311-.1,3.044,3.044,0,0,1-.26-.621Z" transform="translate(542.029 -171.639)" fill="#3a3a3a"/>
    </g>
  </g>
</svg>
