<svg xmlns="http://www.w3.org/2000/svg" xmlns:xlink="http://www.w3.org/1999/xlink" width="410.347" height="567.018" viewBox="0 0 410.347 567.018">
  <defs>
    <clipPath id="clip-path">
      <rect id="Rectángulo_42310" data-name="Rectángulo 42310" width="410.347" height="567.018" fill="none"/>
    </clipPath>
  </defs>
  <g id="Grupo_157458" data-name="Grupo 157458" transform="translate(-175.679 -1220)">
    <g id="Grupo_136472" data-name="Grupo 136472" transform="translate(-17.701 -541.238)">
      <g id="Grupo_136659" data-name="Grupo 136659" transform="translate(193.38 1761.238)" clip-path="url(#clip-path)">
        <g id="Grupo_136658" data-name="Grupo 136658" transform="translate(5.199 -3.725)">
          <g id="Grupo_136460" data-name="Grupo 136460" transform="translate(92.781 0)">
            <g id="Capa_2" data-name="Capa 2">
              <g id="Capa_8" data-name="Capa 8">
                <g id="Grupo_80321" data-name="Grupo 80321">
                  <g id="Trazado_115208" data-name="Trazado 115208" transform="translate(17.238 13.854)">
                    <path id="Trazado_128595" data-name="Trazado 128595" d="M658.6,2022.16a142.537,142.537,0,0,1-56.868,31.889c-52.412,14.872-101.428-5.277-122.9-46.2-40.01-14.783-65.792-53.305-62.2-100.773,4.85-64.261,61.672-120.587,126.905-125.811,11.728-.94,42.511-1.618,74.979,12.31a137.269,137.269,0,0,1,53.987,40.916c16.37,20.57,26.731,45.588,30.8,74.363,5.837,41.289-12.527,84.007-44.692,113.307Zm-135.565-7.983c.994-.052,1.973-.127,2.93-.2-.982.077-1.955.148-2.93.2Z" transform="translate(-416.294 -1780.834)" fill="#64b5f6"/>
                  </g>
                  <g id="Sparkles" transform="translate(33.21 129.923)">
                    <g id="Trazado_115414" data-name="Trazado 115414" transform="translate(27.438)">
                      <path id="Trazado_128596" data-name="Trazado 128596" d="M502.86,2010.343l.27,1.364a.283.283,0,0,0,.329.228h.011a.278.278,0,0,0,.22-.2l.394-1.329a1.5,1.5,0,0,1,1.144-1.042l1.364-.271a.285.285,0,0,0,.228-.331h0v-.009a.277.277,0,0,0-.2-.219l-1.33-.4a1.5,1.5,0,0,1-1.042-1.144l-.271-1.365a.284.284,0,0,0-.332-.228h-.008a.279.279,0,0,0-.219.2l-.395,1.329a1.5,1.5,0,0,1-1.144,1.042l-1.365.269a.284.284,0,0,0-.227.332h0v.008a.276.276,0,0,0,.2.22l1.33.4A1.5,1.5,0,0,1,502.86,2010.343Z" transform="translate(-500.28 -2005.397)" fill="#3d3d3d"/>
                    </g>
                    <g id="Trazado_115415" data-name="Trazado 115415" transform="translate(253.194 115.262)">
                      <path id="Trazado_128597" data-name="Trazado 128597" d="M940.515,2235.031l.358,1.82a.385.385,0,0,0,.449.307h0a.393.393,0,0,0,.3-.273l.526-1.779a2,2,0,0,1,1.539-1.4l1.82-.358a.39.39,0,0,0,.036-.757l-1.78-.527a2,2,0,0,1-1.4-1.533l-.361-1.821a.387.387,0,0,0-.451-.308h0a.4.4,0,0,0-.3.272l-.526,1.78a2,2,0,0,1-1.533,1.4l-1.821.359a.39.39,0,0,0-.036.757l1.779.526A2,2,0,0,1,940.515,2235.031Z" transform="translate(-937.06 -2228.398)" fill="#3d3d3d"/>
                    </g>
                    <g id="Trazado_115416" data-name="Trazado 115416" transform="translate(124.433 18.538)">
                      <path id="Trazado_128598" data-name="Trazado 128598" d="M689.852,2044.938l.2,1.013a.219.219,0,0,0,.42.02l.291-.987a1.119,1.119,0,0,1,.854-.778l1.013-.2a.219.219,0,0,0,.16-.265h0a.218.218,0,0,0-.14-.154l-.987-.292a1.115,1.115,0,0,1-.777-.853l-.2-1.014a.218.218,0,0,0-.264-.162h0a.22.22,0,0,0-.156.142l-.291.986a1.115,1.115,0,0,1-.853.778l-1.014.2a.219.219,0,0,0-.16.265h0a.218.218,0,0,0,.14.154l.991.292A1.118,1.118,0,0,1,689.852,2044.938Z" transform="translate(-687.941 -2041.263)" fill="#3d3d3d"/>
                    </g>
                    <g id="Trazado_115417" data-name="Trazado 115417" transform="translate(245.663 66.929)">
                      <path id="Trazado_128599" data-name="Trazado 128599" d="M924.545,2138.821l.213,1.084a.23.23,0,0,0,.27.183h0a.227.227,0,0,0,.176-.161l.314-1.062a1.186,1.186,0,0,1,.908-.827l1.084-.212a.233.233,0,0,0,.181-.272.248.248,0,0,0-.16-.177l-1.062-.313a1.188,1.188,0,0,1-.826-.908l-.213-1.084a.232.232,0,0,0-.271-.183h0a.228.228,0,0,0-.177.161l-.312,1.062a1.185,1.185,0,0,1-.908.826l-1.085.213a.233.233,0,0,0-.182.272.243.243,0,0,0,.161.177l1.062.312A1.185,1.185,0,0,1,924.545,2138.821Z" transform="translate(-922.489 -2134.886)" fill="#3d3d3d"/>
                    </g>
                    <g id="Trazado_115418" data-name="Trazado 115418" transform="translate(0 116.211)">
                      <path id="Trazado_128600" data-name="Trazado 128600" d="M450.381,2236.346l.333,1.679a.358.358,0,0,0,.42.28h0a.356.356,0,0,0,.272-.25l.485-1.641a1.846,1.846,0,0,1,1.416-1.288l1.678-.332a.357.357,0,0,0,.03-.693l-1.64-.485a1.846,1.846,0,0,1-1.289-1.415l-.333-1.678a.357.357,0,0,0-.693-.03l-.484,1.641a1.843,1.843,0,0,1-1.415,1.287l-1.679.333a.357.357,0,0,0-.029.693l1.641.485A1.844,1.844,0,0,1,450.381,2236.346Z" transform="translate(-447.196 -2230.235)" fill="#3d3d3d"/>
                    </g>
                  </g>
                  <g id="Rectángulo_33823" data-name="Rectángulo 33823">
                    <rect id="Rectángulo_42309" data-name="Rectángulo 42309" width="291.209" height="309.455" transform="translate(0 290.891) rotate(-87.321)" fill="none"/>
                  </g>
                </g>
              </g>
            </g>
            <g id="Grupo_82468" data-name="Grupo 82468" transform="translate(210.284 41.135)">
              <g id="Elipse_4783" data-name="Elipse 4783" transform="translate(0 0)">
                <ellipse id="Elipse_4810" data-name="Elipse 4810" cx="11.306" cy="10.942" rx="11.306" ry="10.942" transform="translate(0 16.889) rotate(-48.321)" fill="#3a3a3a"/>
              </g>
              <g id="Elipse_4784" data-name="Elipse 4784" transform="translate(1.694 5.209)">
                <g id="Grupo_136472-2" data-name="Grupo 136472" transform="translate(0 0)">
                  <ellipse id="Elipse_4811" data-name="Elipse 4811" cx="9.483" cy="10.212" rx="9.483" ry="10.212" transform="translate(0 14.165) rotate(-48.321)" fill="#fff"/>
                </g>
                <g id="Grupo_136473" data-name="Grupo 136473" transform="translate(4.147 4.172)">
                  <path id="Trazado_128601" data-name="Trazado 128601" d="M811.6,1871.169a10.5,10.5,0,0,1-6.96-2.7c-4.161-3.705-4.751-9.861-1.313-13.723s9.621-3.989,13.783-.283a10.451,10.451,0,0,1,3.51,6.793,8.905,8.905,0,0,1-9.02,9.911Zm-1.45-18.886a8.527,8.527,0,0,0-6.437,2.808c-3.249,3.649-2.678,9.478,1.271,12.994s9.8,3.407,13.052-.241a8.476,8.476,0,0,0,2.069-6.536,10.15,10.15,0,0,0-9.956-9.025Z" transform="translate(-801.09 -1851.766)" fill="#3a3a3a"/>
                </g>
              </g>
            </g>
          </g>
          <g id="Grupo_136474" data-name="Grupo 136474" transform="translate(250.264 94.858)">
            <path id="Trazado_128602" data-name="Trazado 128602" d="M784.632,1989.178a5.588,5.588,0,0,1,2.631,4.952l-1.737,16.39a18.667,18.667,0,0,0-4.548-.589c-11.159,0-15.811,11.335-22.613,11.335-16,0-10.131-34.7-21.259-34.7-4.724,0-16.142,18.478-24.179,18.478-11.65,0-6.5-19.667-19.383-19.667a15.369,15.369,0,0,0-5.913,1.38l5.014-47.257c.186-1.788,1.675-2.466,3.313-1.52Z" transform="translate(-687.632 -1937.556)" fill="#fff"/>
          </g>
          <g id="Grupo_136475" data-name="Grupo 136475" transform="translate(248.584 142.682)">
            <path id="Trazado_128603" data-name="Trazado 128603" d="M783.957,2055.222l-4.931,46.523c-.186,1.721-1.56,2.412-3.132,1.623-.062-.031-.124-.067-.186-.1l-88.674-51.2a5.587,5.587,0,0,1-2.631-4.952l1.659-15.656a15.371,15.371,0,0,1,5.913-1.38c12.885,0,7.732,19.667,19.383,19.667,8.037,0,19.455-18.478,24.179-18.478,11.128,0,5.256,34.7,21.259,34.7,6.8,0,11.454-11.335,22.613-11.335A18.655,18.655,0,0,1,783.957,2055.222Z" transform="translate(-684.383 -2030.082)" fill="#f6d84c"/>
          </g>
          <g id="Grupo_136476" data-name="Grupo 136476" transform="translate(187.503 164.687)">
            <path id="Trazado_128604" data-name="Trazado 128604" d="M719.755,2124.49c1.644.951,1.437,2.6-.46,3.7l-56.9,32.852a7.1,7.1,0,0,1-6.4.264l-88.674-51.2c-1.644-.946-1.437-2.605.46-3.7l56.9-32.847a7.139,7.139,0,0,1,6.357-.295Zm-32.821,6.414,9.464-5.463-9.464-5.469-9.464,5.469Zm-18.307,10.57,9.464-5.463-9.464-5.469-9.464,5.469Zm-.858-21.636,9.464-5.463-9.464-5.463-9.464,5.463Zm-18.307,10.57,9.464-5.463-9.464-5.463L640,2124.945Zm-.858-21.636,9.464-5.463-9.464-5.463-9.464,5.463Zm-18.307,10.57,9.464-5.463-9.464-5.463-9.464,5.463Zm-.853-21.631,9.464-5.468-9.469-5.463-9.464,5.463Zm-18.307,10.565,9.464-5.463-9.469-5.463-9.464,5.463Z" transform="translate(-566.206 -2072.656)" fill="#fff"/>
          </g>
          <g id="Grupo_136477" data-name="Grupo 136477" transform="translate(298.767 212.004)">
            <path id="Trazado_128605" data-name="Trazado 128605" d="M800.4,2169.67l-9.464,5.463-9.464-5.463,9.464-5.468Z" transform="translate(-781.472 -2164.202)" fill="#fff"/>
          </g>
          <g id="Grupo_136478" data-name="Grupo 136478" transform="translate(280.46 222.574)">
            <path id="Trazado_128606" data-name="Trazado 128606" d="M764.98,2190.12l-9.464,5.463-9.464-5.463,9.464-5.469Z" transform="translate(-746.052 -2184.652)" fill="#fff"/>
          </g>
          <g id="Grupo_136479" data-name="Grupo 136479" transform="translate(279.602 200.943)">
            <path id="Trazado_128607" data-name="Trazado 128607" d="M763.32,2148.265l-9.464,5.463-9.464-5.463,9.464-5.463Z" transform="translate(-744.392 -2142.802)" fill="#fff"/>
          </g>
          <g id="Grupo_136480" data-name="Grupo 136480" transform="translate(261.294 211.513)">
            <path id="Trazado_128608" data-name="Trazado 128608" d="M727.9,2168.715l-9.464,5.463-9.464-5.463,9.464-5.463Z" transform="translate(-708.972 -2163.252)" fill="#fff"/>
          </g>
          <g id="Grupo_136481" data-name="Grupo 136481" transform="translate(260.436 189.877)">
            <path id="Trazado_128609" data-name="Trazado 128609" d="M726.24,2126.855l-9.464,5.463-9.464-5.463,9.464-5.463Z" transform="translate(-707.312 -2121.392)" fill="#fff"/>
          </g>
          <g id="Grupo_136482" data-name="Grupo 136482" transform="translate(242.129 200.447)">
            <path id="Trazado_128610" data-name="Trazado 128610" d="M690.82,2147.305l-9.464,5.463-9.464-5.463,9.464-5.463Z" transform="translate(-671.892 -2141.842)" fill="#fff"/>
          </g>
          <g id="Grupo_136483" data-name="Grupo 136483" transform="translate(241.271 178.811)">
            <path id="Trazado_128611" data-name="Trazado 128611" d="M689.165,2105.445l-9.464,5.468-9.469-5.468,9.464-5.463Z" transform="translate(-670.232 -2099.982)" fill="#fff"/>
          </g>
          <g id="Grupo_136484" data-name="Grupo 136484" transform="translate(222.963 189.381)">
            <path id="Trazado_128612" data-name="Trazado 128612" d="M653.745,2125.9l-9.464,5.463-9.469-5.463,9.464-5.463Z" transform="translate(-634.812 -2120.432)" fill="#fff"/>
          </g>
          <g id="Grupo_136485" data-name="Grupo 136485" transform="translate(186.469 163.658)">
            <path id="Trazado_128613" data-name="Trazado 128613" d="M657.815,2162.021a6.688,6.688,0,0,1-3.31-.782l-88.672-51.194a2.9,2.9,0,0,1-1.627-2.5,3.629,3.629,0,0,1,2.086-2.992l56.9-32.847a8.189,8.189,0,0,1,7.378-.3,1.033,1.033,0,1,1-1.007,1.8,6.127,6.127,0,0,0-5.336.288l-56.9,32.847c-.777.449-1.052.927-1.052,1.2,0,.321.371.582.591.709l88.675,51.2a6.152,6.152,0,0,0,5.369-.262l56.9-32.854c.776-.448,1.052-.925,1.052-1.2,0-.322-.372-.585-.594-.714l-.956-.552a1.034,1.034,0,0,1,1.035-1.79l.956.553a2.9,2.9,0,0,1,1.626,2.5,3.629,3.629,0,0,1-2.086,2.986l-56.9,32.853A8.425,8.425,0,0,1,657.815,2162.021Z" transform="translate(-564.206 -2070.665)" fill="#3a3a3a"/>
          </g>
          <g id="Grupo_136486" data-name="Grupo 136486" transform="translate(219.355 205.015)">
            <path id="Trazado_128614" data-name="Trazado 128614" d="M678.991,2181.688a1.03,1.03,0,0,1-.516-.139L628.35,2152.61a1.034,1.034,0,0,1,1.034-1.791l50.125,28.939a1.034,1.034,0,0,1-.517,1.93Z" transform="translate(-627.832 -2150.681)" fill="#3a3a3a"/>
          </g>
          <g id="Grupo_136487" data-name="Grupo 136487" transform="translate(297.733 210.97)">
            <path id="Trazado_128615" data-name="Trazado 128615" d="M789.97,2175.2a1.032,1.032,0,0,1-.517-.138l-9.464-5.463a1.033,1.033,0,0,1,0-1.79l9.464-5.469a1.034,1.034,0,0,1,1.034,0l9.464,5.469a1.034,1.034,0,0,1,0,1.79l-9.464,5.463A1.03,1.03,0,0,1,789.97,2175.2Zm-7.4-6.5,7.4,4.27,7.4-4.27-7.4-4.274Z" transform="translate(-779.472 -2162.202)" fill="#3a3a3a"/>
          </g>
          <g id="Grupo_136488" data-name="Grupo 136488" transform="translate(278.568 199.909)">
            <path id="Trazado_128616" data-name="Trazado 128616" d="M752.89,2153.795a1.032,1.032,0,0,1-.517-.138l-9.463-5.463a1.033,1.033,0,0,1,0-1.79l9.463-5.464a1.034,1.034,0,0,1,1.034,0l9.464,5.464a1.034,1.034,0,0,1,0,1.79l-9.464,5.463A1.03,1.03,0,0,1,752.89,2153.795Zm-7.4-6.5,7.4,4.269,7.4-4.269-7.4-4.27Z" transform="translate(-742.393 -2140.801)" fill="#3a3a3a"/>
          </g>
          <g id="Grupo_136489" data-name="Grupo 136489" transform="translate(259.402 188.843)">
            <path id="Trazado_128617" data-name="Trazado 128617" d="M715.81,2132.385a1.029,1.029,0,0,1-.517-.138l-9.464-5.463a1.034,1.034,0,0,1,0-1.791l9.464-5.463a1.034,1.034,0,0,1,1.034,0l9.463,5.463a1.034,1.034,0,0,1,0,1.791l-9.463,5.463A1.032,1.032,0,0,1,715.81,2132.385Zm-7.4-6.5,7.4,4.27,7.4-4.27-7.4-4.27Z" transform="translate(-705.312 -2119.391)" fill="#3a3a3a"/>
          </g>
          <g id="Grupo_136490" data-name="Grupo 136490" transform="translate(240.237 177.777)">
            <path id="Trazado_128618" data-name="Trazado 128618" d="M678.735,2110.981a1.027,1.027,0,0,1-.517-.139l-9.469-5.468a1.034,1.034,0,0,1,0-1.791l9.464-5.463a1.033,1.033,0,0,1,1.034,0l9.469,5.463a1.034,1.034,0,0,1,0,1.791l-9.464,5.468A1.033,1.033,0,0,1,678.735,2110.981Zm-7.4-6.5,7.4,4.274,7.4-4.274-7.4-4.271Z" transform="translate(-668.232 -2097.981)" fill="#3a3a3a"/>
          </g>
          <g id="Grupo_136491" data-name="Grupo 136491" transform="translate(279.426 221.54)">
            <path id="Trazado_128619" data-name="Trazado 128619" d="M754.55,2195.651a1.033,1.033,0,0,1-.517-.139l-9.464-5.463a1.034,1.034,0,0,1,0-1.79l9.464-5.469a1.035,1.035,0,0,1,1.034,0l9.464,5.469a1.034,1.034,0,0,1,0,1.79l-9.464,5.463A1.03,1.03,0,0,1,754.55,2195.651Zm-7.4-6.5,7.4,4.271,7.4-4.271-7.4-4.274Z" transform="translate(-744.052 -2182.652)" fill="#3a3a3a"/>
          </g>
          <g id="Grupo_136492" data-name="Grupo 136492" transform="translate(260.26 210.479)">
            <path id="Trazado_128620" data-name="Trazado 128620" d="M717.47,2174.246a1.032,1.032,0,0,1-.517-.139l-9.464-5.463a1.034,1.034,0,0,1,0-1.791l9.464-5.463a1.031,1.031,0,0,1,1.034,0l9.464,5.463a1.034,1.034,0,0,1,0,1.791l-9.464,5.463A1.031,1.031,0,0,1,717.47,2174.246Zm-7.4-6.5,7.4,4.269,7.4-4.269-7.4-4.27Z" transform="translate(-706.972 -2161.251)" fill="#3a3a3a"/>
          </g>
          <g id="Grupo_136493" data-name="Grupo 136493" transform="translate(241.095 199.413)">
            <path id="Trazado_128621" data-name="Trazado 128621" d="M680.39,2152.835a1.032,1.032,0,0,1-.517-.138l-9.463-5.463a1.034,1.034,0,0,1,0-1.791l9.463-5.464a1.034,1.034,0,0,1,1.034,0l9.464,5.464a1.034,1.034,0,0,1,0,1.791l-9.464,5.463A1.03,1.03,0,0,1,680.39,2152.835Zm-7.4-6.5,7.4,4.269,7.4-4.269-7.4-4.27Z" transform="translate(-669.893 -2139.841)" fill="#3a3a3a"/>
          </g>
          <g id="Grupo_136494" data-name="Grupo 136494" transform="translate(221.929 188.346)">
            <path id="Trazado_128622" data-name="Trazado 128622" d="M643.315,2131.426a1.036,1.036,0,0,1-.516-.138l-9.469-5.464a1.033,1.033,0,0,1,0-1.79l9.464-5.464a1.033,1.033,0,0,1,1.033,0l9.469,5.464a1.034,1.034,0,0,1,0,1.79l-9.464,5.464A1.037,1.037,0,0,1,643.315,2131.426Zm-7.4-6.5,7.4,4.27,7.4-4.27-7.4-4.27Z" transform="translate(-632.812 -2118.431)" fill="#3a3a3a"/>
          </g>
          <g id="Grupo_136495" data-name="Grupo 136495" transform="translate(247.551 93.825)">
            <path id="Trazado_128623" data-name="Trazado 128623" d="M776.175,2059.062a3.827,3.827,0,0,1-1.71-.437c-.038-.02-.091-.046-88.914-51.328a6.619,6.619,0,0,1-3.141-5.957l1.659-15.655h0l5.014-47.257a3.135,3.135,0,0,1,1.6-2.566,3.388,3.388,0,0,1,3.253.259l88.674,51.2a6.622,6.622,0,0,1,3.142,5.958l-6.668,62.911a3.132,3.132,0,0,1-1.542,2.532A2.844,2.844,0,0,1,776.175,2059.062ZM686.124,1985.9l-1.659,15.656a4.54,4.54,0,0,0,2.121,3.948c.882.509,88.3,50.981,88.851,51.294a1.274,1.274,0,0,0,1.119.1,1.211,1.211,0,0,0,.477-.937l6.668-62.911a4.541,4.541,0,0,0-2.121-3.948l-88.673-51.195a1.408,1.408,0,0,0-1.279-.209,1.177,1.177,0,0,0-.488.94Z" transform="translate(-682.384 -1935.558)" fill="#3a3a3a"/>
          </g>
          <g id="Grupo_136496" data-name="Grupo 136496" transform="translate(249.23 141.648)">
            <path id="Trazado_128624" data-name="Trazado 128624" d="M757.4,2066.036c-9.56,0-11.908-10.9-13.979-20.516-1.571-7.293-3.055-14.182-7.28-14.182-1.607,0-5.195,3.771-8.36,7.1-5.075,5.335-10.827,11.38-15.82,11.38-6.4,0-8.349-5.39-10.066-10.145-1.768-4.9-3.437-9.522-9.317-9.522a14.178,14.178,0,0,0-5.509,1.3,1.034,1.034,0,0,1-.807-1.9,16.186,16.186,0,0,1,6.316-1.462c7.331,0,9.419,5.784,11.261,10.887,1.7,4.711,3.169,8.78,8.122,8.78,4.107,0,9.77-5.954,14.322-10.738,4.565-4.8,7.484-7.74,9.858-7.74,5.895,0,7.549,7.682,9.3,15.815,2,9.283,4.067,18.883,11.958,18.883,2.6,0,5-2.03,7.768-4.381,3.844-3.259,8.2-6.954,14.845-6.954a19.764,19.764,0,0,1,4.8.62,1.033,1.033,0,1,1-.5,2,17.759,17.759,0,0,0-4.3-.557c-5.887,0-9.936,3.434-13.508,6.463C763.551,2063.669,760.761,2066.036,757.4,2066.036Z" transform="translate(-685.632 -2028.082)" fill="#3a3a3a"/>
          </g>
          <g id="Grupo_136497" data-name="Grupo 136497" transform="translate(140.464 151.136)" style="mix-blend-mode: multiply;isolation: isolate">
            <path id="Trazado_128625" data-name="Trazado 128625" d="M546.263,2048.057a6.708,6.708,0,0,0-3.2,6.669c.353,2.347,2.192,5.2,4.794,5.564.3.042.585.1.876.149-.467.349-4.83,3.487-6.631,4.741-7.2,5.014-14.588,9.753-22.043,14.378s-15.029,9.045-22.638,13.384c-3.8,2.17-7.585,4.336-11.332,6.606-3.769,2.283-8.478,4.2-10.6,8.229a2.394,2.394,0,0,0,1.412,3.47c3.946,1.107,7.633-.473,11.381-1.73,4.175-1.4,8.253-2.914,12.29-4.681,7.639-3.344,15.091-6.969,22.4-10.991q10.914-6.011,21.322-12.844,5.111-3.339,10.118-6.833c3.917-2.734,8.155-5.514,9.621-10.354C566.953,2054.175,555.963,2042.01,546.263,2048.057Z" transform="translate(-475.198 -2046.439)" fill="#d7dce0"/>
          </g>
          <g id="Grupo_136498" data-name="Grupo 136498" transform="translate(44.021 128.449)" style="mix-blend-mode: multiply;isolation: isolate">
            <path id="Trazado_128626" data-name="Trazado 128626" d="M329.683,2002.552c-4.307-.151-8.109,2.568-11.494,4.892-3.3,2.265-6.659,4.424-10,6.629-3.2,2.114-6.439,4.181-9.686,6.223-3.166,1.991-6.431,3.952-8.858,6.837a3.818,3.818,0,0,0,1.657,6.277c3.919,1.5,7.958.2,11.648-1.346,4.064-1.7,8.04-3.52,11.936-5.581a122.659,122.659,0,0,0,10.661-6.442c3.873-2.583,8.313-5.591,9.564-10.358A5.7,5.7,0,0,0,329.683,2002.552Z" transform="translate(-288.607 -2002.546)" fill="#d7dce0"/>
          </g>
          <g id="Grupo_136499" data-name="Grupo 136499" transform="translate(202.334 111.682)">
            <path id="Trazado_128627" data-name="Trazado 128627" d="M605.693,1984.295l23.884-13.79c1.618-.93,2.931-.176,2.931,1.7V1995a6.476,6.476,0,0,1-2.931,5.071l-28,16.167c-1.618.936-2.925.176-2.925-1.69v-7.407l-3.753-1.83,3.753-6.161v-7.407a6.471,6.471,0,0,1,2.925-5.071Z" transform="translate(-594.901 -1970.107)" fill="#f6d84c"/>
          </g>
          <g id="Grupo_136500" data-name="Grupo 136500" transform="translate(159.171 126.677)">
            <path id="Trazado_128628" data-name="Trazado 128628" d="M516.88,2048.421v-49.3l-5.489,3.168v49.3Z" transform="translate(-511.391 -1999.117)" fill="#d7dce0"/>
          </g>
          <g id="Grupo_136501" data-name="Grupo 136501" transform="translate(168.226 65.755)">
            <path id="Trazado_128629" data-name="Trazado 128629" d="M543.125,1922.686a18.8,18.8,0,0,0,2.264-1.127c9.1-5.251,16.478-18.034,16.478-28.542s-7.376-14.772-16.478-9.516-16.478,18.034-16.478,28.547a14.853,14.853,0,0,0,1.773,7.577C533.082,1923.688,537.677,1924.97,543.125,1922.686Z" transform="translate(-528.911 -1881.25)" fill="#d7dce0"/>
          </g>
          <g id="Grupo_136502" data-name="Grupo 136502" transform="translate(173.043 130.217)">
            <path id="Trazado_128630" data-name="Trazado 128630" d="M543.72,2043.719v-37.752l-5.489,3.168v37.757Z" transform="translate(-538.231 -2005.967)" fill="#d7dce0"/>
          </g>
          <g id="Grupo_136503" data-name="Grupo 136503" transform="translate(186.911 133.38)">
            <path id="Trazado_128631" data-name="Trazado 128631" d="M570.555,2038.667v-26.58l-5.494,3.168v26.582Z" transform="translate(-565.061 -2012.087)" fill="#d7dce0"/>
          </g>
          <g id="Grupo_136504" data-name="Grupo 136504" transform="translate(145.298 144.333)">
            <path id="Trazado_128632" data-name="Trazado 128632" d="M490.045,2072.931v-39.654l-5.494,3.174V2076.1Z" transform="translate(-484.551 -2033.277)" fill="#d7dce0"/>
          </g>
          <g id="Grupo_136505" data-name="Grupo 136505" transform="translate(117.553 157.689)">
            <path id="Trazado_128633" data-name="Trazado 128633" d="M436.365,2101.433v-42.316l-5.494,3.168v42.321Z" transform="translate(-430.871 -2059.117)" fill="#d7dce0"/>
          </g>
          <g id="Grupo_136506" data-name="Grupo 136506" transform="translate(131.425 167.84)">
            <path id="Trazado_128634" data-name="Trazado 128634" d="M457.711,2106.083l5.494-3.168v-24.158l-5.494,3.174Z" transform="translate(-457.711 -2078.757)" fill="#d7dce0"/>
          </g>
          <g id="Grupo_136507" data-name="Grupo 136507" transform="translate(69.091 37.807)">
            <path id="Trazado_128635" data-name="Trazado 128635" d="M481.146,1831.421v83.82l-4.114,2.378a6.471,6.471,0,0,0-2.925,5.07v7.407l-3.752,6.161,3.752,1.83v7.406c0,1.866,1.308,2.626,2.925,1.69l4.114-2.375v5.7a16.24,16.24,0,0,1-7.36,12.741l-129.315,74.667c-4.063,2.347-7.36.439-7.36-4.249V1914.579a12.666,12.666,0,0,1,.563-3.587,17.374,17.374,0,0,1,4.895-7.774,12.066,12.066,0,0,1,1.9-1.38l129.315-74.661" transform="translate(-337.111 -1827.177)" fill="#d7dce0"/>
          </g>
          <g id="Grupo_136508" data-name="Grupo 136508" transform="translate(124.629 90.927)">
            <path id="Trazado_128636" data-name="Trazado 128636" d="M461.039,1970.259c9.1-5.256,16.483-18.034,16.483-28.541s-7.381-14.772-16.483-9.516a28.776,28.776,0,0,0-6.513,5.3c-5.861,6.3-9.965,15.4-9.965,23.238a16.033,16.033,0,0,0,1.194,6.435C448.195,1972.75,454.123,1974.254,461.039,1970.259Z" transform="translate(-444.561 -1929.95)" fill="#d7dce0"/>
          </g>
          <g id="Grupo_136509" data-name="Grupo 136509" transform="translate(81.031 116.097)">
            <path id="Trazado_128637" data-name="Trazado 128637" d="M393.172,1990.411a15.642,15.642,0,0,0-1.349-6.766v-.005a8.339,8.339,0,0,0-8.508-4.967,15.5,15.5,0,0,0-6.621,2.228c-9.1,5.251-16.483,18.034-16.483,28.542s7.381,14.772,16.483,9.516S393.172,2000.924,393.172,1990.411Z" transform="translate(-360.211 -1978.648)" fill="#d7dce0"/>
          </g>
          <g id="Grupo_136510" data-name="Grupo 136510" transform="translate(103.68 174.699)">
            <path id="Trazado_128638" data-name="Trazado 128638" d="M409.525,2125.344v-33.317l-5.494,3.174v33.312Z" transform="translate(-404.031 -2092.027)" fill="#d7dce0"/>
          </g>
          <g id="Grupo_136511" data-name="Grupo 136511" transform="translate(89.812 169.845)">
            <path id="Trazado_128639" data-name="Trazado 128639" d="M382.69,2128.814v-46.177l-5.489,3.173v46.177Z" transform="translate(-377.201 -2082.637)" fill="#d7dce0"/>
          </g>
          <g id="Grupo_136512" data-name="Grupo 136512" transform="translate(168.226 65.755)">
            <path id="Trazado_128640" data-name="Trazado 128640" d="M561.867,1893.017c0,10.508-7.376,23.29-16.478,28.542a18.8,18.8,0,0,1-2.264,1.127l1.153-10.27a10.578,10.578,0,0,0,1.111-.553c4.467-2.573,8.084-8.844,8.084-14s-3.618-7.241-8.084-4.662-8.079,8.844-8.079,13.991a7.331,7.331,0,0,0,.868,3.716l-7.495,8.714a14.853,14.853,0,0,1-1.773-7.577c0-10.513,7.376-23.3,16.478-28.547S561.867,1882.5,561.867,1893.017Z" transform="translate(-528.911 -1881.25)" fill="#3a3a3a"/>
          </g>
          <g id="Grupo_136513" data-name="Grupo 136513" transform="translate(186.911 159.961)">
            <path id="Trazado_128641" data-name="Trazado 128641" d="M570.555,2063.512l-5.494,3.171Z" transform="translate(-565.061 -2063.512)" fill="#fff"/>
          </g>
          <g id="Grupo_136514" data-name="Grupo 136514" transform="translate(186.911 133.38)">
            <path id="Trazado_128642" data-name="Trazado 128642" d="M570.555,2012.087v26.58l-5.494,3.171v-26.582Z" transform="translate(-565.061 -2012.087)" fill="#3a3a3a"/>
          </g>
          <g id="Grupo_136515" data-name="Grupo 136515" transform="translate(176.625 76.603)">
            <path id="Trazado_128643" data-name="Trazado 128643" d="M561.323,1908.006c0,5.153-3.617,11.424-8.084,14a10.229,10.229,0,0,1-1.111.553c-2.662,1.128-4.921.491-6.1-1.5a7.331,7.331,0,0,1-.868-3.716c0-5.148,3.618-11.418,8.079-13.991S561.323,1902.853,561.323,1908.006Z" transform="translate(-545.161 -1902.238)" fill="#d7dce0"/>
          </g>
          <g id="Grupo_136516" data-name="Grupo 136516" transform="translate(169.999 95.417)">
            <path id="Trazado_128644" data-name="Trazado 128644" d="M545.935,1940.141l-1.153,10.27c-5.448,2.285-10.043,1-12.441-3.06l7.495-8.714C541.014,1940.632,543.268,1941.257,545.935,1940.141Z" transform="translate(-532.341 -1938.637)" fill="#f6d84c"/>
          </g>
          <g id="Grupo_136517" data-name="Grupo 136517" transform="translate(173.043 130.217)">
            <path id="Trazado_128645" data-name="Trazado 128645" d="M543.72,2005.967v37.752l-5.489,3.174v-37.757Z" transform="translate(-538.231 -2005.967)" fill="#fff"/>
          </g>
          <g id="Grupo_136518" data-name="Grupo 136518" transform="translate(159.171 126.677)">
            <path id="Trazado_128646" data-name="Trazado 128646" d="M516.88,1999.117v49.3l-5.489,3.168v-49.3Z" transform="translate(-511.391 -1999.117)" fill="#3a3a3a"/>
          </g>
          <g id="Grupo_136519" data-name="Grupo 136519" transform="translate(125.823 90.927)">
            <path id="Trazado_128647" data-name="Trazado 128647" d="M478.638,1941.718c0,10.508-7.381,23.285-16.483,28.541-6.916,4-12.844,2.491-15.284-3.08l7.792-8.131c1.189,2.734,4.1,3.474,7.491,1.515,4.466-2.579,8.079-8.844,8.079-14s-3.613-7.241-8.079-4.667a14.12,14.12,0,0,0-3.194,2.605l-3.318-7a28.775,28.775,0,0,1,6.513-5.3C471.257,1926.945,478.638,1931.2,478.638,1941.718Z" transform="translate(-446.871 -1929.95)" fill="#3a3a3a"/>
          </g>
          <g id="Grupo_136520" data-name="Grupo 136520" transform="translate(145.298 144.333)">
            <path id="Trazado_128648" data-name="Trazado 128648" d="M490.045,2033.277v39.654l-5.494,3.173V2036.45Z" transform="translate(-484.551 -2033.277)" fill="#fff"/>
          </g>
          <g id="Grupo_136521" data-name="Grupo 136521" transform="translate(133.028 101.773)">
            <path id="Trazado_128649" data-name="Trazado 128649" d="M476.968,1956.7c0,5.153-3.613,11.417-8.079,14-3.391,1.959-6.3,1.22-7.491-1.515a7.766,7.766,0,0,1-.587-3.153c0-3.84,2.016-8.3,4.884-11.392a14.113,14.113,0,0,1,3.194-2.605C473.355,1949.463,476.968,1951.551,476.968,1956.7Z" transform="translate(-460.811 -1950.935)" fill="#d7dce0"/>
          </g>
          <g id="Grupo_136522" data-name="Grupo 136522" transform="translate(124.629 98.482)">
            <path id="Trazado_128650" data-name="Trazado 128650" d="M454.526,1944.567l3.318,7c-2.869,3.091-4.884,7.551-4.884,11.392a7.765,7.765,0,0,0,.587,3.153l-7.792,8.131a16.033,16.033,0,0,1-1.194-6.435C444.561,1959.97,448.665,1950.867,454.526,1944.567Z" transform="translate(-444.561 -1944.567)" fill="#f6d84c"/>
          </g>
          <g id="Grupo_136523" data-name="Grupo 136523" transform="translate(131.425 167.84)">
            <path id="Trazado_128651" data-name="Trazado 128651" d="M463.205,2078.757v24.158l-5.494,3.168V2081.93Z" transform="translate(-457.711 -2078.757)" fill="#3a3a3a"/>
          </g>
          <g id="Grupo_136524" data-name="Grupo 136524" transform="translate(117.553 157.689)">
            <path id="Trazado_128652" data-name="Trazado 128652" d="M436.365,2059.117v42.316l-5.494,3.173v-42.321Z" transform="translate(-430.871 -2059.117)" fill="#fff"/>
          </g>
          <g id="Grupo_136525" data-name="Grupo 136525" transform="translate(81.031 116.122)">
            <path id="Trazado_128653" data-name="Trazado 128653" d="M391.823,1983.669a15.641,15.641,0,0,1,1.349,6.766c0,10.513-7.376,23.3-16.478,28.547s-16.483,1-16.483-9.516,7.381-23.29,16.483-28.541a15.5,15.5,0,0,1,6.621-2.228l-3.375,10.833v.005a7.574,7.574,0,0,0-3.246,1.085c-4.466,2.579-8.079,8.844-8.079,14s3.613,7.241,8.079,4.662,8.079-8.844,8.079-13.991a7.639,7.639,0,0,0-.665-3.324Z" transform="translate(-360.211 -1978.697)" fill="#3a3a3a"/>
          </g>
          <g id="Grupo_136526" data-name="Grupo 136526" transform="translate(100.76 116.097)">
            <path id="Trazado_128654" data-name="Trazado 128654" d="M410.264,1983.64v.005l-7.715,8.3a4.073,4.073,0,0,0-4.168-2.429v-.005l3.375-10.833A8.339,8.339,0,0,1,410.264,1983.64Z" transform="translate(-398.381 -1978.648)" fill="#f6d84c"/>
          </g>
          <g id="Grupo_136527" data-name="Grupo 136527" transform="translate(103.68 174.699)">
            <path id="Trazado_128655" data-name="Trazado 128655" d="M409.525,2092.027v33.317l-5.494,3.168V2095.2Z" transform="translate(-404.031 -2092.027)" fill="#3a3a3a"/>
          </g>
          <g id="Grupo_136528" data-name="Grupo 136528" transform="translate(89.435 126.948)">
            <path id="Trazado_128656" data-name="Trazado 128656" d="M391.964,2002.083a7.64,7.64,0,0,1,.665,3.324c0,5.148-3.618,11.418-8.079,13.992s-8.079.491-8.079-4.662,3.613-11.417,8.079-14a7.572,7.572,0,0,1,3.246-1.085A4.073,4.073,0,0,1,391.964,2002.083Z" transform="translate(-376.471 -1999.641)" fill="#d7dce0"/>
          </g>
          <g id="Grupo_136529" data-name="Grupo 136529" transform="translate(89.812 169.845)">
            <path id="Trazado_128657" data-name="Trazado 128657" d="M382.69,2082.637v46.177l-5.489,3.173V2085.81Z" transform="translate(-377.201 -2082.637)" fill="#fff"/>
          </g>
          <g id="Grupo_136530" data-name="Grupo 136530" transform="translate(43.889 81.094)">
            <path id="Trazado_128658" data-name="Trazado 128658" d="M334.507,1911.888v22.561l-13.594,7.851a12.074,12.074,0,0,0-1.9,1.38l-7.582-11.387-13.376,35.519,15.5-8.947v11.087l-24.107,13.919c-.6.346-1.1-.026-1.1-.832v-44.5a2.639,2.639,0,0,1,1.1-2.1l43.96-25.383C334.016,1910.709,334.507,1911.082,334.507,1911.888Z" transform="translate(-288.351 -1910.926)" fill="#fff"/>
          </g>
          <g id="Grupo_136531" data-name="Grupo 136531" transform="translate(57.002 112.437)">
            <path id="Trazado_128659" data-name="Trazado 128659" d="M330.328,1971.567l.941,1.411a17.374,17.374,0,0,0-4.895,7.774l-12.653,7.3,3.323-8.818Z" transform="translate(-313.721 -1971.567)" fill="#3a3a3a"/>
          </g>
          <g id="Grupo_136532" data-name="Grupo 136532" transform="translate(60.325 107.449)">
            <path id="Trazado_128660" data-name="Trazado 128660" d="M330.111,1961.917l3.323,4.988-13.283,7.67,3.318-8.823Z" transform="translate(-320.151 -1961.917)" fill="#d7dce0"/>
          </g>
          <g id="Grupo_136533" data-name="Grupo 136533" transform="translate(63.643 102.461)">
            <path id="Trazado_128661" data-name="Trazado 128661" d="M329.894,1952.267l3.318,4.988-6.642,3.835Z" transform="translate(-326.571 -1952.267)" fill="#3a3a3a"/>
          </g>
          <g id="Grupo_136534" data-name="Grupo 136534" transform="translate(53.59 121.622)">
            <path id="Trazado_128662" data-name="Trazado 128662" d="M310.532,1996.64l12.653-7.3a12.666,12.666,0,0,0-.563,3.587v3.825l-15.5,8.947Z" transform="translate(-307.121 -1989.337)" fill="#d7dce0"/>
          </g>
          <g id="Grupo_136535" data-name="Grupo 136535" transform="translate(106.59 210.414)">
            <path id="Trazado_128663" data-name="Trazado 128663" d="M410.7,2168.032a1.034,1.034,0,0,1-.518-1.929l8.378-4.838a1.034,1.034,0,0,1,1.034,1.791l-8.378,4.838A1.034,1.034,0,0,1,410.7,2168.032Z" transform="translate(-409.661 -2161.127)" fill="#3a3a3a"/>
          </g>
          <g id="Grupo_136536" data-name="Grupo 136536" transform="translate(92.717 218.421)">
            <path id="Trazado_128664" data-name="Trazado 128664" d="M383.856,2183.522a1.034,1.034,0,0,1-.518-1.929l8.378-4.837a1.034,1.034,0,0,1,1.034,1.791l-8.378,4.837A1.029,1.029,0,0,1,383.856,2183.522Z" transform="translate(-382.821 -2176.617)" fill="#3a3a3a"/>
          </g>
          <g id="Grupo_136537" data-name="Grupo 136537" transform="translate(78.446 226.432)">
            <path id="Trazado_128665" data-name="Trazado 128665" d="M356.246,2199.255a1.034,1.034,0,0,1-.518-1.929l8.782-5.07a1.034,1.034,0,1,1,1.034,1.791l-8.782,5.07A1.029,1.029,0,0,1,356.246,2199.255Z" transform="translate(-355.211 -2192.117)" fill="#3a3a3a"/>
          </g>
          <g id="Grupo_136538" data-name="Grupo 136538" transform="translate(212.093 41.016)">
            <path id="Trazado_128666" data-name="Trazado 128666" d="M614.815,1919.279a1.033,1.033,0,0,1-1.034-1.034v-83.825a1.034,1.034,0,0,1,2.067,0v83.825A1.034,1.034,0,0,1,614.815,1919.279Z" transform="translate(-613.781 -1833.387)" fill="#3a3a3a"/>
          </g>
          <g id="Grupo_136539" data-name="Grupo 136539" transform="translate(68.057 36.772)">
            <path id="Trazado_128667" data-name="Trazado 128667" d="M340.219,2038.99a4.8,4.8,0,0,1-2.433-.634c-1.725-1-2.674-3-2.674-5.658V1913.612a13.65,13.65,0,0,1,.607-3.882,18.4,18.4,0,0,1,5.2-8.255,12.884,12.884,0,0,1,2.07-1.5L472.3,1825.314a1.034,1.034,0,0,1,1.034,1.791l-129.315,74.661a10.771,10.771,0,0,0-1.736,1.261,16.243,16.243,0,0,0-4.587,7.292,11.609,11.609,0,0,0-.521,3.292V2032.7c0,1.883.583,3.257,1.641,3.867s2.538.428,4.169-.514L472.3,1961.385a15.118,15.118,0,0,0,6.843-11.845v-5.7a1.034,1.034,0,0,1,2.067,0v5.7a17.149,17.149,0,0,1-7.878,13.636l-129.314,74.666A7.7,7.7,0,0,1,340.219,2038.99Z" transform="translate(-335.111 -1825.176)" fill="#3a3a3a"/>
          </g>
          <g id="Grupo_136540" data-name="Grupo 136540" transform="translate(79.997 115.063)">
            <path id="Trazado_128668" data-name="Trazado 128668" d="M368.363,2021.285a9.487,9.487,0,0,1-4.807-1.243c-3.447-1.99-5.345-6.1-5.345-11.566,0-10.824,7.626-24.029,17-29.437a16.485,16.485,0,0,1,7.066-2.364,9.392,9.392,0,0,1,9.511,5.552c.01.021.02.042.028.064a16.7,16.7,0,0,1,1.422,7.153c0,10.828-7.624,24.035-16.995,29.442A16,16,0,0,1,368.363,2021.285Zm14.711-42.57q-.322,0-.654.023a14.467,14.467,0,0,0-6.174,2.091c-8.805,5.081-15.968,17.483-15.968,27.648,0,4.7,1.531,8.171,4.311,9.776s6.552,1.194,10.622-1.156c8.8-5.078,15.961-17.482,15.961-27.651a14.611,14.611,0,0,0-1.248-6.319c-.009-.02-.018-.039-.026-.059A7.269,7.269,0,0,0,383.074,1978.715Z" transform="translate(-358.211 -1976.648)" fill="#3a3a3a"/>
          </g>
          <g id="Grupo_136541" data-name="Grupo 136541" transform="translate(88.401 125.916)">
            <path id="Trazado_128669" data-name="Trazado 128669" d="M379.969,2020.578a5.168,5.168,0,0,1-2.617-.68c-1.858-1.073-2.882-3.249-2.882-6.126a18.749,18.749,0,0,1,8.6-14.892,8.609,8.609,0,0,1,3.691-1.222,5.12,5.12,0,0,1,5.171,3.013,8.674,8.674,0,0,1,.766,3.771c0,5.474-3.856,12.152-8.6,14.887A8.372,8.372,0,0,1,379.969,2020.578Zm7.223-20.867c-.1,0-.192,0-.291.01a6.576,6.576,0,0,0-2.8.949,16.744,16.744,0,0,0-7.563,13.1c0,2.108.656,3.647,1.848,4.335s2.854.487,4.68-.568a16.734,16.734,0,0,0,7.562-13.1,6.65,6.65,0,0,0-.563-2.876h0A3.027,3.027,0,0,0,387.192,1999.711Z" transform="translate(-374.471 -1997.645)" fill="#3a3a3a"/>
          </g>
          <g id="Grupo_136542" data-name="Grupo 136542" transform="translate(99.725 115.088)">
            <path id="Trazado_128670" data-name="Trazado 128670" d="M397.414,1989.6a1.036,1.036,0,0,1-.987-1.341l3.375-10.833a1.034,1.034,0,0,1,1.974.615l-3.375,10.833A1.036,1.036,0,0,1,397.414,1989.6Z" transform="translate(-396.38 -1976.696)" fill="#3a3a3a"/>
          </g>
          <g id="Grupo_136543" data-name="Grupo 136543" transform="translate(103.894 120.058)">
            <path id="Trazado_128671" data-name="Trazado 128671" d="M405.478,1996.678a1.034,1.034,0,0,1-.757-1.738l7.688-8.268a1.033,1.033,0,0,1,1.817.671,1.045,1.045,0,0,1-.277.709l-7.715,8.3A1.032,1.032,0,0,1,405.478,1996.678Z" transform="translate(-404.445 -1986.312)" fill="#3a3a3a"/>
          </g>
          <g id="Grupo_136544" data-name="Grupo 136544" transform="translate(131.994 100.734)">
            <path id="Trazado_128672" data-name="Trazado 128672" d="M464.329,1971.868a5.436,5.436,0,0,1-1.7-.264,5.179,5.179,0,0,1-3.143-2.973,8.854,8.854,0,0,1-.675-3.569,19.033,19.033,0,0,1,5.161-12.1h0a15.054,15.054,0,0,1,3.433-2.795c2.495-1.439,4.892-1.639,6.75-.565s2.881,3.249,2.881,6.127a18.75,18.75,0,0,1-8.6,14.891A8.308,8.308,0,0,1,464.329,1971.868Zm1.157-17.494a16.866,16.866,0,0,0-4.608,10.688,6.817,6.817,0,0,0,.5,2.738,3.126,3.126,0,0,0,1.894,1.839,5.267,5.267,0,0,0,4.134-.8,16.745,16.745,0,0,0,7.562-13.1c0-2.107-.656-3.647-1.848-4.336s-2.854-.488-4.681.564a13,13,0,0,0-2.953,2.414Z" transform="translate(-458.811 -1948.925)" fill="#3a3a3a"/>
          </g>
          <g id="Grupo_136545" data-name="Grupo 136545" transform="translate(123.595 89.885)">
            <path id="Trazado_128673" data-name="Trazado 128673" d="M452.731,1972.575a10.025,10.025,0,0,1-3.139-.488,9.5,9.5,0,0,1-5.75-5.468,17.037,17.037,0,0,1-1.281-6.85c0-7.864,4.02-17.262,10.242-23.943h0a29.622,29.622,0,0,1,6.751-5.493c4.738-2.736,9.243-3.147,12.69-1.156s5.345,6.1,5.345,11.566c0,10.818-7.626,24.023-17,29.437A15.923,15.923,0,0,1,452.731,1972.575Zm1.585-35.34h0c-5.885,6.319-9.688,15.164-9.688,22.533a15,15,0,0,0,1.107,6.02,7.491,7.491,0,0,0,4.5,4.334c2.6.852,5.908.237,9.319-1.734,8.8-5.084,15.967-17.486,15.967-27.646,0-4.7-1.531-8.171-4.311-9.776s-6.552-1.194-10.621,1.156A27.547,27.547,0,0,0,454.316,1937.236Z" transform="translate(-442.561 -1927.934)" fill="#3a3a3a"/>
          </g>
          <g id="Grupo_136546" data-name="Grupo 136546" transform="translate(133.56 97.447)">
            <path id="Trazado_128674" data-name="Trazado 128674" d="M466.193,1951.632a1.032,1.032,0,0,1-.935-.591l-3.318-7a1.034,1.034,0,1,1,1.868-.885l3.318,7a1.033,1.033,0,0,1-.933,1.476Z" transform="translate(-461.841 -1942.566)" fill="#3a3a3a"/>
          </g>
          <g id="Grupo_136547" data-name="Grupo 136547" transform="translate(124.789 118.991)">
            <path id="Trazado_128675" data-name="Trazado 128675" d="M445.9,1994.445a1.034,1.034,0,0,1-.746-1.749l7.792-8.13a1.034,1.034,0,0,1,1.493,1.431l-7.792,8.13A1.029,1.029,0,0,1,445.9,1994.445Z" transform="translate(-444.871 -1984.247)" fill="#3a3a3a"/>
          </g>
          <g id="Grupo_136548" data-name="Grupo 136548" transform="translate(175.592 75.565)">
            <path id="Trazado_128676" data-name="Trazado 128676" d="M548.656,1923.174a5.025,5.025,0,0,1-4.484-2.569h0a8.277,8.277,0,0,1-1.011-4.24c0-5.474,3.856-12.152,8.6-14.886,2.493-1.44,4.89-1.642,6.751-.568s2.883,3.249,2.883,6.125a18.73,18.73,0,0,1-8.6,14.893,11.391,11.391,0,0,1-1.224.609A7.5,7.5,0,0,1,548.656,1923.174Zm7.226-20.876a6.343,6.343,0,0,0-3.091.969,16.734,16.734,0,0,0-7.562,13.1,6.355,6.355,0,0,0,.726,3.193h0c.93,1.584,2.682,1.974,4.8,1.076a9.036,9.036,0,0,0,1-.5,16.724,16.724,0,0,0,7.566-13.1c0-2.107-.656-3.646-1.849-4.334A3.14,3.14,0,0,0,555.882,1902.3Z" transform="translate(-543.161 -1900.229)" fill="#3a3a3a"/>
          </g>
          <g id="Grupo_136549" data-name="Grupo 136549" transform="translate(167.193 64.714)">
            <path id="Trazado_128677" data-name="Trazado 128677" d="M537.017,1923.87a9.145,9.145,0,0,1-8.19-4.692h0a15.8,15.8,0,0,1-1.916-8.1c0-10.828,7.624-24.035,17-29.442,4.734-2.734,9.239-3.145,12.684-1.156s5.343,6.1,5.343,11.568c0,10.825-7.624,24.03-16.995,29.437a20.257,20.257,0,0,1-2.385,1.187A14.545,14.545,0,0,1,537.017,1923.87Zm-6.409-5.744c2.186,3.7,6.252,4.663,11.156,2.63a18.108,18.108,0,0,0,2.142-1.067c8.8-5.077,15.961-17.479,15.961-27.646,0-4.7-1.531-8.173-4.31-9.777s-6.549-1.193-10.617,1.156c-8.8,5.078-15.961,17.482-15.961,27.652a13.975,13.975,0,0,0,1.629,7.052Z" transform="translate(-526.911 -1879.234)" fill="#3a3a3a"/>
          </g>
          <g id="Grupo_136550" data-name="Grupo 136550" transform="translate(168.965 94.383)">
            <path id="Trazado_128678" data-name="Trazado 128678" d="M531.374,1947.418a1.034,1.034,0,0,1-.784-1.708l7.495-8.714a1.034,1.034,0,1,1,1.568,1.347l-7.495,8.715A1.032,1.032,0,0,1,531.374,1947.418Z" transform="translate(-530.341 -1936.636)" fill="#3a3a3a"/>
          </g>
          <g id="Grupo_136551" data-name="Grupo 136551" transform="translate(181.406 95.887)">
            <path id="Trazado_128679" data-name="Trazado 128679" d="M555.446,1951.884a.968.968,0,0,1-.117-.007,1.033,1.033,0,0,1-.912-1.142l1.153-10.27a1.033,1.033,0,0,1,2.054.23l-1.153,10.27A1.033,1.033,0,0,1,555.446,1951.884Z" transform="translate(-554.411 -1939.547)" fill="#3a3a3a"/>
          </g>
          <g id="Grupo_136552" data-name="Grupo 136552" transform="translate(177.499 153.859)">
            <path id="Trazado_128680" data-name="Trazado 128680" d="M547.886,2066.851a1.034,1.034,0,0,1-.518-1.93l22.649-13.076a1.034,1.034,0,0,1,1.034,1.79L548.4,2066.712A1.027,1.027,0,0,1,547.886,2066.851Z" transform="translate(-546.851 -2051.706)" fill="#3a3a3a"/>
          </g>
          <g id="Grupo_136553" data-name="Grupo 136553" transform="translate(163.626 170.108)">
            <path id="Trazado_128681" data-name="Trazado 128681" d="M521.045,2090.052a1.034,1.034,0,0,1-.518-1.93l8.384-4.838a1.034,1.034,0,1,1,1.033,1.791l-8.384,4.838A1.028,1.028,0,0,1,521.045,2090.052Z" transform="translate(-520.01 -2083.146)" fill="#3a3a3a"/>
          </g>
          <g id="Grupo_136554" data-name="Grupo 136554" transform="translate(149.759 178.115)">
            <path id="Trazado_128682" data-name="Trazado 128682" d="M494.216,2105.542a1.034,1.034,0,0,1-.518-1.929l8.378-4.838a1.034,1.034,0,0,1,1.034,1.791l-8.378,4.838A1.029,1.029,0,0,1,494.216,2105.542Z" transform="translate(-493.181 -2098.637)" fill="#3a3a3a"/>
          </g>
          <g id="Grupo_136555" data-name="Grupo 136555" transform="translate(135.886 186.127)">
            <path id="Trazado_128683" data-name="Trazado 128683" d="M467.376,2121.042a1.034,1.034,0,0,1-.518-1.929l8.378-4.838a1.034,1.034,0,0,1,1.034,1.791l-8.378,4.838A1.029,1.029,0,0,1,467.376,2121.042Z" transform="translate(-466.341 -2114.137)" fill="#3a3a3a"/>
          </g>
          <g id="Grupo_136556" data-name="Grupo 136556" transform="translate(122.013 194.133)">
            <path id="Trazado_128684" data-name="Trazado 128684" d="M440.536,2136.532a1.034,1.034,0,0,1-.518-1.929l8.378-4.837a1.034,1.034,0,1,1,1.034,1.79l-8.378,4.838A1.034,1.034,0,0,1,440.536,2136.532Z" transform="translate(-439.501 -2129.627)" fill="#3a3a3a"/>
          </g>
          <g id="Grupo_136557" data-name="Grupo 136557" transform="translate(88.779 168.812)">
            <path id="Trazado_128685" data-name="Trazado 128685" d="M376.235,2132.055a1.034,1.034,0,0,1-1.034-1.034v-46.177a1.034,1.034,0,0,1,.516-.895l5.489-3.174a1.034,1.034,0,0,1,1.551.9v46.177a1.033,1.033,0,0,1-.516.895l-5.489,3.174A1.036,1.036,0,0,1,376.235,2132.055Zm1.034-46.614v43.788l3.422-1.979v-43.788Zm4.455,42.407h0Z" transform="translate(-375.201 -2080.637)" fill="#3a3a3a"/>
          </g>
          <g id="Grupo_136558" data-name="Grupo 136558" transform="translate(102.646 173.665)">
            <path id="Trazado_128686" data-name="Trazado 128686" d="M403.065,2128.58a1.033,1.033,0,0,1-1.034-1.034v-33.312a1.033,1.033,0,0,1,.516-.895l5.495-3.174a1.033,1.033,0,0,1,1.551.895v33.317a1.033,1.033,0,0,1-.517.9l-5.494,3.169A1.035,1.035,0,0,1,403.065,2128.58Zm1.034-33.749v30.926l3.427-1.977v-30.929Zm4.461,29.547h0Z" transform="translate(-402.031 -2090.027)" fill="#3a3a3a"/>
          </g>
          <g id="Grupo_136559" data-name="Grupo 136559" transform="translate(116.519 156.655)">
            <path id="Trazado_128687" data-name="Trazado 128687" d="M429.9,2104.674a1.034,1.034,0,0,1-1.034-1.034v-42.321a1.032,1.032,0,0,1,.517-.9l5.494-3.168a1.034,1.034,0,0,1,1.55.9v42.315a1.033,1.033,0,0,1-.517.9l-5.494,3.174A1.032,1.032,0,0,1,429.9,2104.674Zm1.034-42.758v39.933l3.427-1.979v-39.93Zm4.461,38.55h0Z" transform="translate(-428.871 -2057.117)" fill="#3a3a3a"/>
          </g>
          <g id="Grupo_136560" data-name="Grupo 136560" transform="translate(130.392 166.806)">
            <path id="Trazado_128688" data-name="Trazado 128688" d="M456.745,2106.151a1.035,1.035,0,0,1-1.034-1.034v-24.154a1.032,1.032,0,0,1,.516-.895l5.494-3.174a1.034,1.034,0,0,1,1.551.9v24.158a1.033,1.033,0,0,1-.517.9l-5.494,3.168A1.029,1.029,0,0,1,456.745,2106.151Zm1.034-24.59v21.767l3.427-1.976v-21.771Zm4.461,20.388h0Z" transform="translate(-455.711 -2076.757)" fill="#3a3a3a"/>
          </g>
          <g id="Grupo_136561" data-name="Grupo 136561" transform="translate(144.264 143.299)">
            <path id="Trazado_128689" data-name="Trazado 128689" d="M483.585,2076.172a1.034,1.034,0,0,1-1.034-1.034v-39.654a1.032,1.032,0,0,1,.516-.895l5.495-3.174a1.033,1.033,0,0,1,1.551.895v39.655a1.034,1.034,0,0,1-.516.9l-5.495,3.173A1.031,1.031,0,0,1,483.585,2076.172Zm1.034-40.091v37.267l3.427-1.979V2034.1Zm4.461,35.884h0Z" transform="translate(-482.551 -2031.277)" fill="#3a3a3a"/>
          </g>
          <g id="Grupo_136562" data-name="Grupo 136562" transform="translate(158.137 125.643)">
            <path id="Trazado_128690" data-name="Trazado 128690" d="M510.425,2051.656a1.034,1.034,0,0,1-1.034-1.034v-49.3a1.033,1.033,0,0,1,.517-.9l5.489-3.168a1.034,1.034,0,0,1,1.551.9v49.3a1.034,1.034,0,0,1-.517.9l-5.489,3.168A1.031,1.031,0,0,1,510.425,2051.656Zm1.034-49.741v46.916l3.422-1.975v-46.916Zm4.455,45.539h0Z" transform="translate(-509.391 -1997.116)" fill="#3a3a3a"/>
          </g>
          <g id="Grupo_136563" data-name="Grupo 136563" transform="translate(172.01 129.183)">
            <path id="Trazado_128691" data-name="Trazado 128691" d="M537.265,2046.959a1.034,1.034,0,0,1-1.034-1.034v-37.757a1.035,1.035,0,0,1,.517-.9l5.489-3.168a1.034,1.034,0,0,1,1.551.9v37.752a1.034,1.034,0,0,1-.516.895l-5.489,3.173A1.033,1.033,0,0,1,537.265,2046.959Zm1.034-38.194v35.368l3.422-1.978v-35.365Zm4.455,33.987h0Z" transform="translate(-536.231 -2003.966)" fill="#3a3a3a"/>
          </g>
          <g id="Grupo_136564" data-name="Grupo 136564" transform="translate(185.877 132.347)">
            <path id="Trazado_128692" data-name="Trazado 128692" d="M564.095,2041.9a1.033,1.033,0,0,1-1.034-1.034v-26.582a1.034,1.034,0,0,1,.517-.9l5.494-3.168a1.034,1.034,0,0,1,1.55.9v26.58a1.032,1.032,0,0,1-.517.9l-5.494,3.171A1.032,1.032,0,0,1,564.095,2041.9Zm1.034-27.019v24.2l3.427-1.978V2012.91Zm4.461,22.815h0Z" transform="translate(-563.061 -2010.087)" fill="#3a3a3a"/>
          </g>
          <g id="Grupo_136565" data-name="Grupo 136565" transform="translate(42.855 80.06)">
            <path id="Trazado_128693" data-name="Trazado 128693" d="M288.045,1984.069a1.585,1.585,0,0,1-.8-.214,1.969,1.969,0,0,1-.895-1.782v-44.5a3.669,3.669,0,0,1,1.61-2.992l43.962-25.385a1.729,1.729,0,0,1,1.759-.052,1.968,1.968,0,0,1,.892,1.78v22.561a1.034,1.034,0,1,1-2.067,0v-22.238L289,1936.368a1.653,1.653,0,0,0-.579,1.2v44.176l23.652-13.656a1.034,1.034,0,0,1,1.034,1.79L289,1983.8A1.92,1.92,0,0,1,288.045,1984.069Z" transform="translate(-286.351 -1908.926)" fill="#3a3a3a"/>
          </g>
          <g id="Grupo_136566" data-name="Grupo 136566" transform="translate(55.968 120.588)">
            <path id="Trazado_128694" data-name="Trazado 128694" d="M312.756,1996.707a1.034,1.034,0,0,1-.518-1.93l12.653-7.3a1.034,1.034,0,0,1,1.034,1.791l-12.653,7.3A1.028,1.028,0,0,1,312.756,1996.707Z" transform="translate(-311.721 -1987.336)" fill="#3a3a3a"/>
          </g>
          <g id="Grupo_136567" data-name="Grupo 136567" transform="translate(52.557 101.427)">
            <path id="Trazado_128695" data-name="Trazado 128695" d="M306.155,1987.852a1.033,1.033,0,0,1-.968-1.4l13.376-35.519a1.034,1.034,0,0,1,1.828-.209l7.582,11.386a1.034,1.034,0,1,1-1.721,1.146l-6.465-9.709-11.648,30.929,13-7.5a1.034,1.034,0,0,1,1.034,1.791l-15.5,8.947A1.033,1.033,0,0,1,306.155,1987.852Z" transform="translate(-305.121 -1950.266)" fill="#3a3a3a"/>
          </g>
          <g id="Grupo_136568" data-name="Grupo 136568" transform="translate(59.291 111.403)">
            <path id="Trazado_128696" data-name="Trazado 128696" d="M319.186,1979.3a1.034,1.034,0,0,1-.518-1.929l13.283-7.67a1.034,1.034,0,0,1,1.034,1.791l-13.284,7.671A1.033,1.033,0,0,1,319.186,1979.3Z" transform="translate(-318.151 -1969.565)" fill="#3a3a3a"/>
          </g>
          <g id="Grupo_136569" data-name="Grupo 136569" transform="translate(62.61 106.416)">
            <path id="Trazado_128697" data-name="Trazado 128697" d="M325.606,1965.819a1.034,1.034,0,0,1-.518-1.929l6.642-3.834a1.034,1.034,0,1,1,1.034,1.79l-6.642,3.835A1.029,1.029,0,0,1,325.606,1965.819Z" transform="translate(-324.571 -1959.917)" fill="#3a3a3a"/>
          </g>
          <g id="Grupo_136570" data-name="Grupo 136570" transform="translate(201.3 110.651)">
            <path id="Trazado_128698" data-name="Trazado 128698" d="M599.3,2016.705a2.518,2.518,0,0,1-1.271-.33,3.072,3.072,0,0,1-1.375-2.792v-6.76l-3.172-1.546a1.033,1.033,0,0,1-.43-1.467l3.6-5.914v-7.116a7.516,7.516,0,0,1,3.441-5.966l4.115-2.378h0l23.884-13.789a2.8,2.8,0,0,1,4.481,2.59v22.8a7.518,7.518,0,0,1-3.447,5.966l-28,16.168A3.69,3.69,0,0,1,599.3,2016.705Zm-3.892-12.79,2.733,1.332a1.034,1.034,0,0,1,.58.929v7.406a.8.8,0,0,0,1.374.8l28-16.168a5.424,5.424,0,0,0,2.414-4.175v-22.8a.805.805,0,0,0-1.382-.8l-28,16.167a5.424,5.424,0,0,0-2.409,4.176v7.407a1.033,1.033,0,0,1-.151.538Zm2.279-5.729h0Z" transform="translate(-592.901 -1968.112)" fill="#3a3a3a"/>
          </g>
          <g id="Grupo_136571" data-name="Grupo 136571" transform="translate(127.886 334.109)" style="mix-blend-mode: multiply;isolation: isolate">
            <path id="Trazado_128699" data-name="Trazado 128699" d="M450.864,2454.329c5.1,2.774,11.234-.08,15.876-2.365,9.482-4.668,18.871-9.511,28.27-14.344,8.972-4.614,18.334-8.916,26.91-14.24,3.88-2.409,7.516-5.5,9.471-9.713,1.739-3.748,1.791-7.812-1.416-10.829-2.678-2.52-7.423-3.363-10.487-1-2.35,1.814-3.917,4.322-3.58,7.145-.089.052-.224.135-.436.278-.54.363-1.083.717-1.639,1.056-3.025,1.84-6.22,3.419-9.34,5.091-6.751,3.617-33.547,18.462-40.179,22.29a84.619,84.619,0,0,1-8.7,4.928" transform="translate(-450.864 -2400.443)" fill="#d7dce0"/>
          </g>
          <g id="Grupo_136572" data-name="Grupo 136572" transform="translate(205.964 402.275)" style="mix-blend-mode: multiply;isolation: isolate">
            <path id="Trazado_128700" data-name="Trazado 128700" d="M621.237,2566.962c9.3-2.551,17.352-8.062,24.916-13.848,2.61-2,4.995-4.2,6.009-7.45a10.1,10.1,0,0,0-2.333-9.952c-4.17-4.359-10.951-3.925-16.123-1.959a97.445,97.445,0,0,0-14.355,6.938c-4.316,2.517-9.635,5.407-12.789,9.332a8.472,8.472,0,0,0-1.765,3.7c-4.742,1.508-2.784,9.229-.048,11.679" transform="translate(-601.923 -2532.326)" fill="#d7dce0"/>
          </g>
          <g id="Grupo_136573" data-name="Grupo 136573" transform="translate(230.986 410.832)">
            <path id="Trazado_128701" data-name="Trazado 128701" d="M661.876,2554.273a1.987,1.987,0,0,1-2.786,2.114l-8.167-3.727a1,1,0,0,1-.331-1.587l.124-.134a4.8,4.8,0,0,1,2.708-1.5l3.137-.553c.088.538.171,1.075.258,1.613a2.169,2.169,0,0,0,2.3,1.85c.057-.005.114-.017.165-.026a2.375,2.375,0,0,0,1.886-1.7c.021-.155.041-.3.057-.46h.005Z" transform="translate(-650.334 -2548.882)" fill="#3a3a3a"/>
          </g>
          <g id="Grupo_136574" data-name="Grupo 136574" transform="translate(235.132 389.837)">
            <path id="Trazado_128702" data-name="Trazado 128702" d="M665.669,2508.262a117.452,117.452,0,0,1-.563,22.277c-.018.155-.036.3-.057.46a2.376,2.376,0,0,1-1.887,1.7c-.052.009-.109.021-.165.026a2.169,2.169,0,0,1-2.3-1.851c-.088-.538-1.675-10.73-2.341-15.3A27.632,27.632,0,0,0,665.669,2508.262Z" transform="translate(-658.355 -2508.262)" fill="#fff"/>
          </g>
          <g id="Grupo_136575" data-name="Grupo 136575" transform="translate(214.266 342.681)">
            <path id="Trazado_128703" data-name="Trazado 128703" d="M646.165,2464.178v.005a27.633,27.633,0,0,1-7.314,7.309,27.085,27.085,0,0,1-2.574,1.556,19.05,19.05,0,0,1-18.292.874q.163-6.3.481-12.591a156.463,156.463,0,0,1,5.51-34.609,30.543,30.543,0,0,0,1.6-7.464h.005a12.767,12.767,0,0,0,18.788-2.23,41.863,41.863,0,0,1,.641,22.5,30.436,30.436,0,0,0-.393,12.885A111.56,111.56,0,0,1,646.165,2464.178Z" transform="translate(-617.985 -2417.028)" fill="#d7dce0"/>
          </g>
          <g id="Grupo_136576" data-name="Grupo 136576" transform="translate(215.615 315.895)">
            <path id="Trazado_128704" data-name="Trazado 128704" d="M626.958,2386.617a4.508,4.508,0,0,1-6.363-3.256v-.005q1.907-5.055,4.011-10.022a9.651,9.651,0,0,1,5.039-5.091,35.965,35.965,0,0,1,4.244-1.545,34.669,34.669,0,0,1,3.975-.946,36.354,36.354,0,0,1,4.859-.543,3.747,3.747,0,0,1,3.9,3.546,42.957,42.957,0,0,1-1.861,15.108,9.537,9.537,0,0,0,.181,6.094c.248.672.475,1.352.687,2.034a12.767,12.767,0,0,1-18.788,2.23h-.005a30.515,30.515,0,0,0-.191-7.034C626.751,2386.994,626.854,2386.808,626.958,2386.617Z" transform="translate(-620.595 -2365.204)" fill="#fff"/>
          </g>
          <g id="Grupo_136577" data-name="Grupo 136577" transform="translate(231.612 298.739)">
            <path id="Trazado_128705" data-name="Trazado 128705" d="M656.274,2332.012a2.926,2.926,0,0,1,1.535,2.455,3.188,3.188,0,0,1-2.109,2.843,3.06,3.06,0,0,1-1.08.2c-1.582,0-3.075-1.4-3.075-2.419a2.386,2.386,0,0,1,1.256-1.8A8.364,8.364,0,0,1,656.274,2332.012Z" transform="translate(-651.545 -2332.012)" fill="#3a3a3a"/>
          </g>
          <g id="Grupo_136578" data-name="Grupo 136578" transform="translate(224.453 298.821)">
            <path id="Trazado_128706" data-name="Trazado 128706" d="M649.2,2338.032c1.457,5.647-1.2,8.022-3.075,7.913-2.62-.589-.6-5.3-6.166-8.136,0,0-2.755-1.923-2.186-3.706.553-1.742,5.045-2.946,8.337-.734a2.386,2.386,0,0,0-1.256,1.8c0,1.018,1.494,2.419,3.075,2.419a3.038,3.038,0,0,0,1.08-.2C649.077,2337.593,649.143,2337.81,649.2,2338.032Z" transform="translate(-637.695 -2332.17)" fill="#3a3a3a"/>
          </g>
          <g id="Grupo_136579" data-name="Grupo 136579" transform="translate(225.756 304.461)">
            <path id="Trazado_128707" data-name="Trazado 128707" d="M647.343,2351.218v3.845a34.827,34.827,0,0,0-3.975.946V2351.7c-5.437,2.615-2.191-8.621-2.191-8.621C646.738,2345.914,644.722,2350.628,647.343,2351.218Z" transform="translate(-640.215 -2343.082)" fill="#fff"/>
          </g>
          <g id="Grupo_136580" data-name="Grupo 136580" transform="translate(214.09 399.575)">
            <path id="Trazado_128708" data-name="Trazado 128708" d="M622.291,2552.718a2.409,2.409,0,0,1-2.2,1.421,2.366,2.366,0,0,1-.708-.108,2.411,2.411,0,0,1-1.644-2.264c-.009-.424-.015-.843-.021-1.266-.115-7.8-.1-15.6.1-23.4a19.09,19.09,0,0,0,8.761,1.923,68.856,68.856,0,0,1-4.15,23.29A2.615,2.615,0,0,1,622.291,2552.718Z" transform="translate(-617.644 -2527.102)" fill="#fff"/>
          </g>
          <g id="Grupo_136581" data-name="Grupo 136581" transform="translate(194.046 334.052)">
            <path id="Trazado_128709" data-name="Trazado 128709" d="M606.8,2403.588c-.1.191-.206.378-.31.569a67.4,67.4,0,0,1-3.794,6.094,4.113,4.113,0,0,1-2.755,1.706,88.8,88.8,0,0,1-16.312.9,4.357,4.357,0,0,1-2.4-.812,22.375,22.375,0,0,0-2.357-1.5s2.7-1.566,2.827-1.649c.253.145.5.3.734.465a1.44,1.44,0,0,0,1.277.181q6.445-2.079,13.072-3.535a3.183,3.183,0,0,0,2.31-2.026q.659-1.83,1.349-3.655a4.508,4.508,0,0,0,6.363,3.256Z" transform="translate(-578.865 -2400.332)" fill="#fff"/>
          </g>
          <g id="Grupo_136582" data-name="Grupo 136582" transform="translate(207.184 422.974)">
            <path id="Trazado_128710" data-name="Trazado 128710" d="M613.092,2580.43l-8.26-4.5a1.051,1.051,0,0,1-.222-1.685l.134-.129a5.03,5.03,0,0,1,2.946-1.37l3.572-.377c.005.424.011.843.021,1.266a2.411,2.411,0,0,0,1.644,2.264,2.365,2.365,0,0,0,.708.109,2.415,2.415,0,0,0,2.2-1.421l.326,3.835" transform="translate(-604.283 -2572.372)" fill="#3a3a3a"/>
          </g>
          <g id="Grupo_136583" data-name="Grupo 136583" transform="translate(130.13 287.379)">
            <path id="Trazado_128711" data-name="Trazado 128711" d="M455.2,2393.888l30.743-77.064c1.954-4.895,6.365-7.872,8.885-6.425a2.861,2.861,0,0,1,.874.791l30.743,41.561c2.2,2.977-.31,9.794-4.5,12.524a8.887,8.887,0,0,0-2.843-1,1.174,1.174,0,0,0-.956,2.145c.332.158.651.325.972.507l-59.042,34.082c-1.68.972-3.117.992-4.125.336" transform="translate(-455.205 -2310.032)" fill="#fff"/>
          </g>
          <g id="Grupo_136584" data-name="Grupo 136584" transform="translate(161.607 310.034)">
            <path id="Trazado_128712" data-name="Trazado 128712" d="M524.4,2358.743v-1.917c0-2.647-1.856-3.716-4.145-2.393a9.158,9.158,0,0,0-4.145,7.179v1.917l1.359,18.685,5.525-3.189Z" transform="translate(-516.105 -2353.865)" fill="#fff"/>
          </g>
          <g id="Grupo_136585" data-name="Grupo 136585" transform="translate(161.607 338.737)">
            <path id="Trazado_128713" data-name="Trazado 128713" d="M523.155,2416.439a8.1,8.1,0,0,0,1.194-4.068,2.5,2.5,0,0,0-4.125-2.383,9,9,0,0,0-4.119,7.143,2.5,2.5,0,0,0,4.119,2.377A8.124,8.124,0,0,0,523.155,2416.439Z" transform="translate(-516.105 -2409.397)" fill="#fff"/>
          </g>
          <g id="Grupo_136586" data-name="Grupo 136586" transform="translate(192.395 341.523)">
            <path id="Trazado_128714" data-name="Trazado 128714" d="M580.15,2415.885c-.124.083-.248.16-.377.233l-2.45,1.416c-.32-.181-.639-.349-.972-.507a1.174,1.174,0,0,1,.956-2.145A8.881,8.881,0,0,1,580.15,2415.885Z" transform="translate(-575.672 -2414.788)" fill="#fff"/>
          </g>
          <g id="Grupo_136587" data-name="Grupo 136587" transform="translate(161.607 310.034)">
            <path id="Trazado_128715" data-name="Trazado 128715" d="M524.4,2356.825v1.917l-1.406,20.282-5.525,3.189-1.359-18.685v-1.917a9.158,9.158,0,0,1,4.145-7.179C522.54,2353.109,524.4,2354.178,524.4,2356.825Z" transform="translate(-516.105 -2353.865)" fill="#f6d84c"/>
          </g>
          <g id="Grupo_136588" data-name="Grupo 136588" transform="translate(121.173 282.208)">
            <path id="Trazado_128716" data-name="Trazado 128716" d="M437.875,2383.886l30.748-77.065c1.954-4.9,6.368-7.877,8.885-6.425l8.952,5.168c-2.517-1.452-6.931,1.53-8.885,6.425l-30.743,77.065" transform="translate(-437.875 -2300.028)" fill="#3a3a3a"/>
          </g>
          <g id="Grupo_136589" data-name="Grupo 136589" transform="translate(161.607 338.737)">
            <path id="Trazado_128717" data-name="Trazado 128717" d="M524.349,2412.372a8.984,8.984,0,0,1-4.125,7.138,2.5,2.5,0,0,1-4.119-2.377,9,9,0,0,1,4.119-7.143,2.5,2.5,0,0,1,4.125,2.383Z" transform="translate(-516.105 -2409.397)" fill="#f6d84c"/>
          </g>
          <g id="Grupo_136590" data-name="Grupo 136590" transform="translate(213.056 336.843)">
            <path id="Trazado_128718" data-name="Trazado 128718" d="M619.124,2496.536a3.382,3.382,0,0,1-3.385-3.383c-.007-.334-.012-.664-.017-1l0-.277c-.123-8.4-.089-16.063.1-23.441.111-4.237.273-8.481.482-12.615a157.964,157.964,0,0,1,5.547-34.839c.006-.02.012-.04.019-.06a29.778,29.778,0,0,0,1.364-14.01,1.034,1.034,0,1,1,2.046-.3,31.844,31.844,0,0,1-1.448,14.956,155.883,155.883,0,0,0-5.464,34.351c-.208,4.118-.37,8.345-.48,12.566-.193,7.349-.226,14.989-.1,23.356l0,.279c0,.327.009.652.017.98a1.342,1.342,0,0,0,2.576.554,1.593,1.593,0,0,0,.083-.242c.008-.033.018-.064.03-.1a67.624,67.624,0,0,0,4.088-22.94,1.016,1.016,0,0,1,1.037-1.03,1.034,1.034,0,0,1,1.03,1.038,69.7,69.7,0,0,1-4.2,23.6,3.569,3.569,0,0,1-.182.512A3.441,3.441,0,0,1,619.124,2496.536Z" transform="translate(-615.645 -2405.733)" fill="#3a3a3a"/>
          </g>
          <g id="Grupo_136591" data-name="Grupo 136591" transform="translate(191.359 327.627)">
            <path id="Trazado_128719" data-name="Trazado 128719" d="M584.357,2407.949q-1.644,0-3.281-.061a5.366,5.366,0,0,1-2.972-1.008,22.422,22.422,0,0,0-2.253-1.432c-.356-.2-.637-.345-.911-.475a2.209,2.209,0,0,1,1.678-4.081,9.759,9.759,0,0,1,3.073,1.1c.281.159.557.333.822.521a.409.409,0,0,0,.363.042c4.329-1.4,8.759-2.6,13.167-3.562a2.14,2.14,0,0,0,1.56-1.37c.44-1.222.892-2.448,1.354-3.668a1.034,1.034,0,0,1,1.933.733q-.687,1.813-1.343,3.638a4.2,4.2,0,0,1-3.063,2.686c-4.341.952-8.707,2.132-12.974,3.509a2.487,2.487,0,0,1-2.19-.321c-.211-.148-.422-.282-.646-.409a7.71,7.71,0,0,0-2.508-.884,1.038,1.038,0,0,1-.234-.069.142.142,0,0,0-.186.075.149.149,0,0,0,.08.186c.312.148.64.319,1.032.537a24.535,24.535,0,0,1,2.461,1.566,3.3,3.3,0,0,0,1.833.614,88.123,88.123,0,0,0,16.124-.893,3.1,3.1,0,0,0,2.059-1.275,65.911,65.911,0,0,0,3.734-6l.307-.564a69.254,69.254,0,0,0,3.9-8.52,1.034,1.034,0,0,1,1.935.73,71.375,71.375,0,0,1-4.018,8.775l-.312.573a68.054,68.054,0,0,1-3.852,6.188,5.177,5.177,0,0,1-3.446,2.137A90.308,90.308,0,0,1,584.357,2407.949Z" transform="translate(-573.667 -2387.901)" fill="#3a3a3a"/>
          </g>
          <g id="Grupo_136592" data-name="Grupo 136592" transform="translate(214.581 314.862)">
            <path id="Trazado_128720" data-name="Trazado 128720" d="M644.666,2392.059a1.034,1.034,0,0,1-.987-.728c-.222-.715-.441-1.364-.67-1.983a10.624,10.624,0,0,1-.2-6.758,41.784,41.784,0,0,0,1.816-14.744,2.725,2.725,0,0,0-2.823-2.571,36.059,36.059,0,0,0-4.724.527,35.5,35.5,0,0,0-3.862.92,36.156,36.156,0,0,0-4.125,1.5,8.585,8.585,0,0,0-4.5,4.544c-1.413,3.343-2.757,6.7-4,9.986a1.034,1.034,0,1,1-1.934-.73c1.249-3.309,2.6-6.694,4.026-10.059a10.642,10.642,0,0,1,5.578-5.635,38.11,38.11,0,0,1,4.363-1.59,37.588,37.588,0,0,1,4.087-.973,38.045,38.045,0,0,1,4.995-.558,4.8,4.8,0,0,1,4.98,4.521,43.85,43.85,0,0,1-1.905,15.471,8.542,8.542,0,0,0,.164,5.432c.241.651.471,1.334.7,2.084a1.033,1.033,0,0,1-.681,1.293A1.014,1.014,0,0,1,644.666,2392.059Z" transform="translate(-618.595 -2363.206)" fill="#3a3a3a"/>
          </g>
          <g id="Grupo_136593" data-name="Grupo 136593" transform="translate(239.353 341.647)">
            <path id="Trazado_128721" data-name="Trazado 128721" d="M669.614,2464.245a1.034,1.034,0,0,1-1.03-.954,110.8,110.8,0,0,0-1.531-11.655,31.259,31.259,0,0,1,.406-13.323,40.816,40.816,0,0,0-.625-21.947,1.034,1.034,0,1,1,1.975-.612,42.876,42.876,0,0,1,.657,23.056,29.215,29.215,0,0,0-.38,12.447,112.9,112.9,0,0,1,1.56,11.873,1.035,1.035,0,0,1-.951,1.111Z" transform="translate(-666.523 -2415.027)" fill="#3a3a3a"/>
          </g>
          <g id="Grupo_136594" data-name="Grupo 136594" transform="translate(234.098 388.804)">
            <path id="Trazado_128722" data-name="Trazado 128722" d="M661.841,2532.8a3.209,3.209,0,0,1-3.132-2.732c-.079-.479-1.666-10.672-2.344-15.311a1.034,1.034,0,0,1,2.046-.3c.676,4.629,2.26,14.8,2.339,15.282a1.143,1.143,0,0,0,1.186.987l.057-.01a1.354,1.354,0,0,0,1.075-.9c.016-.12.03-.24.044-.361a115.556,115.556,0,0,0,.559-22.081,1.034,1.034,0,0,1,2.062-.159,117.635,117.635,0,0,1-.567,22.474c-.019.161-.038.318-.059.48a1.125,1.125,0,0,1-.028.136,3.392,3.392,0,0,1-2.7,2.439c-.088.016-.174.031-.259.038S661.934,2532.8,661.841,2532.8Z" transform="translate(-656.355 -2506.263)" fill="#3a3a3a"/>
          </g>
          <g id="Grupo_136595" data-name="Grupo 136595" transform="translate(213.046 388.801)">
            <path id="Trazado_128723" data-name="Trazado 128723" d="M625.207,2519.992a20.206,20.206,0,0,1-8.79-2.02c-.075-.032-.15-.069-.225-.107a1.034,1.034,0,0,1,.934-1.845,1.229,1.229,0,0,0,.115.055l.057.026a18.015,18.015,0,0,0,17.3-.825l.057-.032a26.726,26.726,0,0,0,9.5-8.506,1.033,1.033,0,0,1,1.906.55,1.053,1.053,0,0,1-.179.587,28.609,28.609,0,0,1-7.587,7.581,28.215,28.215,0,0,1-2.643,1.6,20.047,20.047,0,0,1-10.022,2.932C625.488,2519.99,625.347,2519.992,625.207,2519.992Z" transform="translate(-615.625 -2506.257)" fill="#3a3a3a"/>
          </g>
          <g id="Grupo_136596" data-name="Grupo 136596" transform="translate(214.581 333.015)">
            <path id="Trazado_128724" data-name="Trazado 128724" d="M624.065,2404.082a5.566,5.566,0,0,1-2.529-.6,5.507,5.507,0,0,1-2.924-3.928,1.034,1.034,0,1,1,2.041-.337,3.45,3.45,0,0,0,1.827,2.425,3.5,3.5,0,0,0,3.07.047,1.034,1.034,0,1,1,.885,1.869A5.53,5.53,0,0,1,624.065,2404.082Z" transform="translate(-618.595 -2398.327)" fill="#3a3a3a"/>
          </g>
          <g id="Grupo_136597" data-name="Grupo 136597" transform="translate(220.83 341.648)">
            <path id="Trazado_128725" data-name="Trazado 128725" d="M640.11,2422.463a13.81,13.81,0,0,1-9.07-3.393,1.034,1.034,0,1,1,1.359-1.558,11.733,11.733,0,0,0,17.267-2.051,1.034,1.034,0,1,1,1.683,1.2,13.781,13.781,0,0,1-11.239,5.8Z" transform="translate(-630.685 -2415.028)" fill="#3a3a3a"/>
          </g>
          <g id="Grupo_136598" data-name="Grupo 136598" transform="translate(206.15 421.94)">
            <path id="Trazado_128726" data-name="Trazado 128726" d="M612.124,2580.5a1.031,1.031,0,0,1-.493-.125l-8.26-4.5a2.085,2.085,0,0,1-.444-3.338l.134-.129a6.088,6.088,0,0,1,3.552-1.653l3.574-.377a1.034,1.034,0,1,1,.217,2.056l-3.571.377a4.01,4.01,0,0,0-2.338,1.086l-.134.129,8.26,4.529a1.034,1.034,0,0,1-.5,1.942Z" transform="translate(-602.283 -2570.373)" fill="#3a3a3a"/>
          </g>
          <g id="Grupo_136599" data-name="Grupo 136599" transform="translate(217.688 424.003)">
            <path id="Trazado_128727" data-name="Trazado 128727" d="M625.979,2580.42a1.034,1.034,0,0,1-1.029-.946l-.341-3.99a1.034,1.034,0,1,1,2.06-.176l.341,3.99a1.034,1.034,0,0,1-.942,1.118C626.038,2580.419,626.009,2580.42,625.979,2580.42Z" transform="translate(-624.606 -2574.363)" fill="#3a3a3a"/>
          </g>
          <g id="Grupo_136600" data-name="Grupo 136600" transform="translate(229.952 409.799)">
            <path id="Trazado_128728" data-name="Trazado 128728" d="M658.944,2556.631a3.027,3.027,0,0,1-1.248-.269l-8.169-3.728a2.052,2.052,0,0,1-1.153-1.449,2.014,2.014,0,0,1,.485-1.774l.13-.14a5.854,5.854,0,0,1,3.287-1.821l3.139-.554a1.034,1.034,0,1,1,.359,2.037l-3.137.553a3.784,3.784,0,0,0-2.123,1.181l-.094.1,8.131,3.711a.953.953,0,0,0,1.336-1.015l-.641-4.109a1.034,1.034,0,1,1,2.043-.319l.641,4.109a3.025,3.025,0,0,1-1.768,3.23A3.056,3.056,0,0,1,658.944,2556.631Z" transform="translate(-648.333 -2546.882)" fill="#3a3a3a"/>
          </g>
          <g id="Grupo_136601" data-name="Grupo 136601" transform="translate(231.85 303.003)">
            <path id="Trazado_128729" data-name="Trazado 128729" d="M653.039,2354.776a1.034,1.034,0,0,1-1.034-1.034v-3.887a1.035,1.035,0,0,1,1.094-1.032,1.907,1.907,0,0,0,1.5-.8c.572-.7,1.4-2.378.51-5.826-.052-.2-.113-.4-.174-.585a1.034,1.034,0,1,1,1.967-.638c.073.227.146.464.209.707,1.117,4.334-.094,6.657-.915,7.656a4.269,4.269,0,0,1-2.128,1.427v2.976A1.034,1.034,0,0,1,653.039,2354.776Z" transform="translate(-652.005 -2340.262)" fill="#3a3a3a"/>
          </g>
          <g id="Grupo_136602" data-name="Grupo 136602" transform="translate(223.418 297.794)">
            <path id="Trazado_128730" data-name="Trazado 128730" d="M641.183,2350.852a1.034,1.034,0,0,1-1.034-1.034v-2.947a2.472,2.472,0,0,1-1.986-.532c-.546-.461-2.135-2.456-.353-9.1-.948-.808-2.587-2.534-1.99-4.407a3.835,3.835,0,0,1,2.589-2.22,8.532,8.532,0,0,1,7.31.942,1.034,1.034,0,0,1-1.154,1.716,6.385,6.385,0,0,0-5.475-.706c-.9.315-1.246.723-1.3.895-.236.741,1.052,2.024,1.795,2.546a1.037,1.037,0,0,1,.4,1.133c-.881,3.056-1.3,6.938-.486,7.623.174.147.648.063,1.236-.221a1.034,1.034,0,0,1,1.482.932v4.347A1.034,1.034,0,0,1,641.183,2350.852Z" transform="translate(-635.693 -2330.184)" fill="#3a3a3a"/>
          </g>
          <g id="Grupo_136603" data-name="Grupo 136603" transform="translate(230.578 297.705)">
            <path id="Trazado_128731" data-name="Trazado 128731" d="M653.654,2337.578c-2.035,0-4.109-1.742-4.109-3.453a3.244,3.244,0,0,1,1.707-2.652,9.458,9.458,0,0,1,3.955-1.458,1.032,1.032,0,0,1,.662.16,3.96,3.96,0,0,1,2.009,3.324,4.221,4.221,0,0,1-2.778,3.81h0A4.077,4.077,0,0,1,653.654,2337.578Zm1.39-5.451a7.55,7.55,0,0,0-2.627,1.054c-.593.405-.805.754-.805.945a2.3,2.3,0,0,0,2.042,1.385,2.04,2.04,0,0,0,.716-.135h0a2.151,2.151,0,0,0,1.439-1.875A1.8,1.8,0,0,0,655.044,2332.127Z" transform="translate(-649.545 -2330.011)" fill="#3a3a3a"/>
          </g>
          <g id="Grupo_136604" data-name="Grupo 136604" transform="translate(225.683 303.427)">
            <path id="Trazado_128732" data-name="Trazado 128732" d="M647.276,2351.284a1,1,0,0,1-.228-.025c-1.69-.38-2.127-1.869-2.514-3.183a7.007,7.007,0,0,0-3.9-5.04,1.034,1.034,0,0,1,.939-1.842,9.076,9.076,0,0,1,4.94,6.3c.378,1.287.543,1.65.984,1.749a1.033,1.033,0,0,1-.226,2.042Z" transform="translate(-640.075 -2341.081)" fill="#3a3a3a"/>
          </g>
          <g id="Grupo_136605" data-name="Grupo 136605" transform="translate(129.096 286.344)">
            <path id="Trazado_128733" data-name="Trazado 128733" d="M456.581,2401.86a3.922,3.922,0,0,1-2.156-.619,1.034,1.034,0,0,1,1.126-1.734c.732.476,1.814.348,3.044-.364.613-.354,61.229-35.352,61.855-35.723a12.024,12.024,0,0,0,4.687-7.419,4.752,4.752,0,0,0-.485-3.6l-30.743-41.561a1.841,1.841,0,0,0-.558-.509,2.5,2.5,0,0,0-2.026-.025c-1.743.607-4.083,2.677-5.384,5.936L455.2,2393.3a1.034,1.034,0,1,1-1.92-.767l30.743-77.065c1.356-3.4,3.957-6.194,6.625-7.122a4.418,4.418,0,0,1,3.735.185,3.894,3.894,0,0,1,1.188,1.071l30.744,41.562a6.641,6.641,0,0,1,.859,5.194,14.054,14.054,0,0,1-5.623,8.808c-.1.066-20.934,12.1-61.921,35.763A6.091,6.091,0,0,1,456.581,2401.86Z" transform="translate(-453.205 -2308.03)" fill="#3a3a3a"/>
          </g>
          <g id="Grupo_136606" data-name="Grupo 136606" transform="translate(160.574 308.996)">
            <path id="Trazado_128734" data-name="Trazado 128734" d="M516.5,2382.277a1.034,1.034,0,0,1-1.031-.958l-1.359-18.685q0-.038,0-.075v-1.917a10.17,10.17,0,0,1,4.662-8.075h0a3.537,3.537,0,0,1,5.7,3.289v1.917c0,.024,0,.048,0,.071l-1.406,20.282a1.032,1.032,0,0,1-.514.823l-5.525,3.189A1.031,1.031,0,0,1,516.5,2382.277Zm-.326-19.756,1.237,17,3.621-2.089,1.365-19.7v-1.881a1.535,1.535,0,0,0-2.595-1.5,8.162,8.162,0,0,0-3.629,6.285Z" transform="translate(-514.105 -2351.856)" fill="#3a3a3a"/>
          </g>
          <g id="Grupo_136607" data-name="Grupo 136607" transform="translate(160.574 337.7)">
            <path id="Trazado_128735" data-name="Trazado 128735" d="M517.394,2420.163a3.121,3.121,0,0,1-1.579-.418,3.8,3.8,0,0,1-1.71-3.582,10.021,10.021,0,0,1,4.636-8.038,3.811,3.811,0,0,1,3.963-.312c.782.452,1.712,1.441,1.712,3.589a10.007,10.007,0,0,1-4.643,8.033A4.76,4.76,0,0,1,517.394,2420.163Zm3.732-10.7a2.791,2.791,0,0,0-1.352.454,7.977,7.977,0,0,0-3.6,6.248c0,1.4.51,1.7.678,1.792h0c.168.1.678.392,1.89-.31a7.062,7.062,0,0,0,2.554-2.693,7.134,7.134,0,0,0,1.054-3.549c0-1.406-.51-1.7-.677-1.8A1.01,1.01,0,0,0,521.126,2409.461Z" transform="translate(-514.105 -2407.391)" fill="#3a3a3a"/>
          </g>
          <g id="Grupo_136608" data-name="Grupo 136608" transform="translate(120.139 281.173)">
            <path id="Trazado_128736" data-name="Trazado 128736" d="M436.909,2383.953a1.034,1.034,0,0,1-.96-1.417l30.748-77.065c1.357-3.4,3.959-6.2,6.63-7.127a4.409,4.409,0,0,1,3.732.19l8.952,5.169a1.034,1.034,0,0,1-1.034,1.791l-8.952-5.169a2.484,2.484,0,0,0-2.02-.028c-1.744.605-4.086,2.677-5.387,5.94L437.869,2383.3A1.034,1.034,0,0,1,436.909,2383.953Z" transform="translate(-435.875 -2298.025)" fill="#3a3a3a"/>
          </g>
          <g id="Grupo_136625" data-name="Grupo 136625" transform="translate(235.853 323.166)">
            <g id="Grupo_136609" data-name="Grupo 136609" transform="translate(0 94.815)" style="mix-blend-mode: multiply;isolation: isolate">
              <path id="Trazado_128737" data-name="Trazado 128737" d="M659.75,2562.713" transform="translate(-659.75 -2562.713)" fill="#d7dce0"/>
            </g>
            <g id="Grupo_136610" data-name="Grupo 136610" transform="translate(24.543 133.455)" style="mix-blend-mode: multiply;isolation: isolate">
              <path id="Trazado_128738" data-name="Trazado 128738" d="M740.286,2639.135c-4.387-2.872-12.107-1.693-16.316,1a5.287,5.287,0,0,0,.868,9.363c-.939.542-1.886,1.068-2.849,1.567a61.781,61.781,0,0,1-6.126,2.8c-2.546.984-5.691,1.755-7.51,3.913a4.11,4.11,0,0,0,1.786,6.763c4.579,1.638,10.727-1.548,14.925-3.328a67.629,67.629,0,0,0,13.513-7.442c2.193-1.6,4.178-3.471,4.819-6.22A7.845,7.845,0,0,0,740.286,2639.135Z" transform="translate(-707.234 -2637.47)" fill="#d7dce0"/>
            </g>
            <g id="Grupo_136611" data-name="Grupo 136611" transform="translate(32.562 40.896)" style="mix-blend-mode: multiply;isolation: isolate">
              <path id="Trazado_128739" data-name="Trazado 128739" d="M767.7,2473.478c-.962-4.278-4.65-6.091-8.4-7.51-3.407-1.29-6.829-2.539-10.244-3.809-3.8-1.415-7.741-3.409-11.8-3.751a5.475,5.475,0,0,0-4.88,2.89l-.334-.132c-2.168-.838-5.417-1.991-7.662-1.065a2.318,2.318,0,0,0-1.567,2.759c.719,3.277,5,5.629,7.63,7.3,3.314,2.108,6.654,4.169,10.056,6.134,5.962,3.445,14.4,9.351,21.586,6.792A8.464,8.464,0,0,0,767.7,2473.478Z" transform="translate(-722.749 -2458.394)" fill="#d7dce0"/>
            </g>
            <g id="Grupo_136612" data-name="Grupo 136612" transform="translate(24.835 1.033)">
              <path id="Trazado_128740" data-name="Trazado 128740" d="M732.1,2386.63l15.129,56.018-10.606-6.125-2.388-10.213-13.532-7.81-2.357,7.469-10.549-6.083,15.02-38.615Zm-.233,29.519-4.414-18.954-4.383,13.868Z" transform="translate(-707.799 -2381.27)" fill="#3a3a3a"/>
            </g>
            <g id="Grupo_136613" data-name="Grupo 136613" transform="translate(24.003 99.324)">
              <path id="Trazado_128741" data-name="Trazado 128741" d="M735.185,2592.428c1.106,1.075,1.659,2.853,1.659,5.318a21.472,21.472,0,0,1-3.685,12.214,32.531,32.531,0,0,1-10.916,9.733l-16.054,9.278v-45.691l14.214-8.2q7.637-4.419,11.614-3.478t3.98,7.086a17.49,17.49,0,0,1-1.406,6.869,19.644,19.644,0,0,1-4.161,6.1Q733.531,2590.813,735.185,2592.428Zm-9.242,15.294a8.439,8.439,0,0,0,1.385-4.647q0-5.706-4.915-2.9l-6.688,3.856v10.958l6.254-3.608A11.339,11.339,0,0,0,725.944,2607.722Zm-.786-17.672a8.231,8.231,0,0,0,1.328-4.574q0-2.9-1.442-3.339t-4.641,1.406l-4.678,2.7v10.575l4.972-2.868A13.016,13.016,0,0,0,725.158,2590.05Z" transform="translate(-706.189 -2571.435)" fill="#3a3a3a"/>
            </g>
            <g id="Grupo_136614" data-name="Grupo 136614" transform="translate(40.108 16.958)">
              <path id="Trazado_128742" data-name="Trazado 128742" d="M741.732,2412.08l4.414,18.954-8.8-5.086Z" transform="translate(-737.349 -2412.08)" fill="#fff"/>
            </g>
            <g id="Grupo_136615" data-name="Grupo 136615" transform="translate(33.539 127.139)">
              <path id="Trazado_128743" data-name="Trazado 128743" d="M736.243,2629.075a8.437,8.437,0,0,1-1.385,4.646,11.34,11.34,0,0,1-3.964,3.66l-6.254,3.608v-10.958l6.688-3.856Q736.243,2623.368,736.243,2629.075Z" transform="translate(-724.639 -2625.25)" fill="#fff"/>
            </g>
            <g id="Grupo_136616" data-name="Grupo 136616" transform="translate(33.539 109.94)">
              <path id="Trazado_128744" data-name="Trazado 128744" d="M735.4,2595.4a8.232,8.232,0,0,1-1.328,4.574,13.011,13.011,0,0,1-4.461,3.9l-4.972,2.869v-10.575l4.678-2.7q3.2-1.853,4.641-1.406T735.4,2595.4Z" transform="translate(-724.639 -2591.974)" fill="#fff"/>
            </g>
            <g id="Grupo_136617" data-name="Grupo 136617" transform="translate(22.969 98.289)">
              <path id="Trazado_128745" data-name="Trazado 128745" d="M705.223,2629.037a1.034,1.034,0,0,1-1.034-1.034v-45.691a1.034,1.034,0,0,1,.517-.9l14.214-8.2c5.366-3.1,9.41-4.28,12.366-3.59,3.171.741,4.778,3.465,4.778,8.093a18.574,18.574,0,0,1-1.488,7.272,20.024,20.024,0,0,1-2.6,4.4,4.708,4.708,0,0,1,2.965,1.333c1.307,1.269,1.97,3.308,1.97,6.058a22.584,22.584,0,0,1-3.86,12.789,33.687,33.687,0,0,1-11.254,10.05l-16.058,9.28A1.033,1.033,0,0,1,705.223,2629.037Zm1.034-46.127v43.3l14.5-8.381a31.653,31.653,0,0,0,10.575-9.413,20.55,20.55,0,0,0,3.51-11.638c0-2.169-.453-3.709-1.345-4.577-.83-.811-2.06-.979-3.763-.514a1.034,1.034,0,0,1-1.007-1.723,18.712,18.712,0,0,0,3.945-5.784,16.5,16.5,0,0,0,1.323-6.463c0-5.335-2.395-5.9-3.181-6.08-2.384-.556-6.039.577-10.861,3.367Z" transform="translate(-704.189 -2569.433)" fill="#3a3a3a"/>
            </g>
            <g id="Grupo_136618" data-name="Grupo 136618" transform="translate(32.505 108.905)">
              <path id="Trazado_128746" data-name="Trazado 128746" d="M723.673,2606.811a1.035,1.035,0,0,1-1.034-1.034V2595.2a1.035,1.035,0,0,1,.517-.9l4.677-2.7c2.448-1.417,4.185-1.892,5.463-1.5,1.44.441,2.171,1.9,2.171,4.327a9.27,9.27,0,0,1-1.5,5.136,14.059,14.059,0,0,1-4.8,4.231l-4.978,2.873A1.028,1.028,0,0,1,723.673,2606.811Zm1.034-11.013v8.189l3.422-1.975a12.071,12.071,0,0,0,4.109-3.568,7.241,7.241,0,0,0,1.162-4.012c0-1.355-.259-2.213-.711-2.351-.3-.094-1.286-.155-3.821,1.312Z" transform="translate(-722.639 -2589.972)" fill="#3a3a3a"/>
            </g>
            <g id="Grupo_136619" data-name="Grupo 136619" transform="translate(32.505 126.101)">
              <path id="Trazado_128747" data-name="Trazado 128747" d="M723.673,2641.053a1.034,1.034,0,0,1-1.034-1.034v-10.958a1.033,1.033,0,0,1,.517-.9l6.688-3.856c2-1.142,3.539-1.364,4.712-.683s1.754,2.15,1.754,4.478a9.5,9.5,0,0,1-1.549,5.206,12.418,12.418,0,0,1-4.314,3.994l-6.257,3.61A1.039,1.039,0,0,1,723.673,2641.053Zm1.034-11.394v8.571l4.7-2.713a10.383,10.383,0,0,0,3.61-3.321,7.371,7.371,0,0,0,1.222-4.09c0-1.443-.264-2.422-.724-2.69s-1.418-.012-2.645.688Z" transform="translate(-722.639 -2623.243)" fill="#3a3a3a"/>
            </g>
            <g id="Grupo_136620" data-name="Grupo 136620" transform="translate(23.801)">
              <path id="Trazado_128748" data-name="Trazado 128748" d="M746.265,2442.716a1.031,1.031,0,0,1-.517-.139l-10.606-6.125a1.031,1.031,0,0,1-.489-.659l-2.286-9.777-12.029-6.942-1.97,6.241a1.033,1.033,0,0,1-1.5.584l-10.549-6.083a1.032,1.032,0,0,1-.447-1.27l15.02-38.615a1.033,1.033,0,0,1,1.48-.521l9.283,5.36a1.035,1.035,0,0,1,.481.626l15.129,56.018a1.034,1.034,0,0,1-1,1.3Zm-9.7-7.83,8.051,4.649-14.365-53.189-7.87-4.544-14.261,36.665,8.665,5,1.97-6.241a1.034,1.034,0,0,1,1.5-.584l13.532,7.81a1.03,1.03,0,0,1,.489.66Z" transform="translate(-705.799 -2379.271)" fill="#3a3a3a"/>
            </g>
            <g id="Grupo_136621" data-name="Grupo 136621" transform="translate(39.075 15.922)">
              <path id="Trazado_128749" data-name="Trazado 128749" d="M745.18,2431.1a1.031,1.031,0,0,1-.517-.139l-8.8-5.085a1.034,1.034,0,0,1-.468-1.206l4.383-13.867a1.009,1.009,0,0,1,1.025-.721,1.032,1.032,0,0,1,.967.8l4.414,18.953a1.034,1.034,0,0,1-1.007,1.269Zm-7.561-6.6,6.014,3.476-3.017-12.956Z" transform="translate(-735.349 -2410.076)" fill="#3a3a3a"/>
            </g>
            <g id="Grupo_136622" data-name="Grupo 136622" transform="translate(40.46 52.301)">
              <path id="Trazado_128750" data-name="Trazado 128750" d="M739.064,2483.225a1.034,1.034,0,0,1-.466-1.958l1.385-.7a1.034,1.034,0,0,1,.93,1.846l-1.385.7A1.035,1.035,0,0,1,739.064,2483.225Z" transform="translate(-738.029 -2480.458)" fill="#3a3a3a"/>
            </g>
            <g id="Grupo_136623" data-name="Grupo 136623" transform="translate(23.608 56.493)">
              <path id="Trazado_128751" data-name="Trazado 128751" d="M752.041,2556.779a1.034,1.034,0,0,1-.534-1.919l2.294-1.381a1.034,1.034,0,0,1,1.067,1.771l-2.294,1.381A1.031,1.031,0,0,1,752.041,2556.779Zm7.8-4.695a1.034,1.034,0,0,1-.534-1.92l2.294-1.381a1.034,1.034,0,0,1,1.066,1.772l-2.294,1.381A1.03,1.03,0,0,1,759.84,2552.084Zm6.036-6.377a1.034,1.034,0,0,1-1.008-1.267,6.685,6.685,0,0,0,.171-1.5v-.079a6.679,6.679,0,0,0-.048-.723,1.034,1.034,0,1,1,2.052-.249,8.743,8.743,0,0,1,.063.952v.1a8.737,8.737,0,0,1-.224,1.966A1.034,1.034,0,0,1,765.876,2545.707Zm-3.057-8.02a1.026,1.026,0,0,1-.6-.191c-.176-.124-.36-.241-.547-.349L760,2536.19a1.034,1.034,0,0,1,1.026-1.8l1.676.958c.244.14.485.294.714.456a1.034,1.034,0,0,1-.6,1.877Zm-7.883-4.551a1.029,1.029,0,0,1-.512-.136l-2.324-1.329a1.034,1.034,0,0,1,1.026-1.795l2.324,1.33a1.034,1.034,0,0,1-.514,1.931Zm-7.9-4.52a1.026,1.026,0,0,1-.512-.136l-2.324-1.329a1.034,1.034,0,0,1,1.027-1.8l2.324,1.329a1.034,1.034,0,0,1-.514,1.931Zm-7.9-4.519a1.029,1.029,0,0,1-.512-.136l-2.324-1.329a1.034,1.034,0,1,1,1.026-1.795l2.324,1.329a1.034,1.034,0,0,1-.514,1.931Zm-7.9-4.52a1.034,1.034,0,0,1-.512-.136l-2.324-1.329a1.034,1.034,0,1,1,1.026-1.8l2.324,1.329a1.034,1.034,0,0,1-.514,1.931Zm-7.9-4.519a1.035,1.035,0,0,1-.512-.136l-2.324-1.329a1.034,1.034,0,1,1,1.026-1.795l2.324,1.329a1.034,1.034,0,0,1-.514,1.931Zm-7.9-4.519a1.03,1.03,0,0,1-.512-.136l-2.324-1.33a1.034,1.034,0,1,1,1.026-1.794l2.324,1.329a1.034,1.034,0,0,1-.514,1.931Zm-7.622-4.9a1.033,1.033,0,0,1-.79-.366,8.741,8.741,0,0,1-1.523-2.607,1.034,1.034,0,1,1,1.938-.72,6.682,6.682,0,0,0,1.163,1.992,1.034,1.034,0,0,1-.789,1.7Zm-.955-8.527a1.033,1.033,0,0,1-.916-1.51,8.725,8.725,0,0,1,1.835-2.4,1.033,1.033,0,1,1,1.4,1.52,6.674,6.674,0,0,0-1.4,1.833A1.033,1.033,0,0,1,706.849,2497.117Zm7.2-5.269a1.034,1.034,0,0,1-.468-1.956l2.388-1.211a1.034,1.034,0,0,1,.935,1.844l-2.388,1.211A1.027,1.027,0,0,1,714.045,2491.848Z" transform="translate(-705.426 -2488.57)" fill="#3a3a3a"/>
            </g>
            <g id="Grupo_136624" data-name="Grupo 136624" transform="translate(60.659 126.968)">
              <path id="Trazado_128752" data-name="Trazado 128752" d="M778.144,2627.789a1.034,1.034,0,0,1-.535-1.919l1.328-.8a1.033,1.033,0,1,1,1.068,1.77l-1.328.8A1.031,1.031,0,0,1,778.144,2627.789Z" transform="translate(-777.109 -2624.919)" fill="#3a3a3a"/>
            </g>
          </g>
          <g id="Grupo_136626" data-name="Grupo 136626" transform="translate(116.412 535.899)" style="mix-blend-mode: multiply;isolation: isolate">
            <path id="Trazado_128753" data-name="Trazado 128753" d="M494.152,2810.957a11.048,11.048,0,0,0-2.357-17.238c-4.73-2.865-11.478-2.62-16.857-2.859a7.091,7.091,0,0,0-6,3.15,7.887,7.887,0,0,0-.886.136c-3.722.811-6.822,2.954-10.393,4.053a47.61,47.61,0,0,1-14.93,1.908,15.449,15.449,0,0,1-3.375-.484,40.3,40.3,0,0,1-3.988-1.027,6.112,6.112,0,0,0-2.936-.525,3.333,3.333,0,0,0-.479.059c-.029-.008-.049-.016-.083-.023a2.189,2.189,0,0,0-2.682,1.522c-.055.4-.127.788-.2,1.181a4.471,4.471,0,0,0,.219,3.819c3.572,7.209,12.879,8.963,20.173,9.069" transform="translate(-428.665 -2790.853)" fill="#d7dce0"/>
          </g>
          <g id="Grupo_136627" data-name="Grupo 136627" transform="translate(38.07 306.951)">
            <path id="Trazado_128754" data-name="Trazado 128754" d="M283.337,2349.859c-6.637-5.015-6.059,1.031-5.873,2.29.531,3.591,3.211,6.45,5.168,8.537,5.618,5.993,2.585,6.24.4,4.618a18.74,18.74,0,0,1-4.864-5.841l-1.072,2.3c3.4,6.379,10.656,11.4,12.005,7.147,1.27-4-2.691-8.11-5.583-11.108-5.053-5.24-2.234-5.578-2.2-5.578s2.274.232,6.188,5.564l1.114-2.473A25.771,25.771,0,0,0,283.337,2349.859Z" transform="translate(-277.094 -2347.9)" fill="#3a3a3a"/>
          </g>
          <g id="Grupo_136628" data-name="Grupo 136628" transform="translate(50.763 313.853)">
            <path id="Trazado_128755" data-name="Trazado 128755" d="M316.386,2370.072a161.852,161.852,0,0,1-14.736-8.82v3.484c2.79,1.849,3.082,2.042,5.213,3.368v15c1.173.711,2.741,1.654,3.924,2.348v-15c3.01,1.711,3.324,1.89,5.6,3.1Z" transform="translate(-301.65 -2361.252)" fill="#3a3a3a"/>
          </g>
          <g id="Grupo_136629" data-name="Grupo 136629" transform="translate(67.726 323.832)">
            <path id="Trazado_128756" data-name="Trazado 128756" d="M338.7,2392.577v-6.442c5.658,2.653,5.658,2.653,6.657,3.963,1.175,1.542,1.325,4.052-.126,4.605-1.015.387-2.463-.248-3.009-.487C341.162,2393.727,339.751,2393.077,338.7,2392.577Zm3.765-8.178c-2.427-1.117-4.718-2.171-7.993-3.84v18.48c1.265.634,2.955,1.474,4.228,2.091v-5.147c1.128.529,3.98,1.846,3.98,1.846,1.1,2.028,2.565,4.731,3.677,6.753,1.447.6,3.381,1.393,4.836,1.975-1.317-2.311-3.068-5.4-4.369-7.718,5.459-.078,5.081-6.878.719-11.09A18.1,18.1,0,0,0,342.463,2384.4Z" transform="translate(-334.47 -2380.559)" fill="#3a3a3a"/>
          </g>
          <g id="Grupo_136630" data-name="Grupo 136630" transform="translate(87.708 332.598)">
            <path id="Trazado_128757" data-name="Trazado 128757" d="M388.723,2402.658c-4.13-1.221-8.4-2.484-15.593-5.138V2416c4.15,1.515,8.07,2.946,15.986,5.251v-3.43c-5.14-1.51-6.412-1.912-11.344-3.583v-4.277c3.307,1.12,5.3,1.8,9.648,3.089v-3.327c-3.393-1.026-5.442-1.645-9.648-3.089v-4.016c4.635,1.569,5.977,2,10.951,3.469Z" transform="translate(-373.13 -2397.52)" fill="#3a3a3a"/>
          </g>
          <g id="Grupo_136631" data-name="Grupo 136631" transform="translate(127.281 442.926)">
            <path id="Trazado_128758" data-name="Trazado 128758" d="M535.568,2690.217a14.521,14.521,0,0,1-19.853-.284l-29.094-27.978v-7.546c0-3.773-2.491-7.546-7.479-10.42a28.912,28.912,0,0,0-5.742-2.491,39.771,39.771,0,0,0-9.883-1.763L450.46,2627.18A11.981,11.981,0,0,1,468.344,2613l.15-.176,66.562,55.413" transform="translate(-449.692 -2610.975)" fill="#d7dce0"/>
          </g>
          <g id="Grupo_136632" data-name="Grupo 136632" transform="translate(149.876 536.108)">
            <path id="Trazado_128759" data-name="Trazado 128759" d="M494.364,2805.662a10.112,10.112,0,1,1,9.154,5.82" transform="translate(-493.408 -2791.257)" fill="#fff"/>
          </g>
          <g id="Grupo_136633" data-name="Grupo 136633" transform="translate(113.142 486.36)">
            <path id="Trazado_128760" data-name="Trazado 128760" d="M460.023,2759.161c-9.676,3.024-22.029,2.176-30.206-2.548-4.988-2.879-7.479-6.652-7.479-10.425v-51.18c0,3.773,2.491,7.546,7.479,10.425,9.97,5.758,26.138,5.758,36.108,0a17.384,17.384,0,0,0,5.525-4.76l1.954,1.881v43.122a10.114,10.114,0,0,0-13.376,13.485" transform="translate(-422.338 -2695.007)" fill="#d7dce0"/>
          </g>
          <g id="Grupo_136634" data-name="Grupo 136634" transform="translate(162.255 486.36)">
            <path id="Trazado_128761" data-name="Trazado 128761" d="M519.312,2695.007v7.546l-1.954-1.881A9.649,9.649,0,0,0,519.312,2695.007Z" transform="translate(-517.358 -2695.007)" fill="#fff"/>
          </g>
          <g id="Grupo_136635" data-name="Grupo 136635" transform="translate(138.709 473.448)">
            <path id="Trazado_128762" data-name="Trazado 128762" d="M497.3,2682.938a9.649,9.649,0,0,1-1.954,5.665,17.389,17.389,0,0,1-5.525,4.76L471.8,2682.938l12.278-12.911a28.956,28.956,0,0,1,5.742,2.491C494.811,2675.392,497.3,2679.165,497.3,2682.938Z" transform="translate(-471.803 -2670.027)" fill="#f6d84c"/>
          </g>
          <g id="Grupo_136636" data-name="Grupo 136636" transform="translate(113.142 471.619)">
            <path id="Trazado_128763" data-name="Trazado 128763" d="M447.9,2681.228l18.021,10.425c-9.97,5.758-26.138,5.758-36.108,0-4.988-2.879-7.479-6.652-7.479-10.425s2.491-7.546,7.479-10.42c5-2.889,11.529-4.326,18.088-4.321Z" transform="translate(-422.338 -2666.487)" fill="#fff"/>
          </g>
          <g id="Grupo_136637" data-name="Grupo 136637" transform="translate(138.709 471.619)">
            <path id="Trazado_128764" data-name="Trazado 128764" d="M484.081,2668.317,471.8,2681.228v-14.741c.791,0,1.61.026,2.4.067A39.794,39.794,0,0,1,484.081,2668.317Z" transform="translate(-471.803 -2666.487)" fill="#3a3a3a"/>
          </g>
          <g id="Grupo_136638" data-name="Grupo 136638" transform="translate(119.458 435.147)">
            <path id="Trazado_128765" data-name="Trazado 128765" d="M461.181,2605.555l-.15.176a11.981,11.981,0,0,0-17.884,14.178l-5.195-4.988a12.34,12.34,0,0,1-1.158-1.3c-.094-.123-.181-.247-.269-.372a11.044,11.044,0,0,1,13.082-16.576,10.841,10.841,0,0,1,3.07,1.8Z" transform="translate(-434.557 -2595.924)" fill="#3a3a3a"/>
          </g>
          <g id="Grupo_136639" data-name="Grupo 136639" transform="translate(19.119 303.506)">
            <path id="Trazado_128766" data-name="Trazado 128766" d="M359.261,2452.518c0,1.354-.031,2.688-.109,3.979a56.732,56.732,0,0,1-3.334,17.129,11.044,11.044,0,0,0-13.082,16.576l-.739.765a1.629,1.629,0,0,1-.176.108l-17.02,9.815c10.311-6.414,16.659-19.568,16.659-38.088,0-37.984-26.67-84.167-59.559-103.161-16.121-9.3-30.748-10.353-41.473-4.528l17.165-9.918c10.777-6.218,25.668-5.324,42.109,4.176a102.487,102.487,0,0,1,23.342,18.948v.01C344.339,2391.1,359.261,2424.105,359.261,2452.518Z" transform="translate(-240.428 -2341.235)" fill="#fff"/>
          </g>
          <g id="Grupo_136640" data-name="Grupo 136640" transform="translate(1.034 313.782)">
            <path id="Trazado_128767" data-name="Trazado 128767" d="M307.757,2510.574c-10.823,6.647-25.978,5.9-42.76-3.783-2.145-1.235-4.264-2.595-6.342-4.047v-1.158c0-.853.549-2.149-.212-2.559-6.872-3.7-7.513-7.165-15.1-11.511-3.572-2.067-5.336-7.809-9.636-9.023-12.208-15.77-21.481-34.8-25.724-53.439a96.723,96.723,0,0,1-2.548-21.419c0-19,6.668-32.34,17.449-38.553l.636-.362c10.725-5.825,25.352-4.776,41.473,4.528,32.888,18.995,59.559,65.177,59.559,103.162,0,18.519-6.347,31.674-16.659,38.088Zm-65.9-133.129c-14.245,1.091-23.853,13.2-23.853,33.441,0,29.973,21.042,66.412,46.994,81.391,17.548,10.141,32.852,7.867,40.91-3.939,3.871-5.649,6.078-13.48,6.078-23.186,0-29.973-21.042-66.413-46.988-81.391C256.582,2378.907,248.679,2376.9,241.856,2377.444Z" transform="translate(-205.438 -2361.116)" fill="#fff"/>
          </g>
          <g id="Grupo_136641" data-name="Grupo 136641" transform="translate(13.599 330.111)">
            <path id="Trazado_128768" data-name="Trazado 128768" d="M294.542,2497.269c8.4,4.848,16.286,6.859,23.109,6.332-8.058,11.805-23.362,14.08-40.91,3.938-25.952-14.979-46.994-51.418-46.994-81.391,0-20.246,9.609-32.351,23.853-33.441-3.851,5.66-6.047,13.48-6.047,23.166C247.554,2445.846,268.591,2482.285,294.542,2497.269Z" transform="translate(-229.748 -2392.707)" fill="#3a3a3a"/>
          </g>
          <g id="Grupo_136642" data-name="Grupo 136642" transform="translate(53.175 454.345)">
            <path id="Trazado_128769" data-name="Trazado 128769" d="M340.335,2647.382c-8.327,0-17.547-2.785-27.117-8.308-2.372-1.366-4.671-2.9-6.408-4.089-.014-.01-.041-.028-.06-.044a1.034,1.034,0,0,1,1.169-1.7c.025.017.071.05.095.068,1.669,1.138,3.925,2.646,6.238,3.979,15.921,9.189,30.731,10.537,41.7,3.8a1.033,1.033,0,1,1,1.081,1.761A31.438,31.438,0,0,1,340.335,2647.382Z" transform="translate(-306.318 -2633.067)" fill="#3a3a3a"/>
          </g>
          <g id="Grupo_136643" data-name="Grupo 136643" transform="translate(0 316.713)">
            <path id="Trazado_128770" data-name="Trazado 128770" d="M232.745,2482.265a1.034,1.034,0,0,1-.818-.4c-12.477-16.116-21.68-35.238-25.915-53.842a97.781,97.781,0,0,1-2.574-21.649c0-18.763,6.381-32.773,17.967-39.449a1.034,1.034,0,1,1,1.032,1.791c-10.918,6.292-16.932,19.665-16.932,37.658a95.732,95.732,0,0,0,2.522,21.189c4.17,18.318,13.238,37.153,25.534,53.036a1.034,1.034,0,0,1-.817,1.667Z" transform="translate(-203.438 -2366.786)" fill="#3a3a3a"/>
          </g>
          <g id="Grupo_136644" data-name="Grupo 136644" transform="translate(18.085 312.735)">
            <path id="Trazado_128771" data-name="Trazado 128771" d="M323.836,2510.551a1.034,1.034,0,0,1-.547-1.911c10.428-6.487,16.171-19.7,16.171-37.21,0-37.588-26.486-83.464-59.042-102.267-15.249-8.8-29.619-10.4-40.463-4.514a1.034,1.034,0,0,1-.987-1.817c11.5-6.245,26.588-4.633,42.483,4.541,33.126,19.133,60.076,65.813,60.076,104.058,0,18.248-6.089,32.087-17.146,38.965A1.032,1.032,0,0,1,323.836,2510.551Z" transform="translate(-238.427 -2359.09)" fill="#3a3a3a"/>
          </g>
          <g id="Grupo_136645" data-name="Grupo 136645" transform="translate(12.565 328.994)">
            <path id="Trazado_128772" data-name="Trazado 128772" d="M296.792,2513.935c-6.6,0-13.952-2.163-21.534-6.545-26.2-15.12-47.51-52.033-47.51-82.286,0-20.063,9.505-33.272,24.807-34.472h0c7.228-.565,15.437,1.665,23.737,6.451,26.195,15.122,47.506,52.036,47.506,82.286,0,9.564-2.164,17.784-6.259,23.771A24.188,24.188,0,0,1,296.792,2513.935Zm-44.076-121.241h0a22.062,22.062,0,0,0-16.515,9.129c-4.177,5.682-6.385,13.733-6.385,23.282,0,29.594,20.849,65.7,46.477,80.5,16.384,9.468,31.535,8.078,39.54-3.627,3.858-5.642,5.9-13.457,5.9-22.6,0-29.592-20.847-65.7-46.472-80.5C267.321,2394.3,259.523,2392.158,252.716,2392.694Z" transform="translate(-227.748 -2390.546)" fill="#3a3a3a"/>
          </g>
          <g id="Grupo_136646" data-name="Grupo 136646" transform="translate(30.371 329.051)">
            <path id="Trazado_128773" data-name="Trazado 128773" d="M331.214,2503.725c-6.657,0-14.042-2.242-21.51-6.551-26.195-15.124-47.505-52.04-47.505-82.292,0-9.548,2.153-17.76,6.227-23.747.008-.012.017-.025.026-.037a1.1,1.1,0,0,1,.4-.336,1.034,1.034,0,0,1,1.263,1.572c-3.823,5.64-5.844,13.436-5.844,22.549,0,29.593,20.847,65.706,46.471,80.5,7.937,4.579,15.724,6.722,22.513,6.2a1.044,1.044,0,0,1,1.119,1.031,1.03,1.03,0,0,1-.99,1.033Q332.31,2503.724,331.214,2503.725Z" transform="translate(-262.198 -2390.656)" fill="#3a3a3a"/>
          </g>
          <g id="Grupo_136647" data-name="Grupo 136647" transform="translate(17.449 302.448)">
            <path id="Trazado_128774" data-name="Trazado 128774" d="M354.257,2473.671a1.035,1.035,0,0,1-.968-1.4,55.744,55.744,0,0,0,3.269-16.817c.073-1.207.108-2.489.108-3.929,0-27.366-14.107-60.134-35.938-83.481a.937.937,0,0,1-.078-.094,100.9,100.9,0,0,0-23.024-18.676c-15.568-9-30.156-10.478-41.077-4.177l-17.8,10.28a1.034,1.034,0,1,1-1.034-1.79l17.8-10.281c11.589-6.687,26.91-5.2,43.143,4.176a103.021,103.021,0,0,1,23.58,19.137,1.117,1.117,0,0,1,.078.094c22.127,23.7,36.417,56.979,36.417,84.809,0,1.481-.036,2.8-.11,4.042a57.8,57.8,0,0,1-3.4,17.431A1.034,1.034,0,0,1,354.257,2473.671Z" transform="translate(-237.198 -2339.188)" fill="#3a3a3a"/>
          </g>
          <g id="Grupo_136648" data-name="Grupo 136648" transform="translate(101.663 452.205)">
            <path id="Trazado_128775" data-name="Trazado 128775" d="M401.163,2641.378a1.034,1.034,0,0,1-.517-1.929l17.816-10.275a.978.978,0,0,0,.085-.05,1.034,1.034,0,0,1,1.215,1.674,2.613,2.613,0,0,1-.292.181l-17.791,10.261A1.027,1.027,0,0,1,401.163,2641.378Z" transform="translate(-400.128 -2628.927)" fill="#3a3a3a"/>
          </g>
          <g id="Grupo_136649" data-name="Grupo 136649" transform="translate(118.423 434.106)">
            <path id="Trazado_128776" data-name="Trazado 128776" d="M526.775,2661.029a1.031,1.031,0,0,1-.661-.239L451.05,2598.3a10.013,10.013,0,0,0-14.644,13.384c.08.113.16.227.246.34a11.227,11.227,0,0,0,1.061,1.188l18.241,17.533a1.034,1.034,0,0,1-1.433,1.491l-18.251-17.543a13.357,13.357,0,0,1-1.265-1.417c-.1-.134-.2-.269-.291-.4a12.081,12.081,0,0,1,17.66-16.161l75.063,62.487a1.034,1.034,0,0,1-.662,1.829Z" transform="translate(-432.555 -2593.911)" fill="#3a3a3a"/>
          </g>
          <g id="Grupo_136650" data-name="Grupo 136650" transform="translate(161.221 490.99)">
            <path id="Trazado_128777" data-name="Trazado 128777" d="M557.52,2739.948a15.518,15.518,0,0,1-10.8-4.344l-31.047-29.859a1.034,1.034,0,0,1,1.433-1.49l31.048,29.86a13.516,13.516,0,0,0,18.441.265,1.033,1.033,0,1,1,1.391,1.528A15.51,15.51,0,0,1,557.52,2739.948Z" transform="translate(-515.358 -2703.966)" fill="#3a3a3a"/>
          </g>
          <g id="Grupo_136651" data-name="Grupo 136651" transform="translate(126.235 441.886)">
            <path id="Trazado_128778" data-name="Trazado 128778" d="M449.482,2627.242a1.033,1.033,0,0,1-.967-.669,13.015,13.015,0,0,1,19.427-15.4,1.034,1.034,0,0,1-1.153,1.717,10.948,10.948,0,0,0-16.34,12.954,1.033,1.033,0,0,1-.6,1.332A1.021,1.021,0,0,1,449.482,2627.242Z" transform="translate(-447.668 -2608.962)" fill="#3a3a3a"/>
          </g>
          <g id="Grupo_136652" data-name="Grupo 136652" transform="translate(148.842 535.074)">
            <path id="Trazado_128779" data-name="Trazado 128779" d="M502.552,2811.55a1.034,1.034,0,0,1,0-2.068,9.079,9.079,0,1,0-9.076-9.081,8.981,8.981,0,0,0,.858,3.855,1.034,1.034,0,1,1-1.871.881,11.033,11.033,0,0,1-1.054-4.736,11.146,11.146,0,1,1,11.144,11.149Z" transform="translate(-491.408 -2789.257)" fill="#3a3a3a"/>
          </g>
          <g id="Grupo_136653" data-name="Grupo 136653" transform="translate(112.108 470.585)">
            <path id="Trazado_128780" data-name="Trazado 128780" d="M446.9,2696.015c-6.726,0-13.449-1.477-18.567-4.433-5.156-2.976-8-7-8-11.32s2.84-8.345,8-11.316c4.98-2.875,11.58-4.459,18.587-4.459h.018c.772,0,1.6.023,2.45.069a40.68,40.68,0,0,1,10.14,1.809,30.271,30.271,0,0,1,5.946,2.581c5.156,2.971,8,6.99,8,11.316a10.615,10.615,0,0,1-2.149,6.269,18.411,18.411,0,0,1-5.848,5.052C460.353,2694.537,453.626,2696.015,446.9,2696.015Zm.021-29.46c-6.65,0-12.883,1.485-17.554,4.182-4.49,2.587-6.962,5.97-6.962,9.525s2.473,6.939,6.962,9.53c9.665,5.582,25.4,5.582,35.075,0h0a16.37,16.37,0,0,0,5.2-4.468,8.594,8.594,0,0,0,1.759-5.061c0-3.555-2.473-6.938-6.962-9.525a28.168,28.168,0,0,0-5.539-2.4,38.62,38.62,0,0,0-9.625-1.716c-.817-.043-1.6-.066-2.34-.066Z" transform="translate(-420.338 -2664.487)" fill="#3a3a3a"/>
          </g>
          <g id="Grupo_136654" data-name="Grupo 136654" transform="translate(163.175 485.326)">
            <path id="Trazado_128781" data-name="Trazado 128781" d="M520.172,2745.743a1.033,1.033,0,0,1-1.034-1.034v-50.668a1.034,1.034,0,1,1,2.068,0v50.668A1.034,1.034,0,0,1,520.172,2745.743Z" transform="translate(-519.138 -2693.007)" fill="#3a3a3a"/>
          </g>
          <g id="Grupo_136655" data-name="Grupo 136655" transform="translate(112.108 485.326)">
            <path id="Trazado_128782" data-name="Trazado 128782" d="M446.879,2761.02c-6.774,0-13.449-1.535-18.546-4.479-5.156-2.976-8-7-8-11.32v-51.18a1.034,1.034,0,1,1,2.067,0v51.18c0,3.554,2.473,6.938,6.962,9.53,7.7,4.447,19.779,5.457,29.38,2.457a1.034,1.034,0,0,1,.617,1.973A42.207,42.207,0,0,1,446.879,2761.02Z" transform="translate(-420.338 -2693.007)" fill="#3a3a3a"/>
          </g>
          <g id="Grupo_136656" data-name="Grupo 136656" transform="translate(137.675 470.585)">
            <path id="Trazado_128783" data-name="Trazado 128783" d="M488.856,2691.721a1.025,1.025,0,0,1-.516-.139l-18.021-10.425a1.033,1.033,0,0,1-.516-.895v-14.741a1.034,1.034,0,1,1,2.067,0v14.145l17.5,10.126a1.034,1.034,0,0,1-.518,1.929Z" transform="translate(-469.803 -2664.487)" fill="#3a3a3a"/>
          </g>
          <g id="Grupo_136657" data-name="Grupo 136657" transform="translate(137.675 472.414)">
            <path id="Trazado_128784" data-name="Trazado 128784" d="M470.836,2683.005a1.033,1.033,0,0,1-.748-1.746l12.278-12.911a1.034,1.034,0,0,1,1.5,1.424l-12.278,12.911A1.029,1.029,0,0,1,470.836,2683.005Z" transform="translate(-469.803 -2668.027)" fill="#3a3a3a"/>
          </g>
        </g>
      </g>
    </g>
  </g>
</svg>
