<svg xmlns="http://www.w3.org/2000/svg" xmlns:xlink="http://www.w3.org/1999/xlink" width="577.434" height="814.913" viewBox="0 0 577.434 814.913">
  <defs>
    <clipPath id="clip-path">
      <path id="Trazado_128425" data-name="Trazado 128425" d="M0-117.065H577.434V697.848H0Z" fill="none"/>
    </clipPath>
  </defs>
  <g id="Enmascarar_grupo_1" data-name="Enmascarar grupo 1" transform="translate(0 117.065)" clip-path="url(#clip-path)">
    <g id="Grupo_80283" data-name="Grupo 80283" transform="translate(-83.614 -120.916)">
      <rect id="Rectángulo_33808" data-name="Rectángulo 33808" width="475.945" height="668.246" transform="translate(0 231.502) rotate(-29.105)" fill="none"/>
      <path id="Trazado_115025" data-name="Trazado 115025" d="M6419.916,4644.925q-.6-5.05-1.194-10.085a10.063,10.063,0,0,0,.092-1.527,164.154,164.154,0,0,1-.188-27.256c3.422-43.885,19.839-82.225,50.484-113.862,36.593-37.743,81.66-56.24,134.225-56.068a173.194,173.194,0,0,1,62.146,11.939,180.816,180.816,0,0,1,86.942,69.347c5.572,8.292,9.9,17.266,14.629,26.028a354.525,354.525,0,0,0,41.451,60.047,333.193,333.193,0,0,0,74.374,66.428,245.283,245.283,0,0,0,87.951,35.611,182.632,182.632,0,0,1,148.031,150.016,172.659,172.659,0,0,1,1.692,45.5,182.372,182.372,0,0,1-150.31,163.724,170.97,170.97,0,0,1-60.556.306,589.137,589.137,0,0,1-115.663-32.733c-78.049-30.824-146.793-76.135-207.68-133.631a730.772,730.772,0,0,1-81.416-91.075,673.651,673.651,0,0,1-68.243-109.246,176.868,176.868,0,0,1-15.051-44.953c-.548-2.834-1.131-5.677-1.7-8.512Z" transform="matrix(-0.438, -0.899, 0.899, -0.438, -935.258, 8574.672)" fill="#64b5f6"/>
      <g id="Sparkles" transform="translate(206.399 129.144)">
        <path id="Trazado_115026" data-name="Trazado 115026" d="M6506.2,4627.033l-2.191.6a.468.468,0,0,1-.575-.322v-.011a.45.45,0,0,1,.131-.467l1.663-1.547a2.451,2.451,0,0,0,.694-2.438l-.6-2.19a.468.468,0,0,1,.322-.576l.013,0a.452.452,0,0,1,.466.134l1.548,1.662a2.442,2.442,0,0,0,2.438.694l2.19-.6a.467.467,0,0,1,.576.322v.011a.452.452,0,0,1-.131.468l-1.661,1.546a2.449,2.449,0,0,0-.7,2.439l.6,2.19a.465.465,0,0,1-.322.575l-.011,0a.448.448,0,0,1-.467-.135l-1.547-1.661A2.447,2.447,0,0,0,6506.2,4627.033Z" transform="translate(-6408.689 -4280.643)" fill="#3a3a3a"/>
        <path id="Trazado_115027" data-name="Trazado 115027" d="M6478.073,4469.927l-2.925.8a.633.633,0,0,1-.779-.438.643.643,0,0,1,.182-.632l2.224-2.066a3.274,3.274,0,0,0,.931-3.269l-.8-2.925a.64.64,0,0,1,1.083-.6l2.063,2.225a3.276,3.276,0,0,0,3.27.931l2.926-.8a.63.63,0,0,1,.777.438.644.644,0,0,1-.179.635l-2.225,2.063a3.282,3.282,0,0,0-.933,3.271l.806,2.926a.638.638,0,0,1-.452.782.631.631,0,0,1-.631-.181l-2.065-2.224A3.278,3.278,0,0,0,6478.073,4469.927Z" transform="translate(-6430.186 -4398.576)" fill="#3a3a3a"/>
        <path id="Trazado_115028" data-name="Trazado 115028" d="M6451.041,4552.375l-1.629.446a.351.351,0,0,1-.437-.242.361.361,0,0,1,.1-.357l1.241-1.149a1.827,1.827,0,0,0,.517-1.817l-.448-1.628a.354.354,0,0,1,.6-.337l1.148,1.24a1.831,1.831,0,0,0,1.819.518l1.628-.447a.353.353,0,0,1,.438.242.356.356,0,0,1-.1.358l-1.238,1.149a1.82,1.82,0,0,0-.519,1.816l.447,1.631a.351.351,0,0,1-.244.435.354.354,0,0,1-.356-.1l-1.149-1.241A1.827,1.827,0,0,0,6451.041,4552.375Z" transform="translate(-6448.961 -4334.542)" fill="#3a3a3a"/>
        <path id="Trazado_115029" data-name="Trazado 115029" d="M6570.97,4430.485l-1.742.478a.376.376,0,0,1-.464-.264l0,0a.379.379,0,0,1,.106-.378l1.325-1.227a1.944,1.944,0,0,0,.55-1.934l-.477-1.743a.38.38,0,0,1,.266-.464.4.4,0,0,1,.377.106l1.229,1.325a1.946,1.946,0,0,0,1.932.549l1.742-.479a.381.381,0,0,1,.464.265h0a.377.377,0,0,1-.106.378l-1.325,1.229a1.945,1.945,0,0,0-.55,1.933l.479,1.743a.381.381,0,0,1-.264.462.408.408,0,0,1-.379-.105l-1.227-1.324A1.941,1.941,0,0,0,6570.97,4430.485Z" transform="translate(-6360.373 -4424.941)" fill="#3a3a3a"/>
        <path id="Trazado_115030" data-name="Trazado 115030" d="M6471.235,4595.392l-2.7.74a.586.586,0,0,1-.554-.992l2.053-1.906a3.023,3.023,0,0,0,.858-3.011l-.74-2.7a.585.585,0,0,1,.992-.554l1.906,2.051a3.014,3.014,0,0,0,3.01.856l2.7-.737a.583.583,0,0,1,.552.99l-2.051,1.907a3.01,3.01,0,0,0-.856,3.011l.736,2.7a.584.584,0,0,1-.99.553l-1.9-2.05A3.024,3.024,0,0,0,6471.235,4595.392Z" transform="translate(-6435.035 -4305.25)" fill="#3a3a3a"/>
      </g>
      <g id="Circles" transform="translate(183.371 125.877)">
        <circle id="Elipse_4731" data-name="Elipse 4731" cx="10.045" cy="10.045" r="10.045" transform="translate(1.602 202.103)" fill="#3a3a3a"/>
        <g id="Grupo_80272" data-name="Grupo 80272" transform="translate(0 204.821)">
          <circle id="Elipse_4732" data-name="Elipse 4732" cx="8.93" cy="8.93" r="8.93" transform="translate(1.122 1.122)" fill="#fff"/>
          <path id="Trazado_115031" data-name="Trazado 115031" d="M6447.736,4558.426a7.82,7.82,0,1,0-9.536-5.6,7.824,7.824,0,0,0,9.536,5.6m.563,2.163a8.246,8.246,0,1,1,.007,0h-.007Z" transform="translate(-6435.724 -4540.806)" fill="#3a3a3a"/>
        </g>
        <circle id="Elipse_4733" data-name="Elipse 4733" cx="10.045" cy="10.045" r="10.045" transform="translate(280.26 2.996)" fill="#3a3a3a"/>
        <g id="Grupo_80273" data-name="Grupo 80273" transform="translate(281.282)">
          <circle id="Elipse_4734" data-name="Elipse 4734" cx="8.93" cy="8.93" r="8.93" transform="translate(1.119 1.128)" fill="#fff"/>
          <path id="Trazado_115032" data-name="Trazado 115032" d="M6604.07,4426.082a8.135,8.135,0,1,0,.016-.007l-.016.007m-.977-2.011a10.369,10.369,0,1,1-.021.011l.015-.006Z" transform="translate(-6597.421 -4423.064)" fill="#3a3a3a"/>
        </g>
        <circle id="Elipse_4735" data-name="Elipse 4735" cx="7.365" cy="7.365" r="7.365" transform="translate(332.266 97.556)" fill="#3a3a3a"/>
        <g id="Grupo_80274" data-name="Grupo 80274" transform="translate(332.188 95.245)">
          <circle id="Elipse_4736" data-name="Elipse 4736" cx="6.545" cy="6.545" r="6.545" transform="translate(0.822 0.815)" fill="#fff"/>
          <path id="Trazado_115033" data-name="Trazado 115033" d="M6629.869,4481.257a5.724,5.724,0,1,0,8.092-.255h0a5.718,5.718,0,0,0-8.086.252l0,0m-1.193-1.116a7.361,7.361,0,1,1,.334,10.405,7.364,7.364,0,0,1-.334-10.405Z" transform="translate(-6626.685 -4477.817)" fill="#3a3a3a"/>
        </g>
        <circle id="Elipse_4737" data-name="Elipse 4737" cx="6.831" cy="6.831" r="6.831" transform="translate(230.282 536.364)" fill="#3a3a3a"/>
        <g id="Grupo_80275" data-name="Grupo 80275" transform="translate(230.978 534.333)">
          <circle id="Elipse_4738" data-name="Elipse 4738" cx="6.077" cy="6.077" r="6.077" transform="translate(0.753 0.76)" fill="#fff"/>
          <path id="Trazado_115034" data-name="Trazado 115034" d="M6573.021,4732.284a5.316,5.316,0,1,0,7.1,2.466,5.315,5.315,0,0,0-7.1-2.466m-.662-1.368a6.836,6.836,0,1,1-3.169,9.135,6.837,6.837,0,0,1,3.169-9.135Z" transform="translate(-6568.503 -4730.229)" fill="#3a3a3a"/>
        </g>
        <circle id="Elipse_4739" data-name="Elipse 4739" cx="6.983" cy="6.983" r="6.983" transform="translate(119.158 20.779)" fill="#fff" stroke="#3a3a3a" stroke-linecap="round" stroke-miterlimit="10" stroke-width="1.17"/>
      </g>
      <g id="Grupo_80276" data-name="Grupo 80276" transform="translate(558.825 309.04)">
        <path id="Trazado_115035" data-name="Trazado 115035" d="M6731.9,4572.729c.571-.949.615-1.2-1.6-2.817-1.727-1.259-4.924-3.587-2.55-7.545,1.853-3.094,5.533-4.457,9.1-5.776,3.12-1.159,6.07-2.255,7.273-4.268a1.781,1.781,0,1,1,3.116,1.727c-.017.032-.038.066-.057.1-1.854,3.1-5.534,4.457-9.1,5.777-3.12,1.158-6.07,2.255-7.275,4.267-.572.952-.615,1.208,1.6,2.82,1.725,1.256,4.923,3.585,2.548,7.544-1.841,3.087-5.533,4.455-9.1,5.785-3.122,1.16-6.08,2.259-7.285,4.271-.57.949-.615,1.206,1.6,2.818,1.726,1.257,4.923,3.586,2.566,7.534-1.853,3.095-5.54,4.459-9.109,5.782-3.12,1.158-6.071,2.254-7.278,4.259-.573.95-.612,1.213,1.605,2.826,1.727,1.258,4.925,3.587,2.569,7.534a10.132,10.132,0,0,1-3.933,3.566,37.454,37.454,0,0,1-5.178,2.214c-3.12,1.16-6.069,2.255-7.28,4.26a1.782,1.782,0,0,1-3.053-1.838c1.858-3.086,5.534-4.455,9.094-5.771,3.12-1.159,6.082-2.252,7.284-4.272.57-.95.611-1.213-1.608-2.827-1.726-1.258-4.924-3.587-2.555-7.554,1.858-3.086,5.534-4.454,9.095-5.771,3.119-1.158,6.082-2.251,7.282-4.272.572-.95.616-1.205-1.6-2.818-1.725-1.257-4.924-3.587-2.566-7.533,1.852-3.095,5.532-4.457,9.1-5.783,3.121-1.162,6.07-2.256,7.274-4.271Z" transform="translate(-6685.51 -4511.312)" fill="#fef536"/>
        <path id="Trazado_115036" data-name="Trazado 115036" d="M6712.465,4559.645c1.854-3.095,5.534-4.454,9.1-5.783,3.121-1.16,6.07-2.255,7.276-4.27.571-.95.614-1.205-1.6-2.818-1.726-1.257-4.924-3.587-2.548-7.545,1.852-3.094,5.533-4.456,9.095-5.783,3.122-1.159,6.071-2.255,7.274-4.269a1.782,1.782,0,0,1,3.059,1.826c-1.854,3.1-5.534,4.455-9.095,5.785-3.122,1.159-6.072,2.253-7.277,4.266-.57.952-.615,1.208,1.6,2.82,1.727,1.256,4.925,3.587,2.55,7.545-1.841,3.088-5.533,4.454-9.1,5.784-3.121,1.159-6.08,2.259-7.284,4.271-.572.95-.616,1.208,1.6,2.82,1.725,1.256,4.923,3.586,2.567,7.532-1.853,3.1-5.542,4.462-9.11,5.782-3.12,1.158-6.07,2.255-7.278,4.259-.572.95-.612,1.212,1.606,2.826,1.725,1.258,4.924,3.587,2.569,7.535a10.161,10.161,0,0,1-3.934,3.565,38.044,38.044,0,0,1-5.178,2.215c-3.12,1.16-6.07,2.255-7.28,4.259a1.782,1.782,0,1,1-3.053-1.838c1.858-3.086,5.534-4.454,9.093-5.771,3.121-1.158,6.08-2.26,7.284-4.272.57-.95.61-1.215-1.607-2.827-1.727-1.256-4.924-3.587-2.551-7.544,1.86-3.087,5.534-4.454,9.095-5.772,3.12-1.158,6.078-2.261,7.284-4.272.57-.95.615-1.205-1.6-2.817-1.726-1.258-4.924-3.587-2.567-7.534Z" transform="translate(-6687.772 -4528.357)" fill="#3a3a3a"/>
      </g>
    </g>
    <g id="Grupo_80728" data-name="Grupo 80728" transform="translate(51.558 65.44)">
      <g id="Grupo_80490" data-name="Grupo 80490" transform="translate(150.203 293.926)">
        <g id="Grupo_80489" data-name="Grupo 80489">
          <g id="Grupo_80488" data-name="Grupo 80488">
            <g id="Grupo_80487" data-name="Grupo 80487">
              <path id="Trazado_117572" data-name="Trazado 117572" d="M6760.966,4799.972l-45.649-172.327-142.232,13.572-41.658,158.755Z" transform="translate(-6529.951 -4626.168)" fill="#fff"/>
              <path id="Trazado_117573" data-name="Trazado 117573" d="M6761.593,4802.075H6532.052a1.476,1.476,0,0,1-1.426-1.85l41.659-158.755a1.47,1.47,0,0,1,1.287-1.094l142.232-13.573a1.476,1.476,0,0,1,1.565,1.091l45.648,172.327a1.473,1.473,0,0,1-1.426,1.854Zm-227.628-2.951h225.711l-44.837-169.264-139.961,13.355Z" transform="translate(-6530.578 -4626.797)" fill="#3a3a3a"/>
            </g>
          </g>
        </g>
      </g>
      <g id="Grupo_80494" data-name="Grupo 80494" transform="translate(121.95 133.7)">
        <g id="Grupo_80493" data-name="Grupo 80493">
          <g id="Grupo_80492" data-name="Grupo 80492">
            <g id="Grupo_80491" data-name="Grupo 80491">
              <path id="Trazado_117574" data-name="Trazado 117574" d="M6515.225,4535.537s7.145.232,10.733,3.023-10.772,8.555-10.772,8.555Z" transform="translate(-6513.708 -4534.061)" fill="#ef8e4d"/>
              <path id="Trazado_117575" data-name="Trazado 117575" d="M6515.814,4549.219a1.476,1.476,0,0,1-1.478-1.48l.042-11.578a1.478,1.478,0,0,1,1.523-1.471c.313.011,7.67.284,11.591,3.334a2.7,2.7,0,0,1,1.119,2.571c-.171,1.212-1.075,2.979-6.6,5.892-2.818,1.485-5.538,2.582-5.651,2.628A1.512,1.512,0,0,1,6515.814,4549.219Zm1.51-11.467-.026,7.759c4.192-1.881,7.825-4.118,8.341-5.19C6523.533,4538.713,6519.722,4538.006,6517.324,4537.752Z" transform="translate(-6514.336 -4534.688)" fill="#3a3a3a"/>
            </g>
          </g>
        </g>
      </g>
      <g id="Grupo_80498" data-name="Grupo 80498" transform="translate(347.028 371.778)">
        <g id="Grupo_80497" data-name="Grupo 80497">
          <g id="Grupo_80496" data-name="Grupo 80496">
            <g id="Grupo_80495" data-name="Grupo 80495">
              <path id="Trazado_117576" data-name="Trazado 117576" d="M6658.142,4672.4l-13.568,15.118,2.965,10.294,11.114,2s7.415-6.219,7.54-11.457S6658.142,4672.4,6658.142,4672.4Z" transform="translate(-6643.097 -4670.922)" fill="#fff"/>
              <path id="Trazado_117577" data-name="Trazado 117577" d="M6659.28,4701.914a1.677,1.677,0,0,1-.261-.021l-11.113-2a1.479,1.479,0,0,1-1.159-1.042l-2.964-10.293a1.469,1.469,0,0,1,.319-1.394l13.569-15.121a1.474,1.474,0,0,1,2.27.091c.87,1.14,8.486,11.291,8.354,16.886-.138,5.741-7.255,11.872-8.067,12.554A1.468,1.468,0,0,1,6659.28,4701.914Zm-9.95-4.765,9.514,1.712c2.173-1.955,6.419-6.472,6.5-9.914.08-3.343-4.134-9.987-6.69-13.584l-11.811,13.16Z" transform="translate(-6643.725 -4671.55)" fill="#3a3a3a"/>
            </g>
          </g>
        </g>
      </g>
      <g id="Grupo_80502" data-name="Grupo 80502" transform="translate(109.39 113.556)">
        <g id="Grupo_80501" data-name="Grupo 80501">
          <g id="Grupo_80500" data-name="Grupo 80500">
            <g id="Grupo_80499" data-name="Grupo 80499">
              <path id="Trazado_117578" data-name="Trazado 117578" d="M6507.964,4592.482s16.125-11.588,15.782-36.8c-.166-12.235,22.62-26.933,22.62-26.933l23.814-4.792,2.464,28.606-23.4,49.544-8.57,13.707-26.194,12.024Z" transform="translate(-6506.488 -4522.481)" fill="#fff"/>
              <path id="Trazado_117579" data-name="Trazado 117579" d="M6515.1,4629.94a1.511,1.511,0,0,1-.681-.165,1.479,1.479,0,0,1-.77-1.044l-6.512-35.354a1.467,1.467,0,0,1,.589-1.463h0a35.631,35.631,0,0,0,7.725-8.677,47.415,47.415,0,0,0,7.443-26.908c-.175-12.905,22.336-27.575,23.3-28.2a1.475,1.475,0,0,1,.508-.205l23.815-4.79a1.475,1.475,0,0,1,1.761,1.319l2.464,28.6a1.445,1.445,0,0,1-.138.756l-23.4,49.547c-.025.052-.052.1-.082.151l-8.569,13.7a1.454,1.454,0,0,1-.636.558l-26.194,12.027A1.473,1.473,0,0,1,6515.1,4629.94Zm-4.9-36.224,6.009,32.616,24.069-11.051,8.289-13.257,23.2-49.106-2.288-26.563-21.915,4.408c-2.346,1.562-21.861,14.87-21.717,25.525a50.3,50.3,0,0,1-8,28.687A40.213,40.213,0,0,1,6510.2,4593.717Z" transform="translate(-6507.116 -4523.109)" fill="#3a3a3a"/>
            </g>
          </g>
        </g>
      </g>
      <g id="Grupo_80523" data-name="Grupo 80523" transform="translate(159.883 88.744)">
        <g id="Grupo_80506" data-name="Grupo 80506" transform="translate(0 51.741)">
          <g id="Grupo_80505" data-name="Grupo 80505">
            <g id="Grupo_80504" data-name="Grupo 80504">
              <g id="Grupo_80503" data-name="Grupo 80503">
                <path id="Trazado_117580" data-name="Trazado 117580" d="M6560.252,4544.752l2.821,19.671-10.382-1.329-1.289-6.993-6.614,4.2-7.8-5.278,13.484-15.586Z" transform="translate(-6535.514 -4537.961)" fill="#3a3a3a"/>
                <path id="Trazado_117581" data-name="Trazado 117581" d="M6563.7,4566.529a1.824,1.824,0,0,1-.188-.012l-10.38-1.332a1.476,1.476,0,0,1-1.264-1.2l-.894-4.841-4.768,3.028a1.479,1.479,0,0,1-1.619-.025l-7.8-5.279a1.476,1.476,0,0,1-.29-2.187l13.484-15.586a1.476,1.476,0,0,1,1.82-.331l9.778,5.315a1.47,1.47,0,0,1,.757,1.087l2.822,19.672a1.477,1.477,0,0,1-1.462,1.687Zm-9.126-4.134,7.39.946-2.44-17.018-8.085-4.4-11.619,13.432,5.623,3.806,5.795-3.682a1.477,1.477,0,0,1,2.243.978Z" transform="translate(-6536.142 -4538.589)" fill="#3a3a3a"/>
              </g>
            </g>
          </g>
        </g>
        <g id="Grupo_80510" data-name="Grupo 80510" transform="translate(31.79 0)">
          <g id="Grupo_80509" data-name="Grupo 80509" transform="translate(0)">
            <g id="Grupo_80508" data-name="Grupo 80508" transform="translate(0)">
              <g id="Grupo_80507" data-name="Grupo 80507">
                <ellipse id="Elipse_4772" data-name="Elipse 4772" cx="15.6" cy="14.041" rx="15.6" ry="14.041" transform="translate(0 18.574) rotate(-36.536)" fill="#3a3a3a"/>
                <path id="Trazado_117582" data-name="Trazado 117582" d="M6571.92,4543.592a15.951,15.951,0,0,1-5.1-.824,14.281,14.281,0,0,1-8.658-7.838,15.466,15.466,0,0,1,.222-12.649c3.709-8.319,13.46-12.818,21.739-10.031a14.274,14.274,0,0,1,8.659,7.836,15.479,15.479,0,0,1-.223,12.648A18.543,18.543,0,0,1,6571.92,4543.592Zm3.049-29.227a15.52,15.52,0,0,0-13.893,9.117,12.55,12.55,0,0,0-.217,10.262,11.357,11.357,0,0,0,6.9,6.227,13.145,13.145,0,0,0,4.2.681,15.518,15.518,0,0,0,13.895-9.119,12.561,12.561,0,0,0,.216-10.26,11.362,11.362,0,0,0-6.9-6.228A13.21,13.21,0,0,0,6574.969,4514.365Z" transform="translate(-6552.572 -4506.94)" fill="#3a3a3a"/>
              </g>
            </g>
          </g>
        </g>
        <g id="Grupo_80514" data-name="Grupo 80514" transform="translate(21.151 20.983)">
          <g id="Grupo_80513" data-name="Grupo 80513">
            <g id="Grupo_80512" data-name="Grupo 80512">
              <g id="Grupo_80511" data-name="Grupo 80511">
                <ellipse id="Elipse_4773" data-name="Elipse 4773" cx="14.71" cy="12.584" rx="14.71" ry="12.584" transform="translate(0.509 2.694) rotate(-4.586)" fill="#3a3a3a"/>
                <path id="Trazado_117583" data-name="Trazado 117583" d="M6564.057,4549.032a17.7,17.7,0,0,1-7.455-1.617h0a14.151,14.151,0,0,1-7.824-8.758,12.565,12.565,0,0,1,1.683-10.439c4.387-6.714,14.211-9.269,21.9-5.7a14.144,14.144,0,0,1,7.823,8.758,12.565,12.565,0,0,1-1.683,10.439C6575.457,4546.374,6569.8,4549.032,6564.057,4549.032Zm-6.213-4.293c6.411,2.979,14.567.9,18.181-4.634a9.647,9.647,0,0,0,1.317-8.015,11.064,11.064,0,0,0-6.229-6.892c-6.411-2.979-14.565-.9-18.181,4.634a9.646,9.646,0,0,0-1.316,8.013,11.062,11.062,0,0,0,6.229,6.894Z" transform="translate(-6548.301 -4520.907)" fill="#3a3a3a"/>
              </g>
            </g>
          </g>
        </g>
        <g id="Grupo_80518" data-name="Grupo 80518" transform="translate(11.887 47.864)">
          <g id="Grupo_80517" data-name="Grupo 80517">
            <g id="Grupo_80516" data-name="Grupo 80516">
              <g id="Grupo_80515" data-name="Grupo 80515">
                <path id="Trazado_117584" data-name="Trazado 117584" d="M6544.9,4537.208l14.494,6.01-.544.95c-1.358,2.384-4.922,3.3-7.953,2.039l-3.513-1.457c-3.033-1.257-4.387-4.207-3.025-6.591Z" transform="translate(-6542.348 -4535.733)" fill="red"/>
                <path id="Trazado_117585" data-name="Trazado 117585" d="M6554.384,4548.884a8.976,8.976,0,0,1-3.431-.687l-3.512-1.456a7.2,7.2,0,0,1-4.162-4.183,5.428,5.428,0,0,1,.42-4.5l.543-.95a1.475,1.475,0,0,1,1.848-.632l14.492,6.009a1.476,1.476,0,0,1,.716,2.1l-.542.95A7.214,7.214,0,0,1,6554.384,4548.884Zm-8.217-9.184a2.49,2.49,0,0,0-.093,1.905,4.258,4.258,0,0,0,2.5,2.41l3.511,1.455a5.276,5.276,0,0,0,5.767-.927Z" transform="translate(-6542.975 -4536.36)" fill="#3a3a3a"/>
              </g>
            </g>
          </g>
        </g>
        <g id="Grupo_80522" data-name="Grupo 80522" transform="translate(11.728 35.757)">
          <g id="Grupo_80521" data-name="Grupo 80521" transform="translate(0 0)">
            <g id="Grupo_80520" data-name="Grupo 80520" transform="translate(0)">
              <g id="Grupo_80519" data-name="Grupo 80519">
                <ellipse id="Elipse_4774" data-name="Elipse 4774" cx="9.5" cy="12.691" rx="9.5" ry="12.691" transform="translate(0 18.451) rotate(-76.188)" fill="#3a3a3a"/>
                <path id="Trazado_117586" data-name="Trazado 117586" d="M6558.852,4552.362a18.022,18.022,0,0,1-7.572-1.679c-3.912-1.819-6.718-4.822-7.7-8.244a8.788,8.788,0,0,1,1.065-7.325c3.323-5.088,11.632-6.615,18.525-3.41,3.913,1.82,6.719,4.825,7.7,8.245a8.78,8.78,0,0,1-1.064,7.324C6567.661,4550.561,6563.434,4552.362,6558.852,4552.362Zm-3.345-19.417c-3.567,0-6.784,1.326-8.389,3.78a5.808,5.808,0,0,0-.7,4.9c.743,2.6,2.968,4.924,6.1,6.381h0c5.615,2.613,12.26,1.56,14.81-2.346a5.8,5.8,0,0,0,.7-4.9c-.742-2.6-2.968-4.922-6.1-6.38A15.353,15.353,0,0,0,6555.507,4532.945Z" transform="translate(-6542.635 -4528.938)" fill="#3a3a3a"/>
              </g>
            </g>
          </g>
        </g>
      </g>
      <g id="Grupo_80544" data-name="Grupo 80544" transform="translate(283.266 68.376)">
        <g id="Grupo_80527" data-name="Grupo 80527" transform="translate(68.206 28.828)">
          <g id="Grupo_80526" data-name="Grupo 80526">
            <g id="Grupo_80525" data-name="Grupo 80525">
              <g id="Grupo_80524" data-name="Grupo 80524">
                <path id="Trazado_117587" data-name="Trazado 117587" d="M6651.386,4521.417l23.471-6.859.769,10.466-8.277,2.721,6.682,5.615-4.672,8.75-22.23-9.991Z" transform="translate(-6645.651 -4513.082)" fill="#3a3a3a"/>
                <path id="Trazado_117588" data-name="Trazado 117588" d="M6669.986,4544.213a1.434,1.434,0,0,1-.6-.13l-22.233-9.993a1.476,1.476,0,0,1-.767-1.891l4.259-10.7a1.467,1.467,0,0,1,.956-.87l23.472-6.859a1.476,1.476,0,0,1,1.887,1.31l.769,10.465a1.477,1.477,0,0,1-1.013,1.509l-5.76,1.894,4.654,3.911a1.478,1.478,0,0,1,.352,1.825l-4.671,8.75A1.474,1.474,0,0,1,6669.986,4544.213Zm-20.338-12.235,19.687,8.848,3.456-6.479-5.764-4.848a1.474,1.474,0,0,1,.487-2.53l7.184-2.36-.552-7.494-21.029,6.146Z" transform="translate(-6646.279 -4513.709)" fill="#3a3a3a"/>
              </g>
            </g>
          </g>
        </g>
        <g id="Grupo_80531" data-name="Grupo 80531" transform="translate(0 0)">
          <g id="Grupo_80530" data-name="Grupo 80530" transform="translate(0)">
            <g id="Grupo_80529" data-name="Grupo 80529">
              <g id="Grupo_80528" data-name="Grupo 80528">
                <ellipse id="Elipse_4775" data-name="Elipse 4775" cx="14.659" cy="18.7" rx="14.659" ry="18.7" transform="translate(0 28.89) rotate(-80.198)" fill="#3a3a3a"/>
                <path id="Trazado_117589" data-name="Trazado 117589" d="M6629.149,4530.457a24.877,24.877,0,0,1-4.265-.368,22.923,22.923,0,0,1-13.142-6.946,14.015,14.015,0,0,1,3.926-22.718,22.915,22.915,0,0,1,14.71-2.134c10.963,1.9,18.647,10.565,17.136,19.334C6646.2,4525.238,6638.367,4530.457,6629.149,4530.457Zm-3.086-29.589a19,19,0,0,0-9,2.156,11.751,11.751,0,0,0-6.406,8.233h0a11.752,11.752,0,0,0,3.274,9.906,19.951,19.951,0,0,0,11.455,6.018c9.358,1.613,17.979-2.9,19.217-10.06s-5.37-14.307-14.729-15.922A22.173,22.173,0,0,0,6626.063,4500.868Zm-16.858,10.138h0Z" transform="translate(-6606.709 -4496.56)" fill="#3a3a3a"/>
              </g>
            </g>
          </g>
        </g>
        <g id="Grupo_80535" data-name="Grupo 80535" transform="translate(22.592 11.098)">
          <g id="Grupo_80534" data-name="Grupo 80534" transform="translate(0 0)">
            <g id="Grupo_80533" data-name="Grupo 80533" transform="translate(0)">
              <g id="Grupo_80532" data-name="Grupo 80532">
                <ellipse id="Elipse_4776" data-name="Elipse 4776" cx="14.444" cy="16.038" rx="14.444" ry="16.038" transform="translate(0 27.559) rotate(-72.546)" fill="#3a3a3a"/>
                <path id="Trazado_117590" data-name="Trazado 117590" d="M6639.668,4537.108a19.031,19.031,0,0,1-5.709-.886,18.345,18.345,0,0,1-10.378-8.1,15.129,15.129,0,0,1-1.555-12.344c2.635-8.374,12.27-12.83,21.483-9.933a18.348,18.348,0,0,1,10.381,8.1,15.13,15.13,0,0,1,1.552,12.345h0C6653.354,4532.929,6646.861,4537.108,6639.668,4537.108Zm-1.878-29.193c-5.931,0-11.255,3.372-12.946,8.753a12.2,12.2,0,0,0,1.279,9.959,15.393,15.393,0,0,0,8.721,6.781c7.658,2.408,15.639-1.181,17.783-8h0a12.207,12.207,0,0,0-1.282-9.959,15.385,15.385,0,0,0-8.72-6.781A16.154,16.154,0,0,0,6637.79,4507.915Z" transform="translate(-6619.102 -4502.447)" fill="#3a3a3a"/>
              </g>
            </g>
          </g>
        </g>
        <g id="Grupo_80539" data-name="Grupo 80539" transform="translate(63.574 32.235)">
          <g id="Grupo_80538" data-name="Grupo 80538">
            <g id="Grupo_80537" data-name="Grupo 80537">
              <g id="Grupo_80536" data-name="Grupo 80536">
                <path id="Trazado_117591" data-name="Trazado 117591" d="M6644.463,4531.988l4.019-15.472h0a7.387,7.387,0,0,1,5.294,9.009l-.3,1.168a7.388,7.388,0,0,1-9.009,5.295Z" transform="translate(-6642.989 -4515.04)" fill="red"/>
                <path id="Trazado_117592" data-name="Trazado 117592" d="M6646.946,4534.33a8.845,8.845,0,0,1-2.227-.286,1.472,1.472,0,0,1-.9-.68,1.487,1.487,0,0,1-.156-1.118l4.019-15.472a1.474,1.474,0,0,1,1.8-1.058,8.862,8.862,0,0,1,6.352,10.809l-.3,1.168A8.882,8.882,0,0,1,6646.946,4534.33Zm-.01-2.95h.01a5.927,5.927,0,0,0,5.726-4.429l.3-1.168a5.921,5.921,0,0,0-2.856-6.661Z" transform="translate(-6643.616 -4515.668)" fill="#3a3a3a"/>
              </g>
            </g>
          </g>
        </g>
        <g id="Grupo_80543" data-name="Grupo 80543" transform="translate(45.599 22.037)">
          <g id="Grupo_80542" data-name="Grupo 80542" transform="translate(0 0)">
            <g id="Grupo_80541" data-name="Grupo 80541">
              <g id="Grupo_80540" data-name="Grupo 80540">
                <ellipse id="Elipse_4777" data-name="Elipse 4777" cx="12.818" cy="11.771" rx="12.818" ry="11.771" transform="translate(0 24.456) rotate(-72.54)" fill="#3a3a3a"/>
                <path id="Trazado_117593" data-name="Trazado 117593" d="M6647.067,4539.114a12.437,12.437,0,0,1-3.73-.575,12.691,12.691,0,0,1-7.707-6.859,14.787,14.787,0,0,1-.641-10.748c2.363-7.521,9.955-11.854,16.925-9.664s10.711,10.091,8.347,17.61h0a14.788,14.788,0,0,1-6.677,8.446A13.005,13.005,0,0,1,6647.067,4539.114Zm1.14-25.464a11.259,11.259,0,0,0-10.4,8.166,11.858,11.858,0,0,0,.5,8.611,9.63,9.63,0,0,0,13.806,4.342,11.866,11.866,0,0,0,5.339-6.777h0c1.875-5.966-1-12.206-6.419-13.908A9.368,9.368,0,0,0,6648.207,4513.65Z" transform="translate(-6632.55 -4509.145)" fill="#3a3a3a"/>
              </g>
            </g>
          </g>
        </g>
      </g>
      <g id="Grupo_80548" data-name="Grupo 80548" transform="translate(226.97 122.405)">
        <g id="Grupo_80547" data-name="Grupo 80547">
          <g id="Grupo_80546" data-name="Grupo 80546">
            <g id="Grupo_80545" data-name="Grupo 80545">
              <path id="Trazado_117594" data-name="Trazado 117594" d="M6642.386,4529.044l-66.83,6.5,1.645,16.372,41.714-2.768,13.755-5.755Z" transform="translate(-6574.08 -4527.568)" fill="#3a3a3a"/>
              <path id="Trazado_117595" data-name="Trazado 117595" d="M6577.826,4554.021a1.475,1.475,0,0,1-1.467-1.327l-1.644-16.371a1.477,1.477,0,0,1,1.325-1.616l66.829-6.5a1.476,1.476,0,0,1,1.365,2.3l-9.72,14.353a1.455,1.455,0,0,1-.652.534l-13.754,5.757a1.534,1.534,0,0,1-.471.111l-41.714,2.765C6577.892,4554.021,6577.858,4554.021,6577.826,4554.021Zm-.027-16.521,1.354,13.48,40.046-2.656,13.12-5.492,7.711-11.388Z" transform="translate(-6574.708 -4528.196)" fill="#3a3a3a"/>
            </g>
          </g>
        </g>
      </g>
      <g id="Grupo_80552" data-name="Grupo 80552" transform="translate(240.494 99.188)">
        <g id="Grupo_80551" data-name="Grupo 80551">
          <g id="Grupo_80550" data-name="Grupo 80550">
            <g id="Grupo_80549" data-name="Grupo 80549">
              <rect id="Rectángulo_33870" data-name="Rectángulo 33870" width="34.685" height="104.055" transform="translate(1.476 1.476)" fill="#fff"/>
              <path id="Trazado_117596" data-name="Trazado 117596" d="M6618.644,4621.856h-34.687a1.476,1.476,0,0,1-1.476-1.477V4516.327a1.476,1.476,0,0,1,1.476-1.477h34.687a1.476,1.476,0,0,1,1.476,1.477v104.053A1.476,1.476,0,0,1,6618.644,4621.856Zm-33.209-2.951h31.733V4517.8h-31.733Z" transform="translate(-6582.482 -4514.85)" fill="#3a3a3a"/>
            </g>
          </g>
        </g>
      </g>
      <g id="Grupo_80553" data-name="Grupo 80553" transform="translate(128.714 122.476)">
        <path id="Trazado_117597" data-name="Trazado 117597" d="M6678.129,4545.863l32.882-4.2a97.2,97.2,0,0,1,81.563,28.225l97.895,99.437c31.791,32.288,27.632,85.327-8.91,112.122-27.81,20.392-74.6,32.741-125.369,19.333l-14.037-39.968,56.938-45.553-32.985-23.169,1.57,25.525-234.827,19.241-.393-55.73-13.383-68.517L6542,4572.1l76.977-20.218-1.736-16.362,17.023,9.782-1.507,49.132,14.6-48.088,36.733-17.266Z" transform="translate(-6517.598 -4527.609)" fill="#fef536"/>
        <path id="Trazado_117598" data-name="Trazado 117598" d="M6799.49,4808.514a168.389,168.389,0,0,1-43.05-5.675,1.488,1.488,0,0,1-1.017-.938l-14.037-39.969a1.475,1.475,0,0,1,.472-1.642l55.4-44.323-28.866-20.275,1.381,22.465a1.474,1.474,0,0,1-1.351,1.562L6533.6,4738.959A1.474,1.474,0,0,1,6532,4737.5l-.392-55.595-13.356-68.38a1.474,1.474,0,0,1,.163-1.011l22.926-40.51a1.47,1.47,0,0,1,.91-.7L6618,4551.411l-1.6-15.1a1.475,1.475,0,0,1,2.2-1.434l17.023,9.783a1.475,1.475,0,0,1,.739,1.324l-1.165,38.028,11.373-37.457a1.471,1.471,0,0,1,.783-.908l36.732-17.266a1.476,1.476,0,0,1,2.02,1.829l-5.155,14.516,30.5-3.892a98.674,98.674,0,0,1,82.8,28.655l97.894,99.433a75.841,75.841,0,0,1-9.089,114.351C6864.487,4796.883,6834.91,4808.512,6799.49,4808.514Zm-41.126-8.674c23.108,5.984,46.845,7.293,69.481,3.129,20.4-3.756,38.888-11.391,53.468-22.08a72.89,72.89,0,0,0,8.73-109.9l-97.895-99.436a95.723,95.723,0,0,0-80.325-27.8l-32.88,4.193a1.474,1.474,0,0,1-1.577-1.956l4.773-13.441-32.937,15.48-14.409,47.462a1.476,1.476,0,0,1-2.887-.475l1.479-48.249-13.749-7.9,1.432,13.487a1.477,1.477,0,0,1-1.095,1.584L6543.6,4574l-22.351,39.494,13.279,67.979a1.613,1.613,0,0,1,.028.273l.38,54.141,231.8-18.993-1.481-24.082a1.477,1.477,0,0,1,2.322-1.3l32.985,23.169a1.475,1.475,0,0,1,.074,2.359l-56.125,44.9Z" transform="translate(-6518.225 -4528.236)" fill="#3a3a3a"/>
      </g>
      <g id="Grupo_80557" data-name="Grupo 80557" transform="translate(240.494 99.918)">
        <g id="Grupo_80556" data-name="Grupo 80556">
          <g id="Grupo_80555" data-name="Grupo 80555">
            <g id="Grupo_80554" data-name="Grupo 80554">
              <path id="Trazado_117599" data-name="Trazado 117599" d="M6583.331,4520.331v19.589c12.872,5.2,27.116-3.847,34.686-9.932v-13.87l-20.711,1.511Z" transform="translate(-6581.855 -4514.641)" fill="#3a3a3a"/>
              <path id="Trazado_117600" data-name="Trazado 117600" d="M6592.1,4543.569a23.027,23.027,0,0,1-8.692-1.652,1.477,1.477,0,0,1-.925-1.369v-19.589a1.475,1.475,0,0,1,1.194-1.449l13.976-2.7a1.033,1.033,0,0,1,.174-.022l20.712-1.513a1.475,1.475,0,0,1,1.582,1.472v13.871a1.482,1.482,0,0,1-.552,1.153C6613.523,4536.624,6602.977,4543.569,6592.1,4543.569Zm-6.664-4.045c11.688,4.044,24.626-4.019,31.733-9.618v-11.573l-19.041,1.389-12.692,2.455Z" transform="translate(-6582.482 -4515.269)" fill="#3a3a3a"/>
            </g>
          </g>
        </g>
      </g>
      <g id="Grupo_80561" data-name="Grupo 80561" transform="translate(196.844 0.098)">
        <g id="Grupo_80560" data-name="Grupo 80560">
          <g id="Grupo_80559" data-name="Grupo 80559">
            <g id="Grupo_80558" data-name="Grupo 80558">
              <ellipse id="Elipse_4778" data-name="Elipse 4778" cx="54.289" cy="56.552" rx="54.289" ry="56.552" transform="translate(1.475 1.475)" fill="#fff"/>
              <path id="Trazado_117601" data-name="Trazado 117601" d="M6613.154,4573.941c-30.747,0-55.765-26.03-55.765-58.026s25.018-58.028,55.765-58.028,55.766,26.03,55.766,58.028S6643.9,4573.941,6613.154,4573.941Zm0-113.1c-29.121,0-52.813,24.708-52.813,55.077s23.692,55.073,52.813,55.073,52.814-24.706,52.814-55.073S6642.277,4460.838,6613.154,4460.838Z" transform="translate(-6557.389 -4457.887)" fill="#3a3a3a"/>
            </g>
          </g>
        </g>
      </g>
      <g id="Grupo_80565" data-name="Grupo 80565" transform="translate(246.319 59.572)">
        <g id="Grupo_80564" data-name="Grupo 80564">
          <g id="Grupo_80563" data-name="Grupo 80563">
            <g id="Grupo_80562" data-name="Grupo 80562">
              <path id="Trazado_117602" data-name="Trazado 117602" d="M6587.206,4499.544a.528.528,0,0,1-.411-.858l4.481-5.563a.53.53,0,0,1,.7-.114l7.5,4.792a.527.527,0,0,1-.569.888l-7.1-4.535-4.187,5.2A.528.528,0,0,1,6587.206,4499.544Z" transform="translate(-6585.204 -4491.448)" fill="#3a3a3a"/>
              <path id="Trazado_117603" data-name="Trazado 117603" d="M6587.831,4501.649a2,2,0,0,1-1.56-3.262l4.483-5.565a2,2,0,0,1,2.639-.429l7.5,4.791a2,2,0,1,1-2.156,3.377l-5.984-3.826-3.354,4.166A2,2,0,0,1,6587.831,4501.649Z" transform="translate(-6585.83 -4492.076)" fill="#3a3a3a"/>
            </g>
          </g>
        </g>
      </g>
      <g id="Grupo_80569" data-name="Grupo 80569" transform="translate(250.104 80.132)">
        <g id="Grupo_80568" data-name="Grupo 80568">
          <g id="Grupo_80567" data-name="Grupo 80567">
            <g id="Grupo_80566" data-name="Grupo 80566">
              <path id="Trazado_117604" data-name="Trazado 117604" d="M6589.382,4518.01a.528.528,0,0,1-.051-1.054c11.128-1.068,19.878-11.9,19.965-12.014a.528.528,0,0,1,.826.656,40.682,40.682,0,0,1-5.937,5.775c-3.382,2.7-8.687,6.051-14.75,6.633Z" transform="translate(-6587.378 -4503.268)" fill="#3a3a3a"/>
              <path id="Trazado_117605" data-name="Trazado 117605" d="M6590.01,4520.112a2,2,0,0,1-.191-4c10.435-1,18.867-11.363,18.952-11.467a2,2,0,0,1,2.813-.315,2.007,2.007,0,0,1,.319,2.813,42.266,42.266,0,0,1-6.173,6.008c-3.537,2.829-9.1,6.331-15.529,6.949C6590.125,4520.109,6590.066,4520.112,6590.01,4520.112Zm.092-1.059h0Zm20.975-12.562-.006,0Zm-1.483-1.182Z" transform="translate(-6588.006 -4503.896)" fill="#3a3a3a"/>
            </g>
          </g>
        </g>
      </g>
      <g id="Grupo_80573" data-name="Grupo 80573" transform="translate(260.303 27.915)">
        <g id="Grupo_80572" data-name="Grupo 80572">
          <g id="Grupo_80571" data-name="Grupo 80571">
            <g id="Grupo_80570" data-name="Grupo 80570">
              <path id="Trazado_117606" data-name="Trazado 117606" d="M6595.245,4483.454a.527.527,0,0,1-.443-.814,14.973,14.973,0,0,1,4.466-4c2.853-1.789,7.857-3.917,15.51-3.917a.527.527,0,0,1,0,1.055c-7.363,0-12.163,2.021-14.893,3.719a14.314,14.314,0,0,0-4.2,3.713A.53.53,0,0,1,6595.245,4483.454Z" transform="translate(-6593.243 -4473.25)" fill="#3a3a3a"/>
              <path id="Trazado_117607" data-name="Trazado 117607" d="M6595.872,4485.557a2,2,0,0,1-1.683-3.09,16.269,16.269,0,0,1,4.921-4.446c3.015-1.891,8.292-4.143,16.294-4.143a2,2,0,1,1,0,4.007c-7.015,0-11.547,1.9-14.111,3.5a13.269,13.269,0,0,0-3.754,3.281A1.981,1.981,0,0,1,6595.872,4485.557Zm-.775-2.547-.019.026Z" transform="translate(-6593.87 -4473.878)" fill="#3a3a3a"/>
            </g>
          </g>
        </g>
      </g>
      <g id="Grupo_80577" data-name="Grupo 80577" transform="translate(306.148 63.775)">
        <g id="Grupo_80576" data-name="Grupo 80576">
          <g id="Grupo_80575" data-name="Grupo 80575">
            <g id="Grupo_80574" data-name="Grupo 80574">
              <path id="Trazado_117608" data-name="Trazado 117608" d="M6626.843,4504.323a.524.524,0,0,1-.438-.236l-5.244-7.927a.527.527,0,1,1,.879-.582l5.244,7.927a.527.527,0,0,1-.44.818Z" transform="translate(-6619.596 -4493.865)" fill="#3a3a3a"/>
              <path id="Trazado_117609" data-name="Trazado 117609" d="M6627.47,4506.427a2,2,0,0,1-1.671-.9l-5.242-7.927a2,2,0,0,1,3.342-2.21l5.243,7.927a2,2,0,0,1-1.672,3.109Zm.792-2.526h0Z" transform="translate(-6620.224 -4494.493)" fill="#3a3a3a"/>
            </g>
          </g>
        </g>
      </g>
      <g id="Grupo_80586" data-name="Grupo 80586" transform="translate(265.934 41.518)">
        <g id="Grupo_80581" data-name="Grupo 80581">
          <g id="Grupo_80580" data-name="Grupo 80580">
            <g id="Grupo_80579" data-name="Grupo 80579">
              <g id="Grupo_80578" data-name="Grupo 80578">
                <path id="Trazado_117610" data-name="Trazado 117610" d="M6597.956,4502.057s-.085-32.328,30.372-13.758C6628.328,4488.3,6621.852,4510.507,6597.956,4502.057Z" transform="translate(-6596.478 -4481.071)" fill="#fff"/>
                <path id="Trazado_117611" data-name="Trazado 117611" d="M6608.761,4506.081a32.1,32.1,0,0,1-10.671-2.007,1.473,1.473,0,0,1-.983-1.388c0-.581.064-14.348,8.843-19.291,5.783-3.26,13.781-1.822,23.773,4.272a1.47,1.47,0,0,1,.647,1.67c-.116.405-2.981,9.933-11.8,14.453A21.216,21.216,0,0,1,6608.761,4506.081Zm-8.663-4.444c6.586,2.126,12.333,1.971,17.1-.46,6.077-3.1,9-9.16,9.962-11.605-8.518-4.983-15.16-6.2-19.761-3.605C6601.352,4489.371,6600.285,4498.538,6600.1,4501.637Z" transform="translate(-6597.107 -4481.697)" fill="#3a3a3a"/>
              </g>
            </g>
          </g>
        </g>
        <g id="Grupo_80585" data-name="Grupo 80585" transform="translate(0.356 0.002)">
          <g id="Grupo_80584" data-name="Grupo 80584">
            <g id="Grupo_80583" data-name="Grupo 80583">
              <g id="Grupo_80582" data-name="Grupo 80582">
                <path id="Trazado_117612" data-name="Trazado 117612" d="M6598.158,4497.969a12.833,12.833,0,0,0,21.422-13.923C6603.323,4478.166,6599.2,4491.011,6598.158,4497.969Z" transform="translate(-6596.684 -4481.072)" fill="#3a3a3a"/>
                <path id="Trazado_117613" data-name="Trazado 117613" d="M6608.827,4504.916a14.242,14.242,0,0,1-11.194-5.4,1.472,1.472,0,0,1-.306-1.137c1.355-9.022,5.209-13.043,8.2-14.827,3.987-2.379,9.095-2.467,15.178-.267a1.482,1.482,0,0,1,.807.705,14.31,14.31,0,0,1-12.688,20.926Zm-8.477-6.751a11.358,11.358,0,0,0,18.8-12.3c-4.958-1.687-9.03-1.612-12.108.222C6605.093,4487.248,6601.679,4490.352,6600.351,4498.165Z" transform="translate(-6597.311 -4481.699)" fill="#3a3a3a"/>
              </g>
            </g>
          </g>
        </g>
      </g>
      <g id="Grupo_80590" data-name="Grupo 80590" transform="translate(198.059)">
        <g id="Grupo_80589" data-name="Grupo 80589">
          <g id="Grupo_80588" data-name="Grupo 80588">
            <g id="Grupo_80587" data-name="Grupo 80587">
              <path id="Trazado_117614" data-name="Trazado 117614" d="M6612.014,4458.679c-26.052,0-47.821,19.118-53.077,44.624,43.973-.639,62.775-35.9,62.775-35.9,6.1,19.6,34.011,32.274,43.413,36.052C6659.925,4477.874,6638.123,4458.679,6612.014,4458.679Z" transform="translate(-6557.46 -4457.204)" fill="#3a3a3a"/>
              <path id="Trazado_117615" data-name="Trazado 117615" d="M6665.752,4505.557a1.457,1.457,0,0,1-.55-.106,126.085,126.085,0,0,1-23.229-12.245c-9.978-6.817-16.678-14.139-19.958-21.8a76.624,76.624,0,0,1-13.6,15.448,74.935,74.935,0,0,1-48.825,18.553,1.476,1.476,0,0,1-1.468-1.773,58.622,58.622,0,0,1,19.229-32.7,54.1,54.1,0,0,1,70.647.049,58.641,58.641,0,0,1,19.2,32.808,1.474,1.474,0,0,1-1.446,1.769Zm-53.111-44.774a51.589,51.589,0,0,0-33.383,12.4,55.632,55.632,0,0,0-17.842,29.228,71.422,71.422,0,0,0,45.055-17.777,69.4,69.4,0,0,0,14.565-17.291,1.476,1.476,0,0,1,2.712.255c5.435,17.457,29.353,29.475,39.923,34.025a55.576,55.576,0,0,0-17.594-28.394A51.578,51.578,0,0,0,6612.641,4460.782Z" transform="translate(-6558.088 -4457.831)" fill="#3a3a3a"/>
            </g>
          </g>
        </g>
      </g>
      <g id="Grupo_80594" data-name="Grupo 80594" transform="translate(155.006 7.893)">
        <g id="Grupo_80593" data-name="Grupo 80593" transform="translate(0 0)">
          <g id="Grupo_80592" data-name="Grupo 80592">
            <g id="Grupo_80591" data-name="Grupo 80591">
              <circle id="Elipse_4779" data-name="Elipse 4779" cx="36.557" cy="36.557" r="36.557" transform="translate(0 33.604) rotate(-27.362)" fill="#fff"/>
              <path id="Trazado_117616" data-name="Trazado 117616" d="M6577.773,4544.883a38.026,38.026,0,0,1-33.135-56.579h0a38.034,38.034,0,1,1,33.137,56.579Zm.123-73.1a35.1,35.1,0,0,0-30.683,17.963h0a35.1,35.1,0,1,0,30.683-17.963Zm-31.972,17.243h0Z" transform="translate(-6528.569 -4457.589)" fill="#3a3a3a"/>
            </g>
          </g>
        </g>
      </g>
      <g id="Grupo_80598" data-name="Grupo 80598" transform="translate(135.416 84.35)">
        <g id="Grupo_80597" data-name="Grupo 80597">
          <g id="Grupo_80596" data-name="Grupo 80596">
            <g id="Grupo_80595" data-name="Grupo 80595">
              <rect id="Rectángulo_33871" data-name="Rectángulo 33871" width="89.004" height="15.656" rx="1.252" transform="matrix(0.488, -0.873, 0.873, 0.488, 0.691, 78.387)" fill="#7dbcf5"/>
              <path id="Trazado_117617" data-name="Trazado 117617" d="M6535.59,4593.032a3.643,3.643,0,0,1-1.776-.462l-9.861-5.513a3.655,3.655,0,0,1-1.409-4.973h0l41.291-73.893a3.657,3.657,0,0,1,4.973-1.407l9.863,5.511a3.658,3.658,0,0,1,1.408,4.975l-41.292,73.891A3.66,3.66,0,0,1,6535.59,4593.032Zm-10.469-9.508h0a.705.705,0,0,0-.065.533.714.714,0,0,0,.334.424l9.864,5.512a.705.705,0,0,0,.957-.271l41.292-73.893a.705.705,0,0,0-.271-.958l-9.863-5.511a.708.708,0,0,0-.534-.062.7.7,0,0,0-.421.334Z" transform="translate(-6522.078 -4506.319)" fill="#3a3a3a"/>
            </g>
          </g>
        </g>
      </g>
      <g id="Grupo_80607" data-name="Grupo 80607" transform="translate(174.173 36.277)">
        <g id="Grupo_80602" data-name="Grupo 80602">
          <g id="Grupo_80601" data-name="Grupo 80601">
            <g id="Grupo_80600" data-name="Grupo 80600">
              <g id="Grupo_80599" data-name="Grupo 80599">
                <path id="Trazado_117618" data-name="Trazado 117618" d="M6604.583,4507.2s-15.917-55.966-59.378-8.7C6545.206,4498.5,6567.444,4533.7,6604.583,4507.2Z" transform="translate(-6543.729 -4478.057)" fill="#fff"/>
                <path id="Trazado_117619" data-name="Trazado 117619" d="M6578.257,4519.186a35.424,35.424,0,0,1-6.84-.665c-17.016-3.34-26.438-17.984-26.832-18.606a1.476,1.476,0,0,1,.162-1.788c13.946-15.165,26.686-21.507,37.862-18.853,7.08,1.681,13.486,7.111,18.528,15.7a59.432,59.432,0,0,1,5.492,12.451,1.475,1.475,0,0,1-.563,1.605C6596.6,4515.786,6587.275,4519.186,6578.257,4519.186Zm-30.534-19.925c2.328,3.2,10.9,13.752,24.29,16.369,10,1.954,20.586-.865,31.466-8.385a58.969,58.969,0,0,0-4.923-10.834c-3.222-5.475-8.724-12.393-16.637-14.271C6572.065,4479.808,6560.564,4485.565,6547.723,4499.261Z" transform="translate(-6544.357 -4478.686)" fill="#3a3a3a"/>
              </g>
            </g>
          </g>
        </g>
        <g id="Grupo_80606" data-name="Grupo 80606" transform="translate(12.295 0.004)">
          <g id="Grupo_80605" data-name="Grupo 80605">
            <g id="Grupo_80604" data-name="Grupo 80604">
              <g id="Grupo_80603" data-name="Grupo 80603">
                <path id="Trazado_117620" data-name="Trazado 117620" d="M6581.754,4513.68a23.058,23.058,0,0,0,14.962-13.364c-5.26-11.516-18.772-31.706-43.979-13.447a23.108,23.108,0,0,0,29.018,26.812Z" transform="translate(-6550.799 -4478.061)" fill="#3a3a3a"/>
                <path id="Trazado_117621" data-name="Trazado 117621" d="M6576.011,4516.679a24.584,24.584,0,0,1-24.094-29.481,1.468,1.468,0,0,1,.579-.9c9.131-6.611,17.675-8.932,25.4-6.9,5.823,1.535,14.158,6.412,20.791,20.93a1.473,1.473,0,0,1,.021,1.179,24.574,24.574,0,0,1-22.694,15.172ZM6554.7,4488.35a21.628,21.628,0,0,0,27.271,24.536h0a21.52,21.52,0,0,0,13.756-11.923c-2.9-6.155-8.969-16.175-18.585-18.71C6570.445,4480.489,6562.9,4482.54,6554.7,4488.35Z" transform="translate(-6551.424 -4478.687)" fill="#3a3a3a"/>
              </g>
            </g>
          </g>
        </g>
      </g>
      <g id="Grupo_80612" data-name="Grupo 80612" transform="translate(161.202 17.219)">
        <g id="Grupo_80611" data-name="Grupo 80611">
          <g id="Grupo_80610" data-name="Grupo 80610">
            <g id="Grupo_80609" data-name="Grupo 80609">
              <g id="Grupo_80608" data-name="Grupo 80608">
                <path id="Trazado_117622" data-name="Trazado 117622" d="M6578.035,4549.269a40.452,40.452,0,1,1,11.042-1.543A40.095,40.095,0,0,1,6578.035,4549.269Zm-28.562-56.339h0a32.815,32.815,0,0,0,28.573,48.8,32.932,32.932,0,0,0,8.978-1.255,32.787,32.787,0,1,0-37.551-47.542Z" transform="translate(-6536.273 -4467.101)" fill="#7dbcf5"/>
                <path id="Trazado_117623" data-name="Trazado 117623" d="M6578.663,4551.372a41.911,41.911,0,1,1,11.443-1.6A41.806,41.806,0,0,1,6578.663,4551.372Zm.117-80.69a39.107,39.107,0,0,0-10.64,1.485,38.867,38.867,0,0,0,10.522,76.255,39.077,39.077,0,0,0,10.639-1.487,38.866,38.866,0,0,0-10.521-76.253Zm-.107,73.147a34.279,34.279,0,0,1-29.861-50.992h0a34.262,34.262,0,1,1,39.238,49.683A34.391,34.391,0,0,1,6578.673,4543.829Zm-27.284-49.552h0a31.335,31.335,0,0,0,27.284,46.6,31.5,31.5,0,0,0,8.575-1.2,31.312,31.312,0,1,0-35.859-45.4Z" transform="translate(-6536.9 -4467.729)" fill="#3a3a3a"/>
              </g>
            </g>
          </g>
        </g>
      </g>
      <g id="Grupo_80616" data-name="Grupo 80616" transform="translate(150.203 328.205)">
        <g id="Grupo_80615" data-name="Grupo 80615">
          <g id="Grupo_80614" data-name="Grupo 80614">
            <g id="Grupo_80613" data-name="Grupo 80613">
              <path id="Trazado_117624" data-name="Trazado 117624" d="M6760.966,4785.4,6724.4,4647.35l-159.67,11.146-33.3,126.9Z" transform="translate(-6529.951 -4645.874)" fill="#3a3a3a"/>
              <path id="Trazado_117625" data-name="Trazado 117625" d="M6761.593,4787.5H6532.052a1.476,1.476,0,0,1-1.426-1.85l33.3-126.905a1.473,1.473,0,0,1,1.325-1.1l159.669-11.146a1.469,1.469,0,0,1,1.528,1.094l36.569,138.051a1.473,1.473,0,0,1-1.426,1.853Zm-227.628-2.951h225.711l-35.765-135.017-157.4,10.986Z" transform="translate(-6530.578 -4646.501)" fill="#3a3a3a"/>
            </g>
          </g>
        </g>
      </g>
      <g id="Grupo_80620" data-name="Grupo 80620" transform="translate(109.11 112.098)">
        <g id="Grupo_80619" data-name="Grupo 80619">
          <g id="Grupo_80618" data-name="Grupo 80618">
            <g id="Grupo_80617" data-name="Grupo 80617">
              <path id="Trazado_117626" data-name="Trazado 117626" d="M6537.429,4613.015l14.236-15.95s15.631-.965,25-19.491c5.28-10.449,4.593-21.668,9.171-34.165,1.479-4.041,3-8.558,4.129-11.885a6.172,6.172,0,0,0-2.873-7.38h0a8.231,8.231,0,0,0-11.04,3.015c-4.377,7.371-11.851,22.051-12.78,29.138-.521,3.981-2.854,22.409-12.77,19.141-32.9-10.843-47.845,33.231-41.105,45.333Z" transform="translate(-6506.325 -4521.64)" fill="#fff"/>
              <path id="Trazado_117627" data-name="Trazado 117627" d="M6510.023,4622.877a1.476,1.476,0,0,1-1.289-.758c-2.093-3.755-2.351-10.019-.711-17.184a49.754,49.754,0,0,1,9.8-20.26c8.853-10.713,20.843-14.269,33.768-10.009a4.629,4.629,0,0,0,4.132-.375c2.2-1.382,5.142-5.531,6.7-17.467l.012-.089c.96-7.339,8.466-22.111,12.975-29.7a9.667,9.667,0,0,1,13.019-3.556,7.633,7.633,0,0,1,3.558,9.146l-.179.527c-1.136,3.361-2.551,7.544-3.959,11.391a94.484,94.484,0,0,0-3.949,15.953c-1.184,6.4-2.3,12.451-5.291,18.372-5.02,9.927-11.831,14.91-16.663,17.344a28.651,28.651,0,0,1-8.929,2.889l-13.854,15.525a1.488,1.488,0,0,1-.71.44l-28.036,7.755A1.5,1.5,0,0,1,6510.023,4622.877Zm31.037-47.046c-9.74,0-16.6,5.445-20.965,10.724-8.73,10.57-11.994,26.11-9.267,33.093l26.42-7.308,13.945-15.626a1.475,1.475,0,0,1,1.01-.489,24.757,24.757,0,0,0,8.547-2.712c4.394-2.241,10.6-6.83,15.222-15.974,2.8-5.542,3.88-11.389,5.022-17.577a97.272,97.272,0,0,1,4.081-16.431c1.4-3.813,2.8-7.976,3.936-11.32l.18-.53a4.681,4.681,0,0,0-2.184-5.611,6.728,6.728,0,0,0-9.062,2.476c-4.711,7.932-11.73,22.042-12.584,28.574l-.013.088c-1.372,10.5-4.083,17.085-8.057,19.583a7.513,7.513,0,0,1-6.627.68A30.578,30.578,0,0,0,6541.06,4575.832Zm-3,37.815h0Z" transform="translate(-6506.955 -4522.271)" fill="#3a3a3a"/>
            </g>
          </g>
        </g>
      </g>
      <g id="Grupo_80625" data-name="Grupo 80625" transform="translate(229.7 339.079)">
        <g id="Grupo_80624" data-name="Grupo 80624">
          <g id="Grupo_80623" data-name="Grupo 80623">
            <g id="Grupo_80622" data-name="Grupo 80622">
              <g id="Grupo_80621" data-name="Grupo 80621">
                <path id="Trazado_117628" data-name="Trazado 117628" d="M6584.29,4667.927a7.163,7.163,0,1,1,7.162-7.162A7.17,7.17,0,0,1,6584.29,4667.927Zm0-12.819a5.656,5.656,0,1,0,5.654,5.657A5.663,5.663,0,0,0,6584.29,4655.108Z" transform="translate(-6575.65 -4652.125)" fill="#fff"/>
                <path id="Trazado_117629" data-name="Trazado 117629" d="M6584.917,4670.031a8.639,8.639,0,1,1,8.638-8.639A8.65,8.65,0,0,1,6584.917,4670.031Zm0-12.821a4.181,4.181,0,1,0,4.179,4.183A4.188,4.188,0,0,0,6584.917,4657.21Z" transform="translate(-6576.278 -4652.753)" fill="#3a3a3a"/>
              </g>
            </g>
          </g>
        </g>
      </g>
      <g id="Grupo_80629" data-name="Grupo 80629" transform="translate(358.752 150.69)">
        <g id="Grupo_80628" data-name="Grupo 80628">
          <g id="Grupo_80627" data-name="Grupo 80627">
            <g id="Grupo_80626" data-name="Grupo 80626">
              <path id="Trazado_117630" data-name="Trazado 117630" d="M6651.841,4602.106a.523.523,0,0,1-.522-.606c3.168-21.292,13.276-40.151,30.047-56.052a.527.527,0,1,1,.725.766c-16.594,15.734-26.595,34.388-29.728,55.443A.527.527,0,0,1,6651.841,4602.106Z" transform="translate(-6649.837 -4543.829)" fill="#3a3a3a"/>
              <path id="Trazado_117631" data-name="Trazado 117631" d="M6652.468,4604.21a2.176,2.176,0,0,1-.3-.023,2.007,2.007,0,0,1-1.683-2.277c3.217-21.628,13.477-40.773,30.49-56.906a2.025,2.025,0,0,1,1.433-.548,2,2,0,0,1,1.324,3.456c-16.349,15.5-26.2,33.868-29.286,54.589A2.014,2.014,0,0,1,6652.468,4604.21Z" transform="translate(-6650.464 -4544.455)" fill="#3a3a3a"/>
            </g>
          </g>
        </g>
      </g>
      <g id="Grupo_80633" data-name="Grupo 80633" transform="translate(361.281 249.787)">
        <g id="Grupo_80632" data-name="Grupo 80632">
          <g id="Grupo_80631" data-name="Grupo 80631">
            <g id="Grupo_80630" data-name="Grupo 80630">
              <path id="Trazado_117632" data-name="Trazado 117632" d="M6667.595,4639.18a.532.532,0,0,1-.449-.247,138.271,138.271,0,0,1-14.365-36.007.527.527,0,1,1,1.024-.252,137.2,137.2,0,0,0,14.238,35.7.528.528,0,0,1-.169.727A.511.511,0,0,1,6667.595,4639.18Z" transform="translate(-6651.29 -4600.795)" fill="#3a3a3a"/>
              <path id="Trazado_117633" data-name="Trazado 117633" d="M6668.222,4641.284a1.992,1.992,0,0,1-1.7-.946,139.807,139.807,0,0,1-14.546-36.434,2,2,0,1,1,3.891-.955,136.2,136.2,0,0,0,14.059,35.275,2,2,0,0,1-1.7,3.06Zm-.81-1.509,0,.007Zm1.616-.994h0Z" transform="translate(-6651.917 -4601.422)" fill="#3a3a3a"/>
            </g>
          </g>
        </g>
      </g>
      <g id="Grupo_80637" data-name="Grupo 80637" transform="translate(233.327 186.244)">
        <g id="Grupo_80636" data-name="Grupo 80636">
          <g id="Grupo_80635" data-name="Grupo 80635">
            <g id="Grupo_80634" data-name="Grupo 80634">
              <path id="Trazado_117634" data-name="Trazado 117634" d="M6579.739,4704.489a.528.528,0,0,1-.528-.527c0-27.077.771-67.186,4.445-104.5,2.2-22.325,4.429-33.2,4.451-33.3a.527.527,0,1,1,1.032.215c-.021.1-2.243,10.939-4.437,33.221-2.023,20.565-4.437,55.365-4.437,104.361A.527.527,0,0,1,6579.739,4704.489Z" transform="translate(-6577.735 -4564.267)" fill="#3a3a3a"/>
              <path id="Trazado_117635" data-name="Trazado 117635" d="M6580.366,4706.592a2.007,2.007,0,0,1-2-2c0-27.11.773-67.271,4.452-104.639,2.2-22.33,4.451-33.35,4.475-33.458a2,2,0,1,1,3.922.814c-.021.106-2.235,10.943-4.413,33.065-2.02,20.532-4.429,55.279-4.429,104.217A2.007,2.007,0,0,1,6580.366,4706.592Z" transform="translate(-6578.362 -4564.895)" fill="#3a3a3a"/>
            </g>
          </g>
        </g>
      </g>
      <g id="Grupo_80641" data-name="Grupo 80641" transform="translate(147.203 87.173)">
        <g id="Grupo_80640" data-name="Grupo 80640">
          <g id="Grupo_80639" data-name="Grupo 80639">
            <g id="Grupo_80638" data-name="Grupo 80638">
              <path id="Trazado_117636" data-name="Trazado 117636" d="M6538.531,4539.368l-8.246-19.951a7.686,7.686,0,0,1,4.166-10.039h0a7.686,7.686,0,0,1,10.04,4.166l8.246,19.953a7.688,7.688,0,0,1-4.168,10.04h0A7.687,7.687,0,0,1,6538.531,4539.368Z" transform="translate(-6528.227 -4507.315)" fill="#fff"/>
              <path id="Trazado_117637" data-name="Trazado 117637" d="M6546.274,4546.223a9.172,9.172,0,0,1-8.479-5.663h0l-8.247-19.951a9.16,9.16,0,1,1,16.931-7l8.249,19.953a9.171,9.171,0,0,1-4.969,11.965A9.078,9.078,0,0,1,6546.274,4546.223Zm-5.752-6.792a6.21,6.21,0,1,0,11.479-4.743l-8.248-19.952a6.21,6.21,0,0,0-11.478,4.745Z" transform="translate(-6528.854 -4507.943)" fill="#3a3a3a"/>
            </g>
          </g>
        </g>
      </g>
      <g id="Grupo_80645" data-name="Grupo 80645" transform="translate(177.513 351.896)">
        <g id="Grupo_80644" data-name="Grupo 80644">
          <g id="Grupo_80643" data-name="Grupo 80643">
            <g id="Grupo_80642" data-name="Grupo 80642">
              <path id="Trazado_117638" data-name="Trazado 117638" d="M6716.68,4661.685a.754.754,0,0,0-.794-.715l-168.358,8.753-.4,1.531,168.841-8.777A.753.753,0,0,0,6716.68,4661.685Z" transform="translate(-6545.648 -4659.492)" fill="#fff"/>
              <path id="Trazado_117639" data-name="Trazado 117639" d="M6547.752,4673.355a1.473,1.473,0,0,1-1.427-1.848l.4-1.531a1.476,1.476,0,0,1,1.352-1.1l168.358-8.753a2.227,2.227,0,0,1,2.342,2.112h0a2.228,2.228,0,0,1-2.11,2.342l-168.839,8.775Z" transform="translate(-6546.277 -4660.12)" fill="#3a3a3a"/>
            </g>
          </g>
        </g>
      </g>
      <g id="Grupo_80649" data-name="Grupo 80649" transform="translate(134.478 102.416)">
        <g id="Grupo_80648" data-name="Grupo 80648">
          <g id="Grupo_80647" data-name="Grupo 80647">
            <g id="Grupo_80646" data-name="Grupo 80646">
              <path id="Trazado_117640" data-name="Trazado 117640" d="M6536.615,4553.454l-13.235-23.463a7.694,7.694,0,0,1,3.511-10.781l2.107-.96a7.693,7.693,0,0,1,10.192,3.811l11.128,24.421a7.692,7.692,0,0,1-3.81,10.191h0A7.691,7.691,0,0,1,6536.615,4553.454Z" transform="translate(-6520.912 -4516.077)" fill="#fff"/>
              <path id="Trazado_117641" data-name="Trazado 117641" d="M6543.91,4559.484a9.113,9.113,0,0,1-7.954-4.677h0l-13.236-23.462a9.17,9.17,0,0,1,4.185-12.85l2.107-.96a9.169,9.169,0,0,1,12.146,4.541l11.128,24.423a9.2,9.2,0,0,1-8.376,12.984Zm-5.383-6.128a6.218,6.218,0,0,0,11.073-5.634l-11.128-24.422a6.219,6.219,0,0,0-8.236-3.081l-2.108.961a6.22,6.22,0,0,0-2.837,8.715Z" transform="translate(-6521.539 -4516.705)" fill="#3a3a3a"/>
            </g>
          </g>
        </g>
      </g>
      <g id="Grupo_80653" data-name="Grupo 80653" transform="translate(148.404 106.624)">
        <g id="Grupo_80652" data-name="Grupo 80652">
          <g id="Grupo_80651" data-name="Grupo 80651">
            <g id="Grupo_80650" data-name="Grupo 80650">
              <path id="Trazado_117642" data-name="Trazado 117642" d="M6537.4,4555.884a8,8,0,0,1-6.966-4.069.3.3,0,0,1,.524-.3,7.394,7.394,0,0,0,13.169-6.7l-11.131-24.422a.3.3,0,0,1,.552-.248l11.126,24.421a8,8,0,0,1-7.274,11.313Z" transform="translate(-6528.916 -4518.498)" fill="#3a3a3a"/>
              <path id="Trazado_117643" data-name="Trazado 117643" d="M6538.025,4557.984a9.475,9.475,0,0,1-8.252-4.818,1.78,1.78,0,0,1,.674-2.421,1.779,1.779,0,0,1,2.421.675,5.918,5.918,0,0,0,10.54-5.361l-11.13-24.422a1.778,1.778,0,0,1,3.236-1.473l11.127,24.422a9.471,9.471,0,0,1-8.616,13.4Z" transform="translate(-6529.544 -4519.124)" fill="#3a3a3a"/>
            </g>
          </g>
        </g>
      </g>
      <g id="Grupo_80657" data-name="Grupo 80657" transform="translate(316.397 331.917)">
        <g id="Grupo_80656" data-name="Grupo 80656">
          <g id="Grupo_80655" data-name="Grupo 80655">
            <g id="Grupo_80654" data-name="Grupo 80654">
              <path id="Trazado_117644" data-name="Trazado 117644" d="M6674.776,4668.1a49.681,49.681,0,0,0-2.574-8.7,15.683,15.683,0,0,0-20.7-8.66l-21.638,9.146a4.748,4.748,0,0,0-2.177,6.886h0a8.584,8.584,0,0,0,10.166,3.576l14.975-5.082Z" transform="translate(-6625.489 -4648.005)" fill="#fff"/>
              <path id="Trazado_117645" data-name="Trazado 117645" d="M6635.58,4672.934a9.9,9.9,0,0,1-3.82-.759,10.122,10.122,0,0,1-4.7-4,6.221,6.221,0,0,1,2.855-9.025l21.637-9.148a17.159,17.159,0,0,1,22.647,9.479,50.352,50.352,0,0,1,2.656,8.993,1.474,1.474,0,0,1-1.644,1.715l-21.608-2.8-14.65,4.975A10.5,10.5,0,0,1,6635.58,4672.934Zm22.669-21.346a14.2,14.2,0,0,0-5.546,1.135l-21.639,9.147a3.274,3.274,0,0,0-1.5,4.746,7.113,7.113,0,0,0,8.442,2.96l14.974-5.085a1.5,1.5,0,0,1,.663-.066l19.867,2.57a52.142,52.142,0,0,0-2.054-6.43,14.04,14.04,0,0,0-7.687-7.854A14.223,14.223,0,0,0,6658.249,4651.588Z" transform="translate(-6626.116 -4648.636)" fill="#3a3a3a"/>
            </g>
          </g>
        </g>
      </g>
      <g id="Grupo_80661" data-name="Grupo 80661" transform="translate(126.223 119.714)">
        <g id="Grupo_80660" data-name="Grupo 80660">
          <g id="Grupo_80659" data-name="Grupo 80659">
            <g id="Grupo_80658" data-name="Grupo 80658">
              <path id="Trazado_117646" data-name="Trazado 117646" d="M6528.388,4555.343l-9.666-16.227a7.689,7.689,0,0,1,2.67-10.536h0a7.687,7.687,0,0,1,10.537,2.669l9.665,16.228a7.684,7.684,0,0,1-2.671,10.537h0A7.685,7.685,0,0,1,6528.388,4555.343Z" transform="translate(-6516.167 -4526.023)" fill="#fff"/>
              <path id="Trazado_117647" data-name="Trazado 117647" d="M6535.631,4561.194a9.173,9.173,0,0,1-7.887-4.47l-9.664-16.228a9.161,9.161,0,1,1,15.742-9.376l9.664,16.227a9.156,9.156,0,0,1-7.855,13.847Zm-9.692-31.594a6.209,6.209,0,0,0-5.323,9.387l9.664,16.226a6.21,6.21,0,1,0,10.672-6.355l-9.666-16.227A6.21,6.21,0,0,0,6525.939,4529.6Z" transform="translate(-6516.792 -4526.649)" fill="#3a3a3a"/>
            </g>
          </g>
        </g>
      </g>
      <g id="Grupo_80665" data-name="Grupo 80665" transform="translate(136.668 123.164)">
        <g id="Grupo_80664" data-name="Grupo 80664">
          <g id="Grupo_80663" data-name="Grupo 80663">
            <g id="Grupo_80662" data-name="Grupo 80662">
              <path id="Trazado_117648" data-name="Trazado 117648" d="M6530.563,4557.929a8,8,0,0,1-6.876-3.9.3.3,0,0,1,.517-.31,7.385,7.385,0,0,0,12.69-7.557l-9.667-16.227a.3.3,0,0,1,.521-.311l9.663,16.228a7.987,7.987,0,0,1-6.848,12.075Z" transform="translate(-6522.169 -4528.005)" fill="#3a3a3a"/>
              <path id="Trazado_117649" data-name="Trazado 117649" d="M6531.188,4560.031a9.517,9.517,0,0,1-8.141-4.619,1.781,1.781,0,0,1,.615-2.437,1.784,1.784,0,0,1,2.439.619,5.908,5.908,0,0,0,10.15-6.049l-9.665-16.226a1.777,1.777,0,1,1,3.053-1.819l9.666,16.228a9.461,9.461,0,0,1-8.116,14.3h0Zm-7.623-4.928,0,0Zm5.557-25.3v0Z" transform="translate(-6522.797 -4528.633)" fill="#3a3a3a"/>
            </g>
          </g>
        </g>
      </g>
      <g id="Grupo_80669" data-name="Grupo 80669" transform="translate(319.207 345.632)">
        <g id="Grupo_80668" data-name="Grupo 80668">
          <g id="Grupo_80667" data-name="Grupo 80667">
            <g id="Grupo_80666" data-name="Grupo 80666">
              <path id="Trazado_117650" data-name="Trazado 117650" d="M6676.391,4683l1.882-9.137a9.022,9.022,0,0,0-.046-3.948,14.982,14.982,0,0,0-11.111-11.021l-4.253-1a19.583,19.583,0,0,0-17.168,4.132l-14.291,12.108c-6.9,5.855.1,12.292,7.553,11.236a15.856,15.856,0,0,0,2.221-.475c6.454-1.9,17.864-11.534,17.864-11.534Z" transform="translate(-6627.103 -4655.895)" fill="#fff"/>
              <path id="Trazado_117651" data-name="Trazado 117651" d="M6637.969,4687.579c-4.277,0-8.253-2.1-9.686-5.284-1.3-2.9-.282-6.054,2.795-8.665l14.289-12.112a21.135,21.135,0,0,1,18.462-4.439l4.254,1a16.37,16.37,0,0,1,12.2,12.107,10.522,10.522,0,0,1,.061,4.594l-1.883,9.139a1.474,1.474,0,0,1-2.162.991l-16.469-9.151c-2.739,2.243-11.869,9.478-17.612,11.167a16.675,16.675,0,0,1-2.428.521A12.8,12.8,0,0,1,6637.969,4687.579Zm21.053-28.108a18.182,18.182,0,0,0-11.745,4.3l-14.29,12.112c-1.437,1.218-2.951,3.111-2.01,5.205.962,2.142,4.365,4.013,8.4,3.442a14.254,14.254,0,0,0,2.01-.429c6.082-1.79,17.216-11.152,17.33-11.246a1.472,1.472,0,0,1,1.668-.161l15.595,8.665,1.476-7.169a7.546,7.546,0,0,0-.035-3.3,13.434,13.434,0,0,0-10.017-9.934l-4.251-1A17.981,17.981,0,0,0,6659.022,4659.471Z" transform="translate(-6627.731 -4656.52)" fill="#3a3a3a"/>
            </g>
          </g>
        </g>
      </g>
      <g id="Grupo_80673" data-name="Grupo 80673" transform="translate(328.379 355.47)">
        <g id="Grupo_80672" data-name="Grupo 80672">
          <g id="Grupo_80671" data-name="Grupo 80671">
            <g id="Grupo_80670" data-name="Grupo 80670">
              <path id="Trazado_117652" data-name="Trazado 117652" d="M6674.569,4684.575s.03-12.857-3.161-16.515a14.285,14.285,0,0,0-20.569-1.246l-15.631,14.68a4.468,4.468,0,0,0,.35,6.716h0a8.1,8.1,0,0,0,4.553,1.766,7.762,7.762,0,0,0,5.331-1.748l11.219-9.066Z" transform="translate(-6632.376 -4661.549)" fill="#fff"/>
              <path id="Trazado_117653" data-name="Trazado 117653" d="M6641.188,4692.091c-.179,0-.359,0-.539-.018a9.506,9.506,0,0,1-5.385-2.085,6.006,6.006,0,0,1-2.255-4.461,5.832,5.832,0,0,1,1.814-4.483l15.631-14.678a15.382,15.382,0,0,1,11.388-4.171,15.947,15.947,0,0,1,11.3,5.521c3.458,3.963,3.532,16.115,3.528,17.491a1.477,1.477,0,0,1-1.9,1.408l-17.164-5.187L6647,4690A9.243,9.243,0,0,1,6641.188,4692.091Zm19.861-26.965a12.424,12.424,0,0,0-8.573,3.39l-15.631,14.68a2.828,2.828,0,0,0-.887,2.216,3.058,3.058,0,0,0,1.148,2.271,6.549,6.549,0,0,0,3.722,1.445,6.257,6.257,0,0,0,4.313-1.422l11.219-9.065a1.483,1.483,0,0,1,1.356-.265l15.97,4.827c-.171-4.827-.969-11.491-2.764-13.546a13.021,13.021,0,0,0-9.228-4.516Q6661.372,4665.125,6661.049,4665.126Z" transform="translate(-6633.004 -4662.175)" fill="#3a3a3a"/>
            </g>
          </g>
        </g>
      </g>
      <g id="Grupo_80677" data-name="Grupo 80677" transform="translate(337.093 367.227)">
        <g id="Grupo_80676" data-name="Grupo 80676">
          <g id="Grupo_80675" data-name="Grupo 80675">
            <g id="Grupo_80674" data-name="Grupo 80674">
              <path id="Trazado_117654" data-name="Trazado 117654" d="M6671.078,4676.739c-3.59-7.122-11.6-8.986-16.848-4.616l-14,11.66c-1.738,1.451-1.846,4.574-.225,6.577h0a7.156,7.156,0,0,0,3.618,2.468,5.33,5.33,0,0,0,4.524-.812l6.894-5.38c9.685-6.769,6.821-1.647,12.553,10.095C6667.6,4696.731,6675.69,4685.888,6671.078,4676.739Z" transform="translate(-6637.385 -4668.308)" fill="#fff"/>
              <path id="Trazado_117655" data-name="Trazado 117655" d="M6668.227,4698.834a1.313,1.313,0,0,1-.138-.007,1.469,1.469,0,0,1-1.187-.821,66.4,66.4,0,0,1-3.31-8.3c-.63-1.867-1.28-3.8-1.809-3.969-.416-.138-1.661.226-5.232,2.718l-6.863,5.354-.062.046a6.772,6.772,0,0,1-5.759,1.028,8.61,8.61,0,0,1-4.374-2.964c-2.132-2.634-1.935-6.672.426-8.64l14-11.662a11.525,11.525,0,0,1,9.767-2.436,13.762,13.762,0,0,1,9.345,7.522c2.075,4.117,2.094,9.171.052,14.609a30.648,30.648,0,0,1-3.667,6.93A1.471,1.471,0,0,1,6668.227,4698.834Zm-6.583-16.071a3.377,3.377,0,0,1,1.061.168c1.928.634,2.627,2.7,3.685,5.828.525,1.557,1.145,3.392,2.046,5.5,1.946-3.454,4.925-10.339,1.954-16.232h0a10.828,10.828,0,0,0-7.31-5.96,8.457,8.457,0,0,0-7.275,1.811l-14,11.662c-1.107.924-1.118,3.161-.02,4.516a5.666,5.666,0,0,0,2.858,1.973,3.864,3.864,0,0,0,3.261-.579l6.86-5.354.062-.044C6657.8,4683.974,6659.906,4682.763,6661.644,4682.763Z" transform="translate(-6638.012 -4668.934)" fill="#3a3a3a"/>
            </g>
          </g>
        </g>
      </g>
      <g id="Grupo_80681" data-name="Grupo 80681" transform="translate(407.567 276.455)">
        <g id="Grupo_80680" data-name="Grupo 80680">
          <g id="Grupo_80679" data-name="Grupo 80679">
            <g id="Grupo_80678" data-name="Grupo 80678">
              <path id="Trazado_117656" data-name="Trazado 117656" d="M6679.9,4650.7a.527.527,0,0,1-.384-.889,112.1,112.1,0,0,1,17.9-14.579,117.364,117.364,0,0,1,20.273-10.874,95.116,95.116,0,0,1,26-6.75.527.527,0,0,1,.113,1.049,94.031,94.031,0,0,0-25.692,6.67,116.235,116.235,0,0,0-20.085,10.767,112.788,112.788,0,0,0-17.739,14.439A.527.527,0,0,1,6679.9,4650.7Z" transform="translate(-6677.898 -4616.125)" fill="#3a3a3a"/>
              <path id="Trazado_117657" data-name="Trazado 117657" d="M6680.528,4652.8a2,2,0,0,1-1.462-3.374,113.276,113.276,0,0,1,18.159-14.8,118.634,118.634,0,0,1,20.531-11.009,96.575,96.575,0,0,1,26.4-6.854,2,2,0,0,1,2.206,1.781,2,2,0,0,1-1.776,2.2,92.457,92.457,0,0,0-25.289,6.569,114.539,114.539,0,0,0-19.827,10.629,111.235,111.235,0,0,0-17.481,14.22A2.02,2.02,0,0,1,6680.528,4652.8Z" transform="translate(-6678.526 -4616.753)" fill="#3a3a3a"/>
            </g>
          </g>
        </g>
      </g>
      <g id="Grupo_80685" data-name="Grupo 80685" transform="translate(408.58 280.247)">
        <g id="Grupo_80684" data-name="Grupo 80684">
          <g id="Grupo_80683" data-name="Grupo 80683">
            <g id="Grupo_80682" data-name="Grupo 80682">
              <path id="Trazado_117658" data-name="Trazado 117658" d="M6680.485,4644.652a.531.531,0,0,1-.508-.676l6.991-23.815a.528.528,0,1,1,1.013.3l-6.992,23.813A.522.522,0,0,1,6680.485,4644.652Z" transform="translate(-6678.48 -4618.305)" fill="#3a3a3a"/>
              <path id="Trazado_117659" data-name="Trazado 117659" d="M6681.113,4646.755a2.007,2.007,0,0,1-1.925-2.567l6.992-23.814a2,2,0,1,1,3.844,1.128l-6.99,23.814A2.014,2.014,0,0,1,6681.113,4646.755Z" transform="translate(-6679.108 -4618.933)" fill="#3a3a3a"/>
            </g>
          </g>
        </g>
      </g>
      <g id="Grupo_80689" data-name="Grupo 80689" transform="translate(0 179.434)">
        <g id="Grupo_80688" data-name="Grupo 80688">
          <g id="Grupo_80687" data-name="Grupo 80687">
            <g id="Grupo_80686" data-name="Grupo 80686">
              <path id="Trazado_117660" data-name="Trazado 117660" d="M6557.426,4561.828l-14.766,12.817s-19.628-11.313-61.864,27.942c-8.968,8.335-17.788,19.26-25.572,30.136a54.234,54.234,0,0,0,9.911,73.679h0a47.057,47.057,0,0,0,49.351,6.205l85.16-39.234-5.894-90.153S6565.084,4591.226,6557.426,4561.828Z" transform="translate(-6443.604 -4560.353)" fill="#fef536"/>
              <path id="Trazado_117661" data-name="Trazado 117661" d="M6495.433,4719.029a48.529,48.529,0,0,1-30.6-10.853,55.715,55.715,0,0,1-10.182-75.684c9.088-12.7,17.76-22.911,25.771-30.356,17.717-16.47,33.691-26.246,47.479-29.058,8.126-1.66,13.133-.316,15.132.465l14.054-12.2a1.476,1.476,0,0,1,2.4.74c2.1,8.046,6.13,13.747,11.989,16.942,10.55,5.756,23.7,1.549,23.833,1.5a1.475,1.475,0,0,1,1.933,1.328l4.509,92.072a1.473,1.473,0,0,1-.854,1.412l-85.159,39.235A48.507,48.507,0,0,1,6495.433,4719.029Zm39.86-143.783a34.422,34.422,0,0,0-7.205.809c-9.055,1.938-24.324,8.413-45.659,28.242-7.865,7.311-16.406,17.377-25.38,29.913a52.839,52.839,0,0,0,9.644,71.674,45.589,45.589,0,0,0,47.8,6.012l84.254-38.818-4.37-89.23c-4.242,1.038-14.971,2.86-24.3-2.22-6.04-3.287-10.337-8.846-12.8-16.544l-13.024,11.306a1.472,1.472,0,0,1-1.7.165A16.438,16.438,0,0,0,6535.293,4575.246Z" transform="translate(-6444.233 -4560.979)" fill="#3a3a3a"/>
            </g>
          </g>
        </g>
      </g>
      <g id="Grupo_80693" data-name="Grupo 80693" transform="translate(81.996 199.069)">
        <g id="Grupo_80692" data-name="Grupo 80692">
          <g id="Grupo_80691" data-name="Grupo 80691">
            <g id="Grupo_80690" data-name="Grupo 80690">
              <path id="Trazado_117662" data-name="Trazado 117662" d="M6492.744,4687.188a.526.526,0,0,1-.367-.9c.065-.066,6.7-6.56,14.663-15.286,7.342-8.043,17.344-19.684,23.308-29.45a53.877,53.877,0,0,0,7.059-17.981,50.18,50.18,0,0,0,.575-15.07,44.458,44.458,0,0,0-3.879-14.238.528.528,0,0,1,.057-.573l16.313-20.37a.528.528,0,1,1,.825.658l-16.1,20.108a46,46,0,0,1,3.833,14.253,51.38,51.38,0,0,1-.576,15.4,54.934,54.934,0,0,1-7.2,18.364c-6.008,9.839-16.06,21.536-23.433,29.617-7.981,8.746-14.635,15.257-14.7,15.323A.526.526,0,0,1,6492.744,4687.188Z" transform="translate(-6490.741 -4571.639)" fill="#3a3a3a"/>
              <path id="Trazado_117663" data-name="Trazado 117663" d="M6493.372,4689.29a2.015,2.015,0,0,1-1.432-.6,2,2,0,0,1,.034-2.836c.278-.273,6.854-6.73,14.6-15.224,7.3-8,17.236-19.558,23.139-29.224a52.446,52.446,0,0,0,6.87-17.49,48.816,48.816,0,0,0,.558-14.628,43.5,43.5,0,0,0-3.721-13.724,2,2,0,0,1,.212-2.175l16.313-20.372a2,2,0,1,1,3.128,2.5l-15.533,19.4a49.112,49.112,0,0,1,3.578,13.873,52.81,52.81,0,0,1-.594,15.844,56.416,56.416,0,0,1-7.393,18.856c-6.069,9.941-16.183,21.715-23.6,29.844-8.052,8.824-14.7,15.322-14.762,15.384A1.986,1.986,0,0,1,6493.372,4689.29Zm.674-1.335,0,0Z" transform="translate(-6491.369 -4572.267)" fill="#3a3a3a"/>
            </g>
          </g>
        </g>
      </g>
      <g id="Grupo_80697" data-name="Grupo 80697" transform="translate(261.683 2.845)">
        <g id="Grupo_80696" data-name="Grupo 80696">
          <g id="Grupo_80695" data-name="Grupo 80695">
            <g id="Grupo_80694" data-name="Grupo 80694">
              <path id="Trazado_117664" data-name="Trazado 117664" d="M6594.663,4461.333h0Zm.346-1.866h0Z" transform="translate(-6594.663 -4459.466)" fill="#3a3a3a"/>
            </g>
          </g>
        </g>
      </g>
      <g id="Grupo_80706" data-name="Grupo 80706" transform="translate(214.691 334.602)">
        <g id="Grupo_80701" data-name="Grupo 80701" transform="translate(0 1.766)">
          <g id="Grupo_80700" data-name="Grupo 80700">
            <g id="Grupo_80699" data-name="Grupo 80699">
              <g id="Grupo_80698" data-name="Grupo 80698">
                <path id="Trazado_117665" data-name="Trazado 117665" d="M6569.186,4767.421c.022,0,.046,0,.068,0a.753.753,0,0,0,.749-.687l10.035-114.692-1.523.1L6568.5,4766.6A.753.753,0,0,0,6569.186,4767.421Z" transform="translate(-6567.021 -4650.566)" fill="#fff"/>
                <path id="Trazado_117666" data-name="Trazado 117666" d="M6569.882,4769.528c-.066,0-.131-.006-.2-.011h0a2.228,2.228,0,0,1-2.026-2.415l10.015-114.455a1.48,1.48,0,0,1,1.367-1.345l1.524-.105a1.478,1.478,0,0,1,1.572,1.6L6572.1,4767.491A2.217,2.217,0,0,1,6569.882,4769.528Zm.064-2.949h0Z" transform="translate(-6567.649 -4651.194)" fill="#3a3a3a"/>
              </g>
            </g>
          </g>
        </g>
        <g id="Grupo_80705" data-name="Grupo 80705" transform="translate(28.51)">
          <g id="Grupo_80704" data-name="Grupo 80704">
            <g id="Grupo_80703" data-name="Grupo 80703">
              <g id="Grupo_80702" data-name="Grupo 80702">
                <path id="Trazado_117667" data-name="Trazado 117667" d="M6585.578,4729.773a.754.754,0,0,0,.815-.685l6.831-78.062-1.523.106-6.811,77.824A.753.753,0,0,0,6585.578,4729.773Z" transform="translate(-6583.411 -4649.552)" fill="#fff"/>
                <path id="Trazado_117668" data-name="Trazado 117668" d="M6586.27,4731.879c-.062,0-.126,0-.192-.007v0a2.234,2.234,0,0,1-2.03-2.416l6.812-77.822a1.475,1.475,0,0,1,1.368-1.343l1.521-.107a1.477,1.477,0,0,1,1.575,1.6l-6.831,78.063A2.234,2.234,0,0,1,6586.27,4731.879Z" transform="translate(-6584.039 -4650.179)" fill="#3a3a3a"/>
              </g>
            </g>
          </g>
        </g>
      </g>
      <g id="Grupo_80715" data-name="Grupo 80715" transform="translate(115.146 133.693)">
        <g id="Grupo_80710" data-name="Grupo 80710">
          <g id="Grupo_80709" data-name="Grupo 80709">
            <g id="Grupo_80708" data-name="Grupo 80708">
              <g id="Grupo_80707" data-name="Grupo 80707">
                <path id="Trazado_117669" data-name="Trazado 117669" d="M6522.646,4556.672l-9.611-10.212a6.484,6.484,0,0,1,.275-9.167h0a6.481,6.481,0,0,1,9.164.278l9.614,10.213a6.485,6.485,0,0,1-.275,9.165h0A6.485,6.485,0,0,1,6522.646,4556.672Z" transform="translate(-6509.799 -4534.059)" fill="#fff"/>
                <path id="Trazado_117670" data-name="Trazado 117670" d="M6528,4560.814c-.081,0-.162,0-.243,0a7.907,7.907,0,0,1-5.557-2.5h0l-9.612-10.214a7.959,7.959,0,1,1,11.592-10.91l9.612,10.211a7.96,7.96,0,0,1-5.792,13.417Zm-3.651-4.528a5.009,5.009,0,1,0,7.295-6.866l-9.613-10.212a5.009,5.009,0,1,0-7.295,6.866Z" transform="translate(-6510.425 -4534.685)" fill="#3a3a3a"/>
              </g>
            </g>
          </g>
        </g>
        <g id="Grupo_80714" data-name="Grupo 80714" transform="translate(10.9 1.735)">
          <g id="Grupo_80713" data-name="Grupo 80713">
            <g id="Grupo_80712" data-name="Grupo 80712">
              <g id="Grupo_80711" data-name="Grupo 80711">
                <path id="Trazado_117671" data-name="Trazado 117671" d="M6522.737,4558.275l-.21,0a6.75,6.75,0,0,1-4.737-2.132.3.3,0,0,1,.44-.413,6.183,6.183,0,1,0,9-8.477l-9.612-10.211a.3.3,0,0,1,.44-.414l9.612,10.212a6.786,6.786,0,0,1-4.937,11.438Z" transform="translate(-6516.063 -4535.056)" fill="#3a3a3a"/>
                <path id="Trazado_117672" data-name="Trazado 117672" d="M6523.365,4560.378c-.085,0-.168,0-.251,0a8.215,8.215,0,0,1-5.77-2.6,1.776,1.776,0,0,1,.076-2.514,1.775,1.775,0,0,1,2.513.078,4.707,4.707,0,1,0,6.854-6.454l-9.612-10.213a1.777,1.777,0,0,1,2.587-2.436l9.613,10.212a8.263,8.263,0,0,1-6.011,13.926Z" transform="translate(-6516.691 -4535.683)" fill="#3a3a3a"/>
              </g>
            </g>
          </g>
        </g>
      </g>
      <g id="Grupo_80719" data-name="Grupo 80719" transform="translate(336.795 366.925)">
        <g id="Grupo_80718" data-name="Grupo 80718">
          <g id="Grupo_80717" data-name="Grupo 80717">
            <g id="Grupo_80716" data-name="Grupo 80716">
              <path id="Trazado_117673" data-name="Trazado 117673" d="M6640.138,4690.791a.3.3,0,0,1-.234-.111c-1.715-2.121-1.59-5.454.264-7l14-11.662a10.345,10.345,0,0,1,8.774-2.189,12.584,12.584,0,0,1,8.535,6.9.3.3,0,0,1-.133.4.3.3,0,0,1-.406-.132,11.987,11.987,0,0,0-8.119-6.582,9.621,9.621,0,0,0-8.266,2.06l-14,11.662c-1.615,1.345-1.7,4.279-.183,6.155a.3.3,0,0,1-.233.493Z" transform="translate(-6637.211 -4668.133)" fill="#3a3a3a"/>
              <path id="Trazado_117674" data-name="Trazado 117674" d="M6640.767,4692.892a1.765,1.765,0,0,1-1.382-.66c-2.232-2.757-2.015-6.991.469-9.06l13.994-11.662a11.814,11.814,0,0,1,10.021-2.5,14.05,14.05,0,0,1,9.552,7.681,1.777,1.777,0,1,1-3.174,1.6,10.532,10.532,0,0,0-7.1-5.8,8.172,8.172,0,0,0-7.023,1.75l-14,11.662c-.992.826-.982,2.854.02,4.094a1.775,1.775,0,0,1-.263,2.5A1.778,1.778,0,0,1,6640.767,4692.892Zm-.911-1.038h0Zm1.823-1.478h0Z" transform="translate(-6637.841 -4668.76)" fill="#3a3a3a"/>
            </g>
          </g>
        </g>
      </g>
      <g id="Grupo_80723" data-name="Grupo 80723" transform="translate(329.434 355.187)">
        <g id="Grupo_80722" data-name="Grupo 80722">
          <g id="Grupo_80721" data-name="Grupo 80721">
            <g id="Grupo_80720" data-name="Grupo 80720">
              <path id="Trazado_117675" data-name="Trazado 117675" d="M6634.759,4681.918a.3.3,0,0,1-.219-.1.3.3,0,0,1,.013-.425l15.63-14.681a15.355,15.355,0,0,1,14.205-3.31c3.185.937,7.335,3.469,9.027,10.226a.3.3,0,1,1-.587.146c-1.621-6.479-5.577-8.9-8.609-9.794a14.721,14.721,0,0,0-13.622,3.172l-15.63,14.68A.309.309,0,0,1,6634.759,4681.918Z" transform="translate(-6632.983 -4661.387)" fill="#3a3a3a"/>
              <path id="Trazado_117676" data-name="Trazado 117676" d="M6635.386,4684.018a1.776,1.776,0,0,1-1.217-3.071l15.632-14.681a16.884,16.884,0,0,1,15.629-3.649c3.555,1.043,8.184,3.851,10.044,11.283a1.777,1.777,0,0,1-3.448.863c-.8-3.2-2.771-7.319-7.6-8.738a13.179,13.179,0,0,0-12.2,2.834l-15.631,14.678A1.764,1.764,0,0,1,6635.386,4684.018Zm-.8-2.634v0Z" transform="translate(-6633.609 -4662.012)" fill="#3a3a3a"/>
            </g>
          </g>
        </g>
      </g>
      <g id="Grupo_80727" data-name="Grupo 80727" transform="translate(336.022 345.292)">
        <g id="Grupo_80726" data-name="Grupo 80726">
          <g id="Grupo_80725" data-name="Grupo 80725">
            <g id="Grupo_80724" data-name="Grupo 80724">
              <path id="Trazado_117677" data-name="Trazado 117677" d="M6666.433,4662.716a.294.294,0,0,1-.139-.034c-.065-.034-6.482-3.376-10.649-4.358a18.844,18.844,0,0,0-16.9,4.068.3.3,0,0,1-.391-.461,19.443,19.443,0,0,1,17.435-4.194c4.24,1,10.521,4.272,10.788,4.41a.3.3,0,0,1,.127.407A.3.3,0,0,1,6666.433,4662.716Z" transform="translate(-6636.771 -4655.695)" fill="#3a3a3a"/>
              <path id="Trazado_117678" data-name="Trazado 117678" d="M6667.06,4664.822a1.8,1.8,0,0,1-.82-.2c-.064-.035-6.339-3.3-10.3-4.232a17.418,17.418,0,0,0-15.611,3.754,1.777,1.777,0,1,1-2.3-2.708,20.878,20.878,0,0,1,18.729-4.506c4.438,1.047,10.862,4.4,11.133,4.54a1.777,1.777,0,0,1-.824,3.353Zm.545-2.818h0Z" transform="translate(-6637.397 -4656.325)" fill="#3a3a3a"/>
            </g>
          </g>
        </g>
      </g>
    </g>
  </g>
</svg>
