<svg xmlns="http://www.w3.org/2000/svg" width="85" height="94" viewBox="0 0 85 94">
  <g id="Grupo_157448" data-name="Grupo 157448" transform="translate(-180 -421)">
    <g id="Grupo_80736" data-name="Grupo 80736" transform="translate(0 -558)">
      <path id="Rectángulo_33876" data-name="Rectángulo 33876" d="M20,0H85a0,0,0,0,1,0,0V74A20,20,0,0,1,65,94H0a0,0,0,0,1,0,0V20A20,20,0,0,1,20,0Z" transform="translate(180 979)" fill="#64b5f6"/>
      <g id="Grupo_80735" data-name="Grupo 80735" transform="translate(194.362 997.465)">
        <circle id="Elipse_4740" data-name="Elipse 4740" cx="28.345" cy="28.345" r="28.345" transform="translate(0 0)" fill="#fff"/>
        <g id="Grupo_80325" data-name="Grupo 80325" transform="translate(9.739 7.502)">
          <path id="Trazado_115419" data-name="Trazado 115419" d="M-1362.867,1293.5c-2.153.632-4.649.152-6.838-.036s-5.161-.715-7.088.605a1.668,1.668,0,0,0,0,2.848,12.268,12.268,0,0,0,3.713.933c1.236.225,2.462.491,3.695.73,2.514.486,5.467.939,7.973.2C-1358.041,1297.788-1359.474,1292.508-1362.867,1293.5Z" transform="translate(1383.802 -1264.191)" opacity="0.2"/>
          <g id="Grupo_80324" data-name="Grupo 80324" transform="translate(0 0)">
            <g id="Grupo_80322" data-name="Grupo 80322" transform="translate(0.41 0.41)">
              <path id="Trazado_115420" data-name="Trazado 115420" d="M-1397.434,1214.867l7.644,12.2-2.221,10.206,8.772-.924,8.774,11.055-2.219-12.769,7.643-3.372-10.147-6.968-4.05-13.139-4.05,8.462Z" transform="translate(1397.434 -1206.532)" fill="#fef536"/>
              <path id="Trazado_115421" data-name="Trazado 115421" d="M-1397.434,1212.671l10.146,4.748,3.272-6.834-5.414-2.535Z" transform="translate(1397.434 -1204.336)" fill="#c2c7cc"/>
              <path id="Trazado_115422" data-name="Trazado 115422" d="M-1348.866,1199.965l4.05,13.139,8-4.621-4.05-13.139Z" transform="translate(1363.062 -1195.344)" fill="#969a9e"/>
              <path id="Trazado_115423" data-name="Trazado 115423" d="M-1335.01,1244.915l10.147,6.968,8-4.619-10.146-6.969Z" transform="translate(1353.256 -1227.155)" fill="#c2c7cc"/>
              <path id="Trazado_115424" data-name="Trazado 115424" d="M-1326.441,1282.584l2.219,12.769,8-4.619-2.057-11.822-.523.3Z" transform="translate(1347.192 -1254.485)" fill="#ba68c8"/>
            </g>
            <g id="Grupo_80323" data-name="Grupo 80323">
              <path id="Trazado_115425" data-name="Trazado 115425" d="M-1375.455,1246.818a.41.41,0,0,1-.321-.155l-8.634-10.878-8.549.9a.408.408,0,0,1-.348-.134.409.409,0,0,1-.1-.36l2.185-10.043-7.556-12.055a.409.409,0,0,1,.04-.489.41.41,0,0,1,.48-.1l9.778,4.576,3.875-8.1a.4.4,0,0,1,.4-.232.41.41,0,0,1,.361.287l4.008,13,10.03,6.887a.409.409,0,0,1,.176.376.409.409,0,0,1-.242.337l-7.35,3.242,2.165,12.453a.41.41,0,0,1-.236.444A.407.407,0,0,1-1375.455,1246.818Zm-8.774-11.874a.409.409,0,0,1,.321.155l7.774,9.795-1.944-11.184a.409.409,0,0,1,.238-.445l6.97-3.075-9.541-6.552a.41.41,0,0,1-.16-.217l-3.741-12.137-3.6,7.517a.41.41,0,0,1-.543.194l-8.887-4.159,6.906,11.018a.41.41,0,0,1,.053.305l-2.1,9.652,8.208-.865Z" transform="translate(1398.835 -1205.131)" fill="#373a3a"/>
              <path id="Trazado_115426" data-name="Trazado 115426" d="M-1335.661,1219.489a.409.409,0,0,1-.355-.2.409.409,0,0,1,.15-.559l7.438-4.295-9.61-6.6a.409.409,0,0,1-.16-.217l-3.9-12.648-7.557,4.364a.41.41,0,0,1-.559-.15.41.41,0,0,1,.15-.56l8-4.621a.41.41,0,0,1,.354-.027.41.41,0,0,1,.242.261l4.008,13,10.028,6.888a.41.41,0,0,1,.177.354.41.41,0,0,1-.2.339l-8,4.619A.406.406,0,0,1-1335.661,1219.489Z" transform="translate(1364.464 -1193.942)" fill="#373a3a"/>
              <path id="Trazado_115427" data-name="Trazado 115427" d="M-1319.841,1294.771a.409.409,0,0,1-.355-.2.41.41,0,0,1,.15-.559l7.756-4.477-2.007-11.54a.409.409,0,0,1,.333-.474.41.41,0,0,1,.474.333l2.056,11.822a.41.41,0,0,1-.2.425l-8,4.619A.407.407,0,0,1-1319.841,1294.771Z" transform="translate(1343.221 -1253.084)" fill="#373a3a"/>
              <path id="Trazado_115428" data-name="Trazado 115428" d="M-1398.425,1212.089a.409.409,0,0,1-.355-.2.409.409,0,0,1,.15-.559l8-4.621a.41.41,0,0,1,.379-.016l5.415,2.535a.409.409,0,0,1,.2.545.409.409,0,0,1-.545.2l-5.221-2.445-7.818,4.514A.405.405,0,0,1-1398.425,1212.089Z" transform="translate(1398.835 -1202.935)" fill="#373a3a"/>
              <path id="Trazado_115429" data-name="Trazado 115429" d="M-1336,1244.333a.409.409,0,0,1-.355-.2.41.41,0,0,1,.15-.56l8-4.621a.41.41,0,0,1,.56.15.41.41,0,0,1-.15.56l-8,4.621A.408.408,0,0,1-1336,1244.333Z" transform="translate(1354.658 -1225.754)" fill="#373a3a"/>
            </g>
          </g>
        </g>
      </g>
    </g>
  </g>
</svg>
