<svg id="Grupo_80454" data-name="Grupo 80454" xmlns="http://www.w3.org/2000/svg" width="38.179" height="41.895" viewBox="0 0 38.179 41.895">
  <path id="Trazado_116670" data-name="Trazado 116670" d="M-1058.314,1887.531a9.331,9.331,0,0,0,4.852-.095,15.923,15.923,0,0,0,3.936-1.244c2.218-1.125,3.866-3.1,5.447-5.016a52.036,52.036,0,0,0,3.338-4.352,26.179,26.179,0,0,0,4.306-13.886,8.065,8.065,0,0,0-1.317-5.225c-1.194-1.5-3.155-2.125-5-2.635a10.742,10.742,0,0,0-4.007-.556,9.58,9.58,0,0,0-3.233,1.125,30.977,30.977,0,0,0-3.72,2.229,14.3,14.3,0,0,0-3.206,2.925,18.4,18.4,0,0,0-1.851,3.228c-2.395,4.952-4.663,10.161-4.751,15.661A8.089,8.089,0,0,0-1058.314,1887.531Z" transform="translate(1073.98 -1847.799)" fill="#64b5f6"/>
  <path id="Trazado_116671" data-name="Trazado 116671" d="M-1031.292,1829.278c.183-.07.372-.125.558-.187l-.031-.035Z" transform="translate(1049.114 -1828.181)" fill="#e0dfe6"/>
  <path id="Trazado_116672" data-name="Trazado 116672" d="M-1081.719,1831.115c-2.39-1.379-5.7-1.179-9.347.924-7.307,4.22-13.225,14.473-13.225,22.9,0,4.216,1.479,7.179,3.87,8.563l9.278,5.358c-2.286-1.425-3.692-4.343-3.692-8.454,0-8.436,5.918-18.689,13.226-22.9,3.578-2.067,6.824-2.3,9.205-1.006Z" transform="translate(1105.429 -1829.092)" fill="#d7dce0"/>
  <path id="Trazado_116673" data-name="Trazado 116673" d="M-1031.688,1901.992l-4.767-2.754-1.844,3.191,6.656,3.842,7.958-14.423-1.889-.979Z" transform="translate(1054.519 -1875.867)" fill="#fff"/>
  <path id="Trazado_116674" data-name="Trazado 116674" d="M-1065.623,1875.693c0-8.059,5.677-17.892,12.656-21.918,3.1-1.79,5.973-2.142,8.092-.992h0l-4.73-2.735a14.769,14.769,0,0,0-4.5,1.757c-7.606,4.389-13.795,15.105-13.795,23.89a14.787,14.787,0,0,0,.726,4.768l4.673,2.7C-1064.513,1881.881-1065.623,1879.233-1065.623,1875.693Z" transform="translate(1077.355 -1844.374)" fill="#3a3a3a"/>
  <path id="Trazado_116675" data-name="Trazado 116675" d="M-1025.028,1855.186a1.139,1.139,0,0,1-1.545.451l-.018-.01c2.129,1.233,3.3,3.923,3.3,7.575a26.211,26.211,0,0,1-4.017,12.954,25.454,25.454,0,0,1-8.635,8.96c-3.032,1.751-5.864,2.126-7.941,1.075l-.285-.156a1.087,1.087,0,0,1,.128.09,1.126,1.126,0,0,1,.593.487,1.138,1.138,0,0,1-.4,1.558l-.506.3a8.145,8.145,0,0,0,3.071.579,13.145,13.145,0,0,0,6.481-1.96,27.526,27.526,0,0,0,9.2-9.364c-.123.034-.247.062-.369.1a1.137,1.137,0,0,1-1.438-.722,1.138,1.138,0,0,1,.723-1.438,9.736,9.736,0,0,1,2.511-.472,26.972,26.972,0,0,0,3.159-11.992c0-4.5-1.578-7.893-4.443-9.549l-.012-.005A1.138,1.138,0,0,1-1025.028,1855.186Z" transform="translate(1059.192 -1847.152)" fill="#3a3a3a"/>
  <path id="Trazado_116676" data-name="Trazado 116676" d="M-1046.566,1996.235a1.125,1.125,0,0,0-.593-.487,1.135,1.135,0,0,1,.3,1.459,1.138,1.138,0,0,1-.993.58,1.134,1.134,0,0,1-.55-.143l.006,0,.331.181c.192.1.388.183.587.263l.505-.3A1.138,1.138,0,0,0-1046.566,1996.235Z" transform="translate(1062.311 -1956.775)" fill="#3a3a3a"/>
  <path id="Trazado_116677" data-name="Trazado 116677" d="M-970.4,1949.829a1.137,1.137,0,0,0,1.438.723c.122-.04.246-.069.369-.1.081-.131.164-.261.243-.393.425-.7.818-1.418,1.184-2.136a9.731,9.731,0,0,0-2.512.472A1.138,1.138,0,0,0-970.4,1949.829Z" transform="translate(1002.182 -1919.877)" fill="#3a3a3a"/>
  <path id="Trazado_116678" data-name="Trazado 116678" d="M-1044.274,1994.927l.033.023c.016.01.029.024.045.035s.051.019.076.032l.015.009h0Z" transform="translate(1059.129 -1956.141)" fill="#3a3a3a"/>
  <path id="Trazado_116679" data-name="Trazado 116679" d="M-967.158,1862.018l.12.066,0,0c-.018-.01-.031-.024-.048-.035s-.045-.016-.067-.028Z" transform="translate(999.639 -1853.609)" fill="#3a3a3a"/>
  <path id="Trazado_116680" data-name="Trazado 116680" d="M-1099.089,1861.315l-4.6-2.657c-2.129-1.233-3.3-3.924-3.3-7.578,0-8.055,5.678-17.888,12.656-21.918,3.167-1.824,6.082-2.152,8.209-.925l4.607,2.664a8.522,8.522,0,0,1,5.82.737c.026.014.047.033.072.048s.057.023.084.038l-.011-.007-9.434-5.451c-2.861-1.651-6.583-1.323-10.485.924-7.606,4.393-13.794,15.11-13.794,23.89,0,4.5,1.576,7.891,4.438,9.549l8.057,4.653.156-.092A8.979,8.979,0,0,1-1099.089,1861.315Z" transform="translate(1109.271 -1825.228)" fill="#3a3a3a"/>
  <path id="Trazado_116681" data-name="Trazado 116681" d="M-1053.189,2000.979l.008,0a1.144,1.144,0,0,1-.116-.079,1.085,1.085,0,0,1-.113-.05,7.549,7.549,0,0,1-1.033-.777l-.156.092,1.232.711Z" transform="translate(1067.094 -1960.113)" fill="#3a3a3a"/>
  <path id="Trazado_116682" data-name="Trazado 116682" d="M-983.132,1852.1h0c.022.012.045.018.067.028a1.135,1.135,0,0,1-.368-1.52,1.135,1.135,0,0,1,1.459-.459c-.024-.016-.046-.035-.072-.048a8.523,8.523,0,0,0-5.82-.737l4.73,2.735Z" transform="translate(1015.613 -1843.694)" fill="#3a3a3a"/>
  <path id="Trazado_116683" data-name="Trazado 116683" d="M-1061.439,1986.364a1.134,1.134,0,0,1,1.469-.486c-.016-.011-.029-.024-.045-.035l-.033-.023-4.673-2.7a8.98,8.98,0,0,0,2.469,3.874l.727-.428A1.124,1.124,0,0,1-1061.439,1986.364Z" transform="translate(1074.904 -1947.035)" fill="#3a3a3a"/>
  <path id="Trazado_116684" data-name="Trazado 116684" d="M-1053.19,1998.2l-.727.428a7.549,7.549,0,0,0,1.033.777,1.085,1.085,0,0,0,.113.05A1.135,1.135,0,0,1-1053.19,1998.2Z" transform="translate(1066.568 -1958.668)" fill="#3a3a3a"/>
  <path id="Trazado_116685" data-name="Trazado 116685" d="M-1043.933,1995.178a1.184,1.184,0,0,1,.124.1c.032.009.063.023.094.035a1.087,1.087,0,0,0-.128-.09l-.015-.009C-1043.882,1995.2-1043.908,1995.189-1043.933,1995.178Z" transform="translate(1058.866 -1956.335)" fill="#3a3a3a"/>
  <path id="Trazado_116686" data-name="Trazado 116686" d="M-965.384,1854.976a1.135,1.135,0,0,1-1.476.485c.017.011.03.024.048.035l0,0,.018.01a1.139,1.139,0,0,0,1.545-.451,1.138,1.138,0,0,0-.44-1.538c-.028-.016-.056-.025-.085-.038A1.135,1.135,0,0,1-965.384,1854.976Z" transform="translate(999.409 -1847.024)" fill="#3a3a3a"/>
  <path id="Trazado_116687" data-name="Trazado 116687" d="M-1047.247,1997.091a1.135,1.135,0,0,0-.3-1.459c-.031-.012-.062-.026-.094-.035a1.137,1.137,0,0,1,.195,1.437,1.137,1.137,0,0,1-.967.536,1.134,1.134,0,0,1-.488-.122,1.086,1.086,0,0,0,.116.079,1.134,1.134,0,0,0,.55.143A1.138,1.138,0,0,0-1047.247,1997.091Z" transform="translate(1062.703 -1956.658)" fill="#3a3a3a"/>
  <path id="Trazado_116688" data-name="Trazado 116688" d="M-1050.651,1995.314a1.124,1.124,0,0,0-.086.205l.808-.477a1.134,1.134,0,0,1,.871-.119,1.2,1.2,0,0,0-.124-.1A1.134,1.134,0,0,0-1050.651,1995.314Z" transform="translate(1064.115 -1955.986)" fill="#3a3a3a"/>
  <path id="Trazado_116689" data-name="Trazado 116689" d="M-968.983,1853.586a1.135,1.135,0,0,0,.368,1.52,1.135,1.135,0,0,0,1.476-.485,1.135,1.135,0,0,0-.386-1.495A1.135,1.135,0,0,0-968.983,1853.586Z" transform="translate(1001.164 -1846.669)" fill="#3a3a3a"/>
  <path id="Trazado_116690" data-name="Trazado 116690" d="M-1049.037,1996.9a1.137,1.137,0,0,0-.195-1.437,1.134,1.134,0,0,0-.871.119l-.808.477a1.134,1.134,0,0,0,.419,1.255,1.132,1.132,0,0,0,.488.122A1.137,1.137,0,0,0-1049.037,1996.9Z" transform="translate(1064.289 -1956.528)" fill="#3a3a3a"/>
</svg>
