<svg xmlns="http://www.w3.org/2000/svg" width="85" height="94" viewBox="0 0 85 94">
  <g id="Grupo_136232" data-name="Grupo 136232" transform="translate(-180 -979)">
    <path id="Rectángulo_33876" data-name="Rectángulo 33876" d="M20,0H85a0,0,0,0,1,0,0V74A20,20,0,0,1,65,94H0a0,0,0,0,1,0,0V20A20,20,0,0,1,20,0Z" transform="translate(180 979)" fill="#64b5f6"/>
    <g id="Grupo_80735" data-name="Grupo 80735" transform="translate(194.362 997.465)">
      <circle id="Elipse_4740" data-name="Elipse 4740" cx="28.345" cy="28.345" r="28.345" transform="translate(-0.362 -0.465)" fill="#fff"/>
      <g id="laptop_front" data-name="laptop front" transform="translate(-1808.824 -1228.306)">
        <g id="Grupo_136238" data-name="Grupo 136238" transform="translate(1819.172 1239.68)">
          <g id="Grupo_136233" data-name="Grupo 136233" transform="translate(13.802)">
            <path id="Trazado_128506" data-name="Trazado 128506" d="M1913.52,1250.448a1.443,1.443,0,0,1,.454,1.1.974.974,0,0,1-.03.31l-3.71,13.093c-.134.468-.28.778-.788.663a1.015,1.015,0,0,0-.519-.6l-15.665-9.043a2.316,2.316,0,0,0-.778-.265v0a1.355,1.355,0,0,1-.225-1.236c.132-.46,3.436-12.3,3.57-12.779.223-.8.957-1.02,1.792-.537l15.481,8.937A1.588,1.588,0,0,1,1913.52,1250.448Z" transform="translate(-1892.198 -1240.89)" fill="#fff"/>
          </g>
          <g id="Grupo_136234" data-name="Grupo 136234" transform="translate(0 22.602)">
            <path id="Trazado_128507" data-name="Trazado 128507" d="M1851.45,1360.751v1.622a.911.911,0,0,1-.535.748l-11.745,6.78a2.855,2.855,0,0,1-2.589,0l-15.663-9.043a.909.909,0,0,1-.535-.746v-1.621a.91.91,0,0,0,.535.746l15.663,9.043a2.856,2.856,0,0,0,2.589,0l11.745-6.781A.911.911,0,0,0,1851.45,1360.751Z" transform="translate(-1820.384 -1358.491)" fill="#5c22c3"/>
          </g>
          <g id="Grupo_136235" data-name="Grupo 136235" transform="translate(0 14.764)">
            <path id="Trazado_128508" data-name="Trazado 128508" d="M1851.434,1327.663a.653.653,0,0,1,.016.142.911.911,0,0,1-.535.748l-11.745,6.781a2.856,2.856,0,0,1-2.589,0l-15.663-9.043a.789.789,0,0,1,0-1.494l11.745-6.781a2.636,2.636,0,0,1,1.3-.31,3.03,3.03,0,0,1,.513.045,2.381,2.381,0,0,1,.778.266l15.665,9.043A1.007,1.007,0,0,1,1851.434,1327.663Zm-2.481.426c.2-.118.223-.294.049-.4l-14.848-8.572a.76.76,0,0,0-.685.028l-5.074,2.929c-.2.117-.225.292-.049.4l14.848,8.572a.766.766,0,0,0,.685-.028Zm-12.258,1.354c.116-.067.128-.168.028-.227l-5.209-3.006a.433.433,0,0,0-.389.014l-3.144,1.816c-.118.065-.13.166-.028.225l5.209,3.008a.435.435,0,0,0,.389-.016Z" transform="translate(-1820.384 -1317.706)" fill="#fff"/>
          </g>
          <g id="Grupo_136236" data-name="Grupo 136236" transform="translate(7.844 16.11)">
            <path id="Trazado_128509" data-name="Trazado 128509" d="M1881.97,1333.352c.174.1.152.278-.049.4l-5.074,2.929a.767.767,0,0,1-.685.028l-14.848-8.573c-.176-.1-.152-.278.049-.4l5.074-2.929a.76.76,0,0,1,.685-.028Z" transform="translate(-1861.196 -1324.711)" fill="#ba68c8"/>
          </g>
          <g id="Grupo_136237" data-name="Grupo 136237" transform="translate(7.5 23.227)">
            <path id="Trazado_128510" data-name="Trazado 128510" d="M1868.248,1364.789c.1.059.087.16-.028.227l-3.144,1.814a.434.434,0,0,1-.389.016l-5.209-3.008c-.1-.059-.089-.16.028-.225l3.144-1.816a.432.432,0,0,1,.389-.014Z" transform="translate(-1859.408 -1361.744)" fill="#ba68c8"/>
          </g>
        </g>
        <g id="Grupo_136263" data-name="Grupo 136263" transform="translate(1818.884 1239.392)">
          <g id="Grupo_136239" data-name="Grupo 136239" transform="translate(7.844 16.109)">
            <path id="Trazado_128511" data-name="Trazado 128511" d="M1875.248,1335.846a.9.9,0,0,1-.441-.106l-14.85-8.573a.489.489,0,0,1-.263-.421.561.561,0,0,1,.31-.473l5.075-2.93a1.038,1.038,0,0,1,.972-.029l14.85,8.573a.487.487,0,0,1,.262.42.56.56,0,0,1-.309.473l-5.075,2.93h0A1.091,1.091,0,0,1,1875.248,1335.846Zm.387-.385h0Zm-15.274-8.728,14.733,8.506a.489.489,0,0,0,.4-.029l5.006-2.89-14.734-8.506a.485.485,0,0,0-.4.028Zm-.1.066Z" transform="translate(-1859.695 -1323.207)" fill="#373a3a"/>
          </g>
          <g id="Grupo_136240" data-name="Grupo 136240" transform="translate(0 14.763)">
            <path id="Trazado_128512" data-name="Trazado 128512" d="M1836.664,1334.718a2.915,2.915,0,0,1-1.438-.349l-15.662-9.042a1.071,1.071,0,0,1,0-1.994l11.744-6.78a3.073,3.073,0,0,1,2-.3,2.647,2.647,0,0,1,.873.3l15.665,9.043a1.279,1.279,0,0,1,.656.789h0a.928.928,0,0,1,.023.207,1.2,1.2,0,0,1-.679,1l-11.745,6.781A2.905,2.905,0,0,1,1836.664,1334.718Zm-3.916-17.937a2.361,2.361,0,0,0-1.15.271l-11.746,6.781c-.249.143-.391.324-.391.5s.143.353.391.5l15.662,9.042a2.573,2.573,0,0,0,2.3,0l11.745-6.781c.249-.143.391-.325.391-.5a.362.362,0,0,0-.009-.077h0a.743.743,0,0,0-.383-.419l-15.664-9.042a2.084,2.084,0,0,0-.683-.231A2.722,2.722,0,0,0,1832.747,1316.781Z" transform="translate(-1818.884 -1316.204)" fill="#373a3a"/>
          </g>
          <g id="Grupo_136241" data-name="Grupo 136241" transform="translate(7.5 23.227)">
            <path id="Trazado_128513" data-name="Trazado 128513" d="M1863.646,1365.964a.639.639,0,0,1-.314-.076l-5.21-3.009a.4.4,0,0,1-.213-.352.436.436,0,0,1,.246-.374l3.139-1.814a.721.721,0,0,1,.678-.014l5.209,3.006h0a.405.405,0,0,1,.209.349.44.44,0,0,1-.239.376l-3.144,1.815A.736.736,0,0,1,1863.646,1365.964Zm-4.984-3.439,4.958,2.863a.2.2,0,0,0,.1-.016l2.922-1.686-4.959-2.862a.189.189,0,0,0-.1.015Z" transform="translate(-1857.909 -1360.246)" fill="#373a3a"/>
          </g>
          <g id="Grupo_136242" data-name="Grupo 136242" transform="translate(0 22.602)">
            <path id="Trazado_128514" data-name="Trazado 128514" d="M1836.664,1369.287a2.914,2.914,0,0,1-1.438-.349l-15.662-9.043a1.181,1.181,0,0,1-.679-1v-1.622a.288.288,0,0,1,.577,0v1.622c0,.171.143.352.391.5l15.662,9.042a2.574,2.574,0,0,0,2.3,0l11.745-6.781c.249-.143.391-.325.391-.5v-1.622a.288.288,0,1,1,.577,0v1.622a1.2,1.2,0,0,1-.679,1l-11.745,6.78A2.905,2.905,0,0,1,1836.664,1369.287Z" transform="translate(-1818.884 -1356.99)" fill="#373a3a"/>
          </g>
          <g id="Grupo_136243" data-name="Grupo 136243" transform="translate(13.803 0)">
            <path id="Trazado_128515" data-name="Trazado 128515" d="M1908.432,1264.712a1.167,1.167,0,0,1-.252-.03.288.288,0,0,1,.055-.571h0a.279.279,0,0,1,.064.007c.227.052.3.043.448-.461l3.709-13.092a.678.678,0,0,0,.02-.215c0-.011,0-.021,0-.032a1.146,1.146,0,0,0-.373-.88l-.016-.017a1.3,1.3,0,0,0-.342-.3l-15.48-8.937a1.121,1.121,0,0,0-.956-.166.767.767,0,0,0-.414.531l-.5,1.782c-.964,3.454-2.97,10.641-3.073,11a1.065,1.065,0,0,0,.179.986.288.288,0,1,1-.463.343,1.648,1.648,0,0,1-.27-1.488c.1-.355,2.107-7.541,3.072-10.995l.5-1.781a1.32,1.32,0,0,1,.752-.91,1.67,1.67,0,0,1,1.462.2l15.48,8.938a1.853,1.853,0,0,1,.49.424,1.712,1.712,0,0,1,.528,1.289,1.236,1.236,0,0,1-.042.387l-3.71,13.094C1909.216,1264.119,1909.046,1264.712,1908.432,1264.712Z" transform="translate(-1890.701 -1239.392)" fill="#373a3a"/>
          </g>
          <g id="Grupo_136244" data-name="Grupo 136244" transform="translate(14.258 21.26)">
            <path id="Trazado_128516" data-name="Trazado 128516" d="M1898.545,1353.581a.288.288,0,0,1-.144-.039l-5.187-3a.288.288,0,0,1,.288-.5l5.188,3a.288.288,0,0,1-.144.538Z" transform="translate(-1893.07 -1350.009)" fill="#373a3a"/>
          </g>
          <g id="Grupo_136245" data-name="Grupo 136245" transform="translate(20.378 24.795)">
            <path id="Trazado_128517" data-name="Trazado 128517" d="M1926.079,1369.486a.286.286,0,0,1-.144-.038l-.88-.507a.288.288,0,1,1,.288-.5l.88.507a.288.288,0,0,1-.144.538Z" transform="translate(-1924.911 -1368.402)" fill="#373a3a"/>
          </g>
          <g id="Grupo_136246" data-name="Grupo 136246" transform="translate(22.135 25.808)">
            <path id="Trazado_128518" data-name="Trazado 128518" d="M1935.223,1374.761a.286.286,0,0,1-.144-.039l-.88-.509a.288.288,0,0,1,.289-.5l.88.509a.288.288,0,0,1-.145.538Z" transform="translate(-1934.056 -1373.675)" fill="#373a3a"/>
          </g>
          <g id="Grupo_136247" data-name="Grupo 136247" transform="translate(10.731 19.225)">
            <path id="Trazado_128519" data-name="Trazado 128519" d="M1875.887,1340.5a.286.286,0,0,1-.144-.039l-.88-.509a.288.288,0,1,1,.289-.5l.88.509a.288.288,0,0,1-.145.538Z" transform="translate(-1874.719 -1339.419)" fill="#373a3a"/>
          </g>
          <g id="Grupo_136248" data-name="Grupo 136248" transform="translate(12.489 20.24)">
            <path id="Trazado_128520" data-name="Trazado 128520" d="M1885.029,1345.786a.287.287,0,0,1-.144-.039l-.878-.507a.288.288,0,1,1,.288-.5l.878.507a.288.288,0,0,1-.144.538Z" transform="translate(-1883.863 -1344.703)" fill="#373a3a"/>
          </g>
          <g id="Grupo_136249" data-name="Grupo 136249" transform="translate(12.075 18.448)">
            <path id="Trazado_128521" data-name="Trazado 128521" d="M1882.879,1336.465a.288.288,0,0,1-.144-.039l-.88-.509a.288.288,0,0,1,.289-.5l.879.509a.288.288,0,0,1-.144.538Z" transform="translate(-1881.711 -1335.379)" fill="#373a3a"/>
          </g>
          <g id="Grupo_136250" data-name="Grupo 136250" transform="translate(13.976 19.545)">
            <path id="Trazado_128522" data-name="Trazado 128522" d="M1892.773,1342.171a.286.286,0,0,1-.144-.039l-.88-.509a.288.288,0,1,1,.288-.5l.88.509a.288.288,0,0,1-.144.538Z" transform="translate(-1891.605 -1341.085)" fill="#373a3a"/>
          </g>
          <g id="Grupo_136251" data-name="Grupo 136251" transform="translate(13.419 17.672)">
            <path id="Trazado_128523" data-name="Trazado 128523" d="M1889.872,1332.426a.288.288,0,0,1-.144-.039l-.88-.509a.288.288,0,1,1,.289-.5l.88.509a.288.288,0,0,1-.145.538Z" transform="translate(-1888.704 -1331.341)" fill="#373a3a"/>
          </g>
          <g id="Grupo_136252" data-name="Grupo 136252" transform="translate(15.318 18.771)">
            <path id="Trazado_128524" data-name="Trazado 128524" d="M1899.754,1338.14a.286.286,0,0,1-.144-.038l-.88-.507a.288.288,0,1,1,.288-.5l.88.507a.288.288,0,0,1-.144.538Z" transform="translate(-1898.586 -1337.057)" fill="#373a3a"/>
          </g>
          <g id="Grupo_136253" data-name="Grupo 136253" transform="translate(15.878 20.644)">
            <path id="Trazado_128525" data-name="Trazado 128525" d="M1902.663,1347.886a.287.287,0,0,1-.144-.039l-.877-.507a.288.288,0,0,1,.288-.5l.878.507a.288.288,0,0,1-.144.538Z" transform="translate(-1901.497 -1346.803)" fill="#373a3a"/>
          </g>
          <g id="Grupo_136254" data-name="Grupo 136254" transform="translate(17.22 19.867)">
            <path id="Trazado_128526" data-name="Trazado 128526" d="M1909.648,1343.848a.286.286,0,0,1-.144-.039l-.88-.509a.288.288,0,1,1,.288-.5l.88.509a.288.288,0,0,1-.145.538Z" transform="translate(-1908.48 -1342.762)" fill="#373a3a"/>
          </g>
          <g id="Grupo_136255" data-name="Grupo 136255" transform="translate(17.777 21.74)">
            <path id="Trazado_128527" data-name="Trazado 128527" d="M1912.547,1353.591a.287.287,0,0,1-.144-.039l-.88-.507a.288.288,0,0,1,.288-.5l.88.507a.288.288,0,0,1-.144.538Z" transform="translate(-1911.38 -1352.508)" fill="#373a3a"/>
          </g>
          <g id="Grupo_136256" data-name="Grupo 136256" transform="translate(19.121 20.966)">
            <path id="Trazado_128528" data-name="Trazado 128528" d="M1919.538,1349.563a.286.286,0,0,1-.144-.039l-.878-.507a.288.288,0,1,1,.288-.5l.878.507a.288.288,0,0,1-.144.538Z" transform="translate(-1918.372 -1348.479)" fill="#373a3a"/>
          </g>
          <g id="Grupo_136257" data-name="Grupo 136257" transform="translate(19.678 22.837)">
            <path id="Trazado_128529" data-name="Trazado 128529" d="M1922.441,1359.3a.286.286,0,0,1-.144-.039l-.88-.509a.288.288,0,0,1,.289-.5l.88.509a.288.288,0,0,1-.145.538Z" transform="translate(-1921.273 -1358.214)" fill="#373a3a"/>
          </g>
          <g id="Grupo_136258" data-name="Grupo 136258" transform="translate(21.02 22.063)">
            <path id="Trazado_128530" data-name="Trazado 128530" d="M1929.425,1355.271a.285.285,0,0,1-.144-.038l-.882-.509a.288.288,0,1,1,.288-.5l.882.509a.288.288,0,0,1-.144.538Z" transform="translate(-1928.255 -1354.186)" fill="#373a3a"/>
          </g>
          <g id="Grupo_136259" data-name="Grupo 136259" transform="translate(21.578 23.936)">
            <path id="Trazado_128531" data-name="Trazado 128531" d="M1932.325,1365.014a.287.287,0,0,1-.143-.038l-.882-.507a.288.288,0,1,1,.287-.5l.882.507a.288.288,0,0,1-.144.538Z" transform="translate(-1931.155 -1363.931)" fill="#373a3a"/>
          </g>
          <g id="Grupo_136260" data-name="Grupo 136260" transform="translate(22.922 23.159)">
            <path id="Trazado_128532" data-name="Trazado 128532" d="M1939.315,1360.976a.286.286,0,0,1-.144-.039l-.88-.509a.288.288,0,0,1,.289-.5l.88.509a.288.288,0,0,1-.145.538Z" transform="translate(-1938.148 -1359.891)" fill="#373a3a"/>
          </g>
          <g id="Grupo_136261" data-name="Grupo 136261" transform="translate(23.479 25.032)">
            <path id="Trazado_128533" data-name="Trazado 128533" d="M1942.216,1370.722a.286.286,0,0,1-.144-.039l-.88-.508a.288.288,0,1,1,.289-.5l.88.508a.288.288,0,0,1-.144.538Z" transform="translate(-1941.048 -1369.637)" fill="#373a3a"/>
          </g>
          <g id="Grupo_136262" data-name="Grupo 136262" transform="translate(24.823 24.258)">
            <path id="Trazado_128534" data-name="Trazado 128534" d="M1949.206,1366.691a.286.286,0,0,1-.144-.039l-.878-.507a.288.288,0,1,1,.288-.5l.878.507a.288.288,0,0,1-.145.538Z" transform="translate(-1948.04 -1365.608)" fill="#373a3a"/>
          </g>
        </g>
      </g>
    </g>
  </g>
</svg>
